<svg xmlns="http://www.w3.org/2000/svg" xmlns:xlink="http://www.w3.org/1999/xlink" width="320" zoomAndPan="magnify" viewBox="0 0 240 60" height="80" preserveAspectRatio="xMidYMid meet" version="1.0"><defs><filter x="0%" y="0%" width="100%" height="100%" id="4ddf46d901"><feColorMatrix values="0 0 0 0 1 0 0 0 0 1 0 0 0 0 1 0 0 0 1 0" color-interpolation-filters="sRGB"/></filter><g/><clipPath id="9adcb9e66a"><path d="M 1 25 L 30 25 L 30 55 L 1 55 Z M 1 25 " clip-rule="nonzero"/></clipPath><clipPath id="8ad597ac6b"><path d="M 12.675781 25.578125 L 29.582031 44.226562 L 18.175781 54.566406 L 1.269531 35.921875 Z M 12.675781 25.578125 " clip-rule="nonzero"/></clipPath><clipPath id="1e784c23ad"><path d="M 24.757812 13.300781 L 42.894531 33.300781 L 17.894531 55.972656 L -0.242188 35.96875 Z M 24.757812 13.300781 " clip-rule="nonzero"/></clipPath><clipPath id="57950d7288"><path d="M 0 24 L 31 24 L 31 56 L 0 56 Z M 0 24 " clip-rule="nonzero"/></clipPath><clipPath id="42c0de6dcb"><path d="M 12.738281 24.308594 L 30.875 44.308594 L 18.09375 55.898438 L -0.0429688 35.894531 Z M 12.738281 24.308594 " clip-rule="nonzero"/></clipPath><clipPath id="c641c6963d"><path d="M 12.738281 24.308594 L 30.847656 44.285156 L 18.113281 55.832031 L 0 35.855469 Z M 12.738281 24.308594 " clip-rule="nonzero"/></clipPath><clipPath id="b4663d4e41"><path d="M 15 3 L 52 3 L 52 44 L 15 44 Z M 15 3 " clip-rule="nonzero"/></clipPath><clipPath id="9bee6d5308"><path d="M 12.460938 23.191406 L 38.109375 0.117188 L 57.167969 21.304688 L 31.523438 44.378906 Z M 12.460938 23.191406 " clip-rule="nonzero"/></clipPath><clipPath id="29e0d1eb54"><path d="M 12.460938 23.191406 L 38.109375 0.117188 L 57.167969 21.304688 L 31.523438 44.378906 Z M 12.460938 23.191406 " clip-rule="nonzero"/></clipPath><clipPath id="a2cde488eb"><path d="M 12.460938 23.191406 L 38.109375 0.117188 L 57.167969 21.304688 L 31.523438 44.378906 Z M 12.460938 23.191406 " clip-rule="nonzero"/></clipPath><clipPath id="3cd718daea"><path d="M 0 0 L 240 0 L 240 60 L 0 60 Z M 0 0 " clip-rule="nonzero"/></clipPath><linearGradient x1="125.18" gradientTransform="matrix(0.762835, 0, 0, 0.764074, 49.257538, 4.35518)" y1="72.826445" x2="125.18" gradientUnits="userSpaceOnUse" y2="-5.69994" id="75ed6f5f7b"><stop stop-opacity="1" stop-color="rgb(6.669617%, 19.999695%, 12.548828%)" offset="0"/><stop stop-opacity="1" stop-color="rgb(6.669617%, 19.999695%, 12.548828%)" offset="0.25"/><stop stop-opacity="1" stop-color="rgb(6.735229%, 20.283508%, 12.838745%)" offset="0.253906"/><stop stop-opacity="1" stop-color="rgb(6.802368%, 20.567322%, 13.130188%)" offset="0.257812"/><stop stop-opacity="1" stop-color="rgb(6.898499%, 20.983887%, 13.555908%)" offset="0.261719"/><stop stop-opacity="1" stop-color="rgb(6.996155%, 21.400452%, 13.981628%)" offset="0.265625"/><stop stop-opacity="1" stop-color="rgb(7.092285%, 21.817017%, 14.407349%)" offset="0.269531"/><stop stop-opacity="1" stop-color="rgb(7.189941%, 22.233582%, 14.833069%)" offset="0.273438"/><stop stop-opacity="1" stop-color="rgb(7.286072%, 22.648621%, 15.258789%)" offset="0.277344"/><stop stop-opacity="1" stop-color="rgb(7.383728%, 23.065186%, 15.684509%)" offset="0.28125"/><stop stop-opacity="1" stop-color="rgb(7.481384%, 23.48175%, 16.110229%)" offset="0.285156"/><stop stop-opacity="1" stop-color="rgb(7.579041%, 23.898315%, 16.53595%)" offset="0.289062"/><stop stop-opacity="1" stop-color="rgb(7.675171%, 24.31488%, 16.96167%)" offset="0.292969"/><stop stop-opacity="1" stop-color="rgb(7.772827%, 24.731445%, 17.38739%)" offset="0.296875"/><stop stop-opacity="1" stop-color="rgb(7.868958%, 25.146484%, 17.81311%)" offset="0.300781"/><stop stop-opacity="1" stop-color="rgb(7.966614%, 25.563049%, 18.238831%)" offset="0.304688"/><stop stop-opacity="1" stop-color="rgb(8.062744%, 25.979614%, 18.663025%)" offset="0.308594"/><stop stop-opacity="1" stop-color="rgb(8.1604%, 26.396179%, 19.088745%)" offset="0.3125"/><stop stop-opacity="1" stop-color="rgb(8.258057%, 26.812744%, 19.514465%)" offset="0.316406"/><stop stop-opacity="1" stop-color="rgb(8.355713%, 27.229309%, 19.940186%)" offset="0.320312"/><stop stop-opacity="1" stop-color="rgb(8.451843%, 27.645874%, 20.365906%)" offset="0.324219"/><stop stop-opacity="1" stop-color="rgb(8.5495%, 28.062439%, 20.791626%)" offset="0.328125"/><stop stop-opacity="1" stop-color="rgb(8.64563%, 28.477478%, 21.217346%)" offset="0.332031"/><stop stop-opacity="1" stop-color="rgb(8.743286%, 28.894043%, 21.643066%)" offset="0.335938"/><stop stop-opacity="1" stop-color="rgb(8.840942%, 29.310608%, 22.068787%)" offset="0.339844"/><stop stop-opacity="1" stop-color="rgb(8.938599%, 29.727173%, 22.494507%)" offset="0.34375"/><stop stop-opacity="1" stop-color="rgb(9.034729%, 30.143738%, 22.920227%)" offset="0.347656"/><stop stop-opacity="1" stop-color="rgb(9.132385%, 30.560303%, 23.345947%)" offset="0.351562"/><stop stop-opacity="1" stop-color="rgb(9.228516%, 30.975342%, 23.771667%)" offset="0.355469"/><stop stop-opacity="1" stop-color="rgb(9.326172%, 31.391907%, 24.197388%)" offset="0.359375"/><stop stop-opacity="1" stop-color="rgb(9.422302%, 31.808472%, 24.623108%)" offset="0.363281"/><stop stop-opacity="1" stop-color="rgb(9.519958%, 32.225037%, 25.048828%)" offset="0.367188"/><stop stop-opacity="1" stop-color="rgb(9.617615%, 32.641602%, 25.474548%)" offset="0.371094"/><stop stop-opacity="1" stop-color="rgb(9.715271%, 33.058167%, 25.900269%)" offset="0.375"/><stop stop-opacity="1" stop-color="rgb(9.811401%, 33.473206%, 26.325989%)" offset="0.378906"/><stop stop-opacity="1" stop-color="rgb(9.909058%, 33.889771%, 26.751709%)" offset="0.382812"/><stop stop-opacity="1" stop-color="rgb(10.005188%, 34.306335%, 27.177429%)" offset="0.386719"/><stop stop-opacity="1" stop-color="rgb(10.102844%, 34.7229%, 27.603149%)" offset="0.390625"/><stop stop-opacity="1" stop-color="rgb(10.198975%, 35.139465%, 28.02887%)" offset="0.394531"/><stop stop-opacity="1" stop-color="rgb(10.296631%, 35.55603%, 28.45459%)" offset="0.398438"/><stop stop-opacity="1" stop-color="rgb(10.394287%, 35.972595%, 28.88031%)" offset="0.402344"/><stop stop-opacity="1" stop-color="rgb(10.491943%, 36.38916%, 29.30603%)" offset="0.40625"/><stop stop-opacity="1" stop-color="rgb(10.588074%, 36.804199%, 29.73175%)" offset="0.410156"/><stop stop-opacity="1" stop-color="rgb(10.68573%, 37.220764%, 30.157471%)" offset="0.414062"/><stop stop-opacity="1" stop-color="rgb(10.78186%, 37.637329%, 30.581665%)" offset="0.417969"/><stop stop-opacity="1" stop-color="rgb(10.879517%, 38.053894%, 31.007385%)" offset="0.421875"/><stop stop-opacity="1" stop-color="rgb(10.975647%, 38.470459%, 31.433105%)" offset="0.425781"/><stop stop-opacity="1" stop-color="rgb(11.073303%, 38.887024%, 31.858826%)" offset="0.429688"/><stop stop-opacity="1" stop-color="rgb(11.170959%, 39.302063%, 32.284546%)" offset="0.433594"/><stop stop-opacity="1" stop-color="rgb(11.268616%, 39.718628%, 32.710266%)" offset="0.4375"/><stop stop-opacity="1" stop-color="rgb(11.364746%, 40.135193%, 33.135986%)" offset="0.441406"/><stop stop-opacity="1" stop-color="rgb(11.462402%, 40.551758%, 33.561707%)" offset="0.445312"/><stop stop-opacity="1" stop-color="rgb(11.558533%, 40.968323%, 33.987427%)" offset="0.449219"/><stop stop-opacity="1" stop-color="rgb(11.656189%, 41.384888%, 34.413147%)" offset="0.453125"/><stop stop-opacity="1" stop-color="rgb(11.753845%, 41.801453%, 34.838867%)" offset="0.457031"/><stop stop-opacity="1" stop-color="rgb(11.851501%, 42.218018%, 35.264587%)" offset="0.460938"/><stop stop-opacity="1" stop-color="rgb(11.947632%, 42.633057%, 35.690308%)" offset="0.464844"/><stop stop-opacity="1" stop-color="rgb(12.045288%, 43.049622%, 36.116028%)" offset="0.46875"/><stop stop-opacity="1" stop-color="rgb(12.141418%, 43.466187%, 36.541748%)" offset="0.472656"/><stop stop-opacity="1" stop-color="rgb(12.239075%, 43.882751%, 36.967468%)" offset="0.476562"/><stop stop-opacity="1" stop-color="rgb(12.335205%, 44.299316%, 37.393188%)" offset="0.480469"/><stop stop-opacity="1" stop-color="rgb(12.432861%, 44.715881%, 37.818909%)" offset="0.484375"/><stop stop-opacity="1" stop-color="rgb(12.530518%, 45.13092%, 38.244629%)" offset="0.488281"/><stop stop-opacity="1" stop-color="rgb(12.628174%, 45.547485%, 38.670349%)" offset="0.492188"/><stop stop-opacity="1" stop-color="rgb(12.724304%, 45.96405%, 39.096069%)" offset="0.496094"/><stop stop-opacity="1" stop-color="rgb(12.82196%, 46.380615%, 39.52179%)" offset="0.5"/><stop stop-opacity="1" stop-color="rgb(12.918091%, 46.79718%, 39.94751%)" offset="0.503906"/><stop stop-opacity="1" stop-color="rgb(13.015747%, 47.213745%, 40.37323%)" offset="0.507812"/><stop stop-opacity="1" stop-color="rgb(13.111877%, 47.63031%, 40.79895%)" offset="0.511719"/><stop stop-opacity="1" stop-color="rgb(13.209534%, 48.046875%, 41.22467%)" offset="0.515625"/><stop stop-opacity="1" stop-color="rgb(13.30719%, 48.461914%, 41.650391%)" offset="0.519531"/><stop stop-opacity="1" stop-color="rgb(13.404846%, 48.878479%, 42.076111%)" offset="0.523438"/><stop stop-opacity="1" stop-color="rgb(13.500977%, 49.295044%, 42.501831%)" offset="0.527344"/><stop stop-opacity="1" stop-color="rgb(13.598633%, 49.711609%, 42.927551%)" offset="0.53125"/><stop stop-opacity="1" stop-color="rgb(13.694763%, 50.128174%, 43.351746%)" offset="0.535156"/><stop stop-opacity="1" stop-color="rgb(13.792419%, 50.544739%, 43.777466%)" offset="0.539062"/><stop stop-opacity="1" stop-color="rgb(13.88855%, 50.959778%, 44.203186%)" offset="0.542969"/><stop stop-opacity="1" stop-color="rgb(13.986206%, 51.376343%, 44.628906%)" offset="0.546875"/><stop stop-opacity="1" stop-color="rgb(14.083862%, 51.792908%, 45.054626%)" offset="0.550781"/><stop stop-opacity="1" stop-color="rgb(14.181519%, 52.209473%, 45.480347%)" offset="0.554688"/><stop stop-opacity="1" stop-color="rgb(14.277649%, 52.626038%, 45.906067%)" offset="0.558594"/><stop stop-opacity="1" stop-color="rgb(14.375305%, 53.042603%, 46.331787%)" offset="0.5625"/><stop stop-opacity="1" stop-color="rgb(14.471436%, 53.459167%, 46.757507%)" offset="0.566406"/><stop stop-opacity="1" stop-color="rgb(14.569092%, 53.875732%, 47.183228%)" offset="0.570312"/><stop stop-opacity="1" stop-color="rgb(14.665222%, 54.290771%, 47.608948%)" offset="0.574219"/><stop stop-opacity="1" stop-color="rgb(14.762878%, 54.707336%, 48.034668%)" offset="0.578125"/><stop stop-opacity="1" stop-color="rgb(15.048218%, 55.157471%, 48.410034%)" offset="0.582031"/><stop stop-opacity="1" stop-color="rgb(15.335083%, 55.607605%, 48.7854%)" offset="0.585938"/><stop stop-opacity="1" stop-color="rgb(16.056824%, 56.134033%, 49.0448%)" offset="0.589844"/><stop stop-opacity="1" stop-color="rgb(16.778564%, 56.661987%, 49.304199%)" offset="0.59375"/><stop stop-opacity="1" stop-color="rgb(17.500305%, 57.189941%, 49.562073%)" offset="0.597656"/><stop stop-opacity="1" stop-color="rgb(18.222046%, 57.717896%, 49.821472%)" offset="0.601562"/><stop stop-opacity="1" stop-color="rgb(18.943787%, 58.244324%, 50.080872%)" offset="0.605469"/><stop stop-opacity="1" stop-color="rgb(19.665527%, 58.772278%, 50.340271%)" offset="0.609375"/><stop stop-opacity="1" stop-color="rgb(20.387268%, 59.298706%, 50.598145%)" offset="0.613281"/><stop stop-opacity="1" stop-color="rgb(21.109009%, 59.82666%, 50.857544%)" offset="0.617188"/><stop stop-opacity="1" stop-color="rgb(21.83075%, 60.354614%, 51.116943%)" offset="0.621094"/><stop stop-opacity="1" stop-color="rgb(22.55249%, 60.882568%, 51.376343%)" offset="0.625"/><stop stop-opacity="1" stop-color="rgb(23.274231%, 61.408997%, 51.635742%)" offset="0.628906"/><stop stop-opacity="1" stop-color="rgb(23.995972%, 61.936951%, 51.895142%)" offset="0.632813"/><stop stop-opacity="1" stop-color="rgb(24.717712%, 62.464905%, 52.153015%)" offset="0.636719"/><stop stop-opacity="1" stop-color="rgb(25.439453%, 62.992859%, 52.412415%)" offset="0.640625"/><stop stop-opacity="1" stop-color="rgb(26.161194%, 63.519287%, 52.671814%)" offset="0.644531"/><stop stop-opacity="1" stop-color="rgb(26.882935%, 64.047241%, 52.931213%)" offset="0.648438"/><stop stop-opacity="1" stop-color="rgb(27.604675%, 64.573669%, 53.189087%)" offset="0.652344"/><stop stop-opacity="1" stop-color="rgb(28.326416%, 65.101624%, 53.448486%)" offset="0.65625"/><stop stop-opacity="1" stop-color="rgb(29.048157%, 65.629578%, 53.707886%)" offset="0.660156"/><stop stop-opacity="1" stop-color="rgb(29.769897%, 66.157532%, 53.967285%)" offset="0.664062"/><stop stop-opacity="1" stop-color="rgb(30.491638%, 66.68396%, 54.226685%)" offset="0.667969"/><stop stop-opacity="1" stop-color="rgb(31.214905%, 67.211914%, 54.486084%)" offset="0.671875"/><stop stop-opacity="1" stop-color="rgb(31.936646%, 67.739868%, 54.743958%)" offset="0.675781"/><stop stop-opacity="1" stop-color="rgb(32.658386%, 68.267822%, 55.003357%)" offset="0.679688"/><stop stop-opacity="1" stop-color="rgb(33.380127%, 68.79425%, 55.262756%)" offset="0.683594"/><stop stop-opacity="1" stop-color="rgb(34.101868%, 69.322205%, 55.522156%)" offset="0.6875"/><stop stop-opacity="1" stop-color="rgb(34.823608%, 69.848633%, 55.780029%)" offset="0.691406"/><stop stop-opacity="1" stop-color="rgb(35.545349%, 70.376587%, 56.039429%)" offset="0.695312"/><stop stop-opacity="1" stop-color="rgb(36.26709%, 70.904541%, 56.298828%)" offset="0.699219"/><stop stop-opacity="1" stop-color="rgb(36.988831%, 71.432495%, 56.558228%)" offset="0.703125"/><stop stop-opacity="1" stop-color="rgb(37.710571%, 71.958923%, 56.816101%)" offset="0.707031"/><stop stop-opacity="1" stop-color="rgb(38.432312%, 72.486877%, 57.0755%)" offset="0.710937"/><stop stop-opacity="1" stop-color="rgb(39.154053%, 73.013306%, 57.3349%)" offset="0.714844"/><stop stop-opacity="1" stop-color="rgb(39.875793%, 73.54126%, 57.594299%)" offset="0.71875"/><stop stop-opacity="1" stop-color="rgb(40.597534%, 74.069214%, 57.853699%)" offset="0.722656"/><stop stop-opacity="1" stop-color="rgb(41.319275%, 74.597168%, 58.113098%)" offset="0.726563"/><stop stop-opacity="1" stop-color="rgb(42.041016%, 75.123596%, 58.370972%)" offset="0.730469"/><stop stop-opacity="1" stop-color="rgb(42.762756%, 75.65155%, 58.630371%)" offset="0.734375"/><stop stop-opacity="1" stop-color="rgb(43.484497%, 76.179504%, 58.889771%)" offset="0.738281"/><stop stop-opacity="1" stop-color="rgb(44.206238%, 76.707458%, 59.14917%)" offset="0.742188"/><stop stop-opacity="1" stop-color="rgb(44.927979%, 77.233887%, 59.407043%)" offset="0.746094"/><stop stop-opacity="1" stop-color="rgb(45.649719%, 77.761841%, 59.666443%)" offset="0.75"/><stop stop-opacity="1" stop-color="rgb(46.37146%, 78.288269%, 59.925842%)" offset="0.753906"/><stop stop-opacity="1" stop-color="rgb(47.093201%, 78.816223%, 60.185242%)" offset="0.757813"/><stop stop-opacity="1" stop-color="rgb(47.814941%, 79.344177%, 60.444641%)" offset="0.761719"/><stop stop-opacity="1" stop-color="rgb(48.536682%, 79.872131%, 60.704041%)" offset="0.765625"/><stop stop-opacity="1" stop-color="rgb(49.258423%, 80.39856%, 60.961914%)" offset="0.769531"/><stop stop-opacity="1" stop-color="rgb(49.980164%, 80.926514%, 61.221313%)" offset="0.773438"/><stop stop-opacity="1" stop-color="rgb(50.701904%, 81.452942%, 61.480713%)" offset="0.777344"/><stop stop-opacity="1" stop-color="rgb(51.423645%, 81.980896%, 61.740112%)" offset="0.78125"/><stop stop-opacity="1" stop-color="rgb(52.145386%, 82.50885%, 61.997986%)" offset="0.785156"/><stop stop-opacity="1" stop-color="rgb(52.868652%, 83.036804%, 62.257385%)" offset="0.789063"/><stop stop-opacity="1" stop-color="rgb(53.590393%, 83.563232%, 62.516785%)" offset="0.792969"/><stop stop-opacity="1" stop-color="rgb(54.312134%, 84.091187%, 62.776184%)" offset="0.796875"/><stop stop-opacity="1" stop-color="rgb(55.033875%, 84.619141%, 63.034058%)" offset="0.800781"/><stop stop-opacity="1" stop-color="rgb(55.755615%, 85.147095%, 63.293457%)" offset="0.804688"/><stop stop-opacity="1" stop-color="rgb(56.477356%, 85.673523%, 63.552856%)" offset="0.808594"/><stop stop-opacity="1" stop-color="rgb(57.199097%, 86.201477%, 63.812256%)" offset="0.8125"/><stop stop-opacity="1" stop-color="rgb(57.920837%, 86.727905%, 64.071655%)" offset="0.816406"/><stop stop-opacity="1" stop-color="rgb(58.642578%, 87.255859%, 64.331055%)" offset="0.820312"/><stop stop-opacity="1" stop-color="rgb(59.364319%, 87.783813%, 64.588928%)" offset="0.824219"/><stop stop-opacity="1" stop-color="rgb(60.08606%, 88.311768%, 64.848328%)" offset="0.828125"/><stop stop-opacity="1" stop-color="rgb(60.8078%, 88.838196%, 65.107727%)" offset="0.832031"/><stop stop-opacity="1" stop-color="rgb(61.529541%, 89.36615%, 65.367126%)" offset="0.835938"/><stop stop-opacity="1" stop-color="rgb(62.251282%, 89.894104%, 65.625%)" offset="0.839844"/><stop stop-opacity="1" stop-color="rgb(62.973022%, 90.422058%, 65.884399%)" offset="0.84375"/><stop stop-opacity="1" stop-color="rgb(63.694763%, 90.948486%, 66.143799%)" offset="0.847656"/><stop stop-opacity="1" stop-color="rgb(64.416504%, 91.47644%, 66.403198%)" offset="0.851562"/><stop stop-opacity="1" stop-color="rgb(65.138245%, 92.002869%, 66.661072%)" offset="0.855469"/><stop stop-opacity="1" stop-color="rgb(65.859985%, 92.530823%, 66.920471%)" offset="0.859375"/><stop stop-opacity="1" stop-color="rgb(66.581726%, 93.058777%, 67.179871%)" offset="0.863281"/><stop stop-opacity="1" stop-color="rgb(67.303467%, 93.586731%, 67.43927%)" offset="0.867188"/><stop stop-opacity="1" stop-color="rgb(68.025208%, 94.113159%, 67.698669%)" offset="0.871094"/><stop stop-opacity="1" stop-color="rgb(68.746948%, 94.641113%, 67.958069%)" offset="0.875"/><stop stop-opacity="1" stop-color="rgb(69.468689%, 95.167542%, 68.215942%)" offset="0.878906"/><stop stop-opacity="1" stop-color="rgb(70.19043%, 95.695496%, 68.475342%)" offset="0.882812"/><stop stop-opacity="1" stop-color="rgb(70.91217%, 96.22345%, 68.734741%)" offset="0.886719"/><stop stop-opacity="1" stop-color="rgb(71.633911%, 96.751404%, 68.994141%)" offset="0.890625"/><stop stop-opacity="1" stop-color="rgb(72.355652%, 97.277832%, 69.252014%)" offset="0.894531"/><stop stop-opacity="1" stop-color="rgb(73.077393%, 97.805786%, 69.511414%)" offset="0.898438"/><stop stop-opacity="1" stop-color="rgb(73.799133%, 98.33374%, 69.770813%)" offset="0.902344"/><stop stop-opacity="1" stop-color="rgb(74.5224%, 98.861694%, 70.030212%)" offset="0.90625"/><stop stop-opacity="1" stop-color="rgb(75.244141%, 99.388123%, 70.289612%)" offset="0.910156"/><stop stop-opacity="1" stop-color="rgb(75.965881%, 99.916077%, 70.549011%)" offset="0.914062"/><stop stop-opacity="1" stop-color="rgb(76.022339%, 99.957275%, 70.568848%)" offset="0.921875"/><stop stop-opacity="1" stop-color="rgb(76.078796%, 100%, 70.588684%)" offset="0.9375"/><stop stop-opacity="1" stop-color="rgb(76.078796%, 100%, 70.588684%)" offset="1"/></linearGradient><clipPath id="2702d6661d"><rect x="0" width="240" y="0" height="60"/></clipPath><clipPath id="a3435fd94b"><rect x="0" width="240" y="0" height="60"/></clipPath><clipPath id="3bc5acda71"><rect x="0" width="240" y="0" height="60"/></clipPath><mask id="b5b6128e82"><g filter="url(#4ddf46d901)"><g transform="matrix(1, 0, 0, 1, 0, -0.000000000000001479)"><g clip-path="url(#3bc5acda71)"><g transform="matrix(1, 0, 0, 1, 0, -0.000000000000001479)"><g clip-path="url(#a3435fd94b)"><g fill="#000000" fill-opacity="1"><g transform="translate(49.024144, 35.283552)"><g><path d="M 2.65625 0 L 2.65625 -21.046875 L 7.109375 -21.046875 L 7.109375 -3.6875 L 15.65625 -3.6875 L 15.65625 0 Z M 2.65625 0 "/></g></g></g><g fill="#000000" fill-opacity="1"><g transform="translate(65.68347, 35.283552)"><g><path d="M 12.53125 0 L 11.671875 -2.1875 L 11.5625 -2.1875 C 10.820312 -1.257812 10.0625 -0.613281 9.28125 -0.25 C 8.5 0.101562 7.476562 0.28125 6.21875 0.28125 C 4.675781 0.28125 3.457031 -0.15625 2.5625 -1.03125 C 1.675781 -1.914062 1.234375 -3.175781 1.234375 -4.8125 C 1.234375 -6.519531 1.832031 -7.773438 3.03125 -8.578125 C 4.226562 -9.390625 6.03125 -9.84375 8.4375 -9.9375 L 11.234375 -10.015625 L 11.234375 -10.71875 C 11.234375 -12.351562 10.394531 -13.171875 8.71875 -13.171875 C 7.4375 -13.171875 5.925781 -12.78125 4.1875 -12 L 2.734375 -14.96875 C 4.585938 -15.9375 6.640625 -16.421875 8.890625 -16.421875 C 11.054688 -16.421875 12.710938 -15.953125 13.859375 -15.015625 C 15.015625 -14.078125 15.59375 -12.644531 15.59375 -10.71875 L 15.59375 0 Z M 11.234375 -7.453125 L 9.53125 -7.40625 C 8.25 -7.363281 7.296875 -7.128906 6.671875 -6.703125 C 6.054688 -6.285156 5.75 -5.644531 5.75 -4.78125 C 5.75 -3.539062 6.457031 -2.921875 7.875 -2.921875 C 8.894531 -2.921875 9.707031 -3.210938 10.3125 -3.796875 C 10.925781 -4.378906 11.234375 -5.160156 11.234375 -6.140625 Z M 11.234375 -7.453125 "/></g></g></g><g fill="#000000" fill-opacity="1"><g transform="translate(83.494695, 35.283552)"><g><path d="M 9.078125 -3.203125 C 9.847656 -3.203125 10.769531 -3.375 11.84375 -3.71875 L 11.84375 -0.453125 C 10.75 0.0351562 9.40625 0.28125 7.8125 0.28125 C 6.0625 0.28125 4.785156 -0.160156 3.984375 -1.046875 C 3.179688 -1.929688 2.78125 -3.257812 2.78125 -5.03125 L 2.78125 -12.796875 L 0.671875 -12.796875 L 0.671875 -14.65625 L 3.09375 -16.125 L 4.359375 -19.515625 L 7.171875 -19.515625 L 7.171875 -16.09375 L 11.671875 -16.09375 L 11.671875 -12.796875 L 7.171875 -12.796875 L 7.171875 -5.03125 C 7.171875 -4.414062 7.34375 -3.957031 7.6875 -3.65625 C 8.039062 -3.351562 8.503906 -3.203125 9.078125 -3.203125 Z M 9.078125 -3.203125 "/></g></g></g><g fill="#000000" fill-opacity="1"><g transform="translate(96.295163, 35.283552)"><g><path d="M 8.96875 -13.28125 C 8.039062 -13.28125 7.3125 -12.984375 6.78125 -12.390625 C 6.25 -11.796875 5.945312 -10.957031 5.875 -9.875 L 12.03125 -9.875 C 12.007812 -10.957031 11.722656 -11.796875 11.171875 -12.390625 C 10.628906 -12.984375 9.894531 -13.28125 8.96875 -13.28125 Z M 9.59375 0.28125 C 7 0.28125 4.972656 -0.429688 3.515625 -1.859375 C 2.054688 -3.285156 1.328125 -5.3125 1.328125 -7.9375 C 1.328125 -10.632812 2 -12.71875 3.34375 -14.1875 C 4.695312 -15.65625 6.5625 -16.390625 8.9375 -16.390625 C 11.21875 -16.390625 12.988281 -15.742188 14.25 -14.453125 C 15.519531 -13.160156 16.15625 -11.367188 16.15625 -9.078125 L 16.15625 -6.953125 L 5.765625 -6.953125 C 5.816406 -5.703125 6.1875 -4.726562 6.875 -4.03125 C 7.570312 -3.332031 8.546875 -2.984375 9.796875 -2.984375 C 10.765625 -2.984375 11.675781 -3.082031 12.53125 -3.28125 C 13.394531 -3.476562 14.300781 -3.800781 15.25 -4.25 L 15.25 -0.84375 C 14.476562 -0.46875 13.65625 -0.1875 12.78125 0 C 11.90625 0.1875 10.84375 0.28125 9.59375 0.28125 Z M 9.59375 0.28125 "/></g></g></g><g fill="#000000" fill-opacity="1"><g transform="translate(113.717622, 35.283552)"><g><path d="M 11.28125 -16.390625 C 11.875 -16.390625 12.367188 -16.347656 12.765625 -16.265625 L 12.4375 -12.15625 C 12.082031 -12.25 11.648438 -12.296875 11.140625 -12.296875 C 9.742188 -12.296875 8.648438 -11.9375 7.859375 -11.21875 C 7.078125 -10.5 6.6875 -9.488281 6.6875 -8.1875 L 6.6875 0 L 2.296875 0 L 2.296875 -16.09375 L 5.625 -16.09375 L 6.28125 -13.390625 L 6.5 -13.390625 C 6.988281 -14.296875 7.660156 -15.019531 8.515625 -15.5625 C 9.367188 -16.113281 10.289062 -16.390625 11.28125 -16.390625 Z M 11.28125 -16.390625 "/></g></g></g><g fill="#000000" fill-opacity="1"><g transform="translate(127.108438, 35.283552)"><g><path d="M 12.53125 0 L 11.671875 -2.1875 L 11.5625 -2.1875 C 10.820312 -1.257812 10.0625 -0.613281 9.28125 -0.25 C 8.5 0.101562 7.476562 0.28125 6.21875 0.28125 C 4.675781 0.28125 3.457031 -0.15625 2.5625 -1.03125 C 1.675781 -1.914062 1.234375 -3.175781 1.234375 -4.8125 C 1.234375 -6.519531 1.832031 -7.773438 3.03125 -8.578125 C 4.226562 -9.390625 6.03125 -9.84375 8.4375 -9.9375 L 11.234375 -10.015625 L 11.234375 -10.71875 C 11.234375 -12.351562 10.394531 -13.171875 8.71875 -13.171875 C 7.4375 -13.171875 5.925781 -12.78125 4.1875 -12 L 2.734375 -14.96875 C 4.585938 -15.9375 6.640625 -16.421875 8.890625 -16.421875 C 11.054688 -16.421875 12.710938 -15.953125 13.859375 -15.015625 C 15.015625 -14.078125 15.59375 -12.644531 15.59375 -10.71875 L 15.59375 0 Z M 11.234375 -7.453125 L 9.53125 -7.40625 C 8.25 -7.363281 7.296875 -7.128906 6.671875 -6.703125 C 6.054688 -6.285156 5.75 -5.644531 5.75 -4.78125 C 5.75 -3.539062 6.457031 -2.921875 7.875 -2.921875 C 8.894531 -2.921875 9.707031 -3.210938 10.3125 -3.796875 C 10.925781 -4.378906 11.234375 -5.160156 11.234375 -6.140625 Z M 11.234375 -7.453125 "/></g></g></g><g fill="#000000" fill-opacity="1"><g transform="translate(144.919663, 35.283552)"><g><path d="M 6.6875 0 L 2.296875 0 L 2.296875 -22.40625 L 6.6875 -22.40625 Z M 6.6875 0 "/></g></g></g><g fill="#000000" fill-opacity="1"><g transform="translate(153.918867, 35.283552)"><g><path d="M 14.65625 -21.046875 L 19.15625 -21.046875 L 12 0 L 7.140625 0 L 0 -21.046875 L 4.5 -21.046875 L 8.46875 -8.515625 C 8.6875 -7.785156 8.910156 -6.925781 9.140625 -5.9375 C 9.378906 -4.957031 9.53125 -4.273438 9.59375 -3.890625 C 9.695312 -4.773438 10.054688 -6.316406 10.671875 -8.515625 Z M 14.65625 -21.046875 "/></g></g></g><g fill="#000000" fill-opacity="1"><g transform="translate(173.083572, 35.283552)"><g><path d="M 8.96875 -13.28125 C 8.039062 -13.28125 7.3125 -12.984375 6.78125 -12.390625 C 6.25 -11.796875 5.945312 -10.957031 5.875 -9.875 L 12.03125 -9.875 C 12.007812 -10.957031 11.722656 -11.796875 11.171875 -12.390625 C 10.628906 -12.984375 9.894531 -13.28125 8.96875 -13.28125 Z M 9.59375 0.28125 C 7 0.28125 4.972656 -0.429688 3.515625 -1.859375 C 2.054688 -3.285156 1.328125 -5.3125 1.328125 -7.9375 C 1.328125 -10.632812 2 -12.71875 3.34375 -14.1875 C 4.695312 -15.65625 6.5625 -16.390625 8.9375 -16.390625 C 11.21875 -16.390625 12.988281 -15.742188 14.25 -14.453125 C 15.519531 -13.160156 16.15625 -11.367188 16.15625 -9.078125 L 16.15625 -6.953125 L 5.765625 -6.953125 C 5.816406 -5.703125 6.1875 -4.726562 6.875 -4.03125 C 7.570312 -3.332031 8.546875 -2.984375 9.796875 -2.984375 C 10.765625 -2.984375 11.675781 -3.082031 12.53125 -3.28125 C 13.394531 -3.476562 14.300781 -3.800781 15.25 -4.25 L 15.25 -0.84375 C 14.476562 -0.46875 13.65625 -0.1875 12.78125 0 C 11.90625 0.1875 10.84375 0.28125 9.59375 0.28125 Z M 9.59375 0.28125 "/></g></g></g><g fill="#000000" fill-opacity="1"><g transform="translate(190.506031, 35.283552)"><g><path d="M 11.28125 -16.390625 C 11.875 -16.390625 12.367188 -16.347656 12.765625 -16.265625 L 12.4375 -12.15625 C 12.082031 -12.25 11.648438 -12.296875 11.140625 -12.296875 C 9.742188 -12.296875 8.648438 -11.9375 7.859375 -11.21875 C 7.078125 -10.5 6.6875 -9.488281 6.6875 -8.1875 L 6.6875 0 L 2.296875 0 L 2.296875 -16.09375 L 5.625 -16.09375 L 6.28125 -13.390625 L 6.5 -13.390625 C 6.988281 -14.296875 7.660156 -15.019531 8.515625 -15.5625 C 9.367188 -16.113281 10.289062 -16.390625 11.28125 -16.390625 Z M 11.28125 -16.390625 "/></g></g></g><g fill="#000000" fill-opacity="1"><g transform="translate(203.896847, 35.283552)"><g><path d="M 7.40625 0.28125 C 5.507812 0.28125 4.019531 -0.453125 2.9375 -1.921875 C 1.863281 -3.390625 1.328125 -5.421875 1.328125 -8.015625 C 1.328125 -10.660156 1.875 -12.71875 2.96875 -14.1875 C 4.070312 -15.65625 5.585938 -16.390625 7.515625 -16.390625 C 9.535156 -16.390625 11.082031 -15.601562 12.15625 -14.03125 L 12.296875 -14.03125 C 12.078125 -15.238281 11.96875 -16.3125 11.96875 -17.25 L 11.96875 -22.40625 L 16.375 -22.40625 L 16.375 0 L 13 0 L 12.15625 -2.09375 L 11.96875 -2.09375 C 10.96875 -0.507812 9.445312 0.28125 7.40625 0.28125 Z M 8.9375 -3.203125 C 10.0625 -3.203125 10.882812 -3.53125 11.40625 -4.1875 C 11.925781 -4.84375 12.210938 -5.953125 12.265625 -7.515625 L 12.265625 -7.984375 C 12.265625 -9.710938 12 -10.953125 11.46875 -11.703125 C 10.9375 -12.453125 10.070312 -12.828125 8.875 -12.828125 C 7.894531 -12.828125 7.128906 -12.410156 6.578125 -11.578125 C 6.035156 -10.753906 5.765625 -9.550781 5.765625 -7.96875 C 5.765625 -6.375 6.039062 -5.179688 6.59375 -4.390625 C 7.144531 -3.597656 7.925781 -3.203125 8.9375 -3.203125 Z M 8.9375 -3.203125 "/></g></g></g><g fill="#000000" fill-opacity="1"><g transform="translate(222.557597, 35.283552)"><g><path d="M 8.96875 -13.28125 C 8.039062 -13.28125 7.3125 -12.984375 6.78125 -12.390625 C 6.25 -11.796875 5.945312 -10.957031 5.875 -9.875 L 12.03125 -9.875 C 12.007812 -10.957031 11.722656 -11.796875 11.171875 -12.390625 C 10.628906 -12.984375 9.894531 -13.28125 8.96875 -13.28125 Z M 9.59375 0.28125 C 7 0.28125 4.972656 -0.429688 3.515625 -1.859375 C 2.054688 -3.285156 1.328125 -5.3125 1.328125 -7.9375 C 1.328125 -10.632812 2 -12.71875 3.34375 -14.1875 C 4.695312 -15.65625 6.5625 -16.390625 8.9375 -16.390625 C 11.21875 -16.390625 12.988281 -15.742188 14.25 -14.453125 C 15.519531 -13.160156 16.15625 -11.367188 16.15625 -9.078125 L 16.15625 -6.953125 L 5.765625 -6.953125 C 5.816406 -5.703125 6.1875 -4.726562 6.875 -4.03125 C 7.570312 -3.332031 8.546875 -2.984375 9.796875 -2.984375 C 10.765625 -2.984375 11.675781 -3.082031 12.53125 -3.28125 C 13.394531 -3.476562 14.300781 -3.800781 15.25 -4.25 L 15.25 -0.84375 C 14.476562 -0.46875 13.65625 -0.1875 12.78125 0 C 11.90625 0.1875 10.84375 0.28125 9.59375 0.28125 Z M 9.59375 0.28125 "/></g></g></g></g></g></g></g></g></mask><clipPath id="764a595b4f"><path d="M 0 0 L 240 0 L 240 60 L 0 60 Z M 0 0 " clip-rule="nonzero"/></clipPath><clipPath id="8a794965fe"><rect x="0" width="240" y="0" height="60"/></clipPath><clipPath id="37ef479443"><rect x="0" width="240" y="0" height="60"/></clipPath><clipPath id="e98fa7b67a"><rect x="0" width="240" y="0" height="60"/></clipPath><clipPath id="51c41de5b9"><path d="M 31.132812 15.25 L 179.632812 15.25 L 179.632812 60 L 31.132812 60 Z M 31.132812 15.25 " clip-rule="nonzero"/></clipPath><clipPath id="f554398328"><path d="M 0.132812 0.25 L 148.632812 0.25 L 148.632812 45 L 0.132812 45 Z M 0.132812 0.25 " clip-rule="nonzero"/></clipPath><clipPath id="a26886a1a3"><path d="M 0.136719 0.25 L 147.878906 0.25 L 147.878906 45 L 0.136719 45 Z M 0.136719 0.25 " clip-rule="nonzero"/></clipPath><linearGradient x1="71.953003" gradientTransform="matrix(0.749058, 0, 0, 0.746662, 20.112007, 20.163157)" y1="-26.667" x2="71.953003" gradientUnits="userSpaceOnUse" y2="33.26382" id="8e41f49121"><stop stop-opacity="1" stop-color="rgb(42.749023%, 45.489502%, 52.549744%)" offset="0"/><stop stop-opacity="1" stop-color="rgb(42.749023%, 45.489502%, 52.549744%)" offset="0.25"/><stop stop-opacity="1" stop-color="rgb(42.749023%, 45.489502%, 52.549744%)" offset="0.375"/><stop stop-opacity="1" stop-color="rgb(42.749023%, 45.489502%, 52.549744%)" offset="0.4375"/><stop stop-opacity="1" stop-color="rgb(42.726135%, 45.465088%, 52.522278%)" offset="0.445313"/><stop stop-opacity="1" stop-color="rgb(42.199707%, 44.917297%, 51.908875%)" offset="0.449219"/><stop stop-opacity="1" stop-color="rgb(41.694641%, 44.392395%, 51.322937%)" offset="0.453125"/><stop stop-opacity="1" stop-color="rgb(41.189575%, 43.865967%, 50.737%)" offset="0.457031"/><stop stop-opacity="1" stop-color="rgb(40.684509%, 43.341064%, 50.151062%)" offset="0.460938"/><stop stop-opacity="1" stop-color="rgb(40.179443%, 42.814636%, 49.563599%)" offset="0.464844"/><stop stop-opacity="1" stop-color="rgb(39.674377%, 42.289734%, 48.977661%)" offset="0.46875"/><stop stop-opacity="1" stop-color="rgb(39.169312%, 41.764832%, 48.390198%)" offset="0.472656"/><stop stop-opacity="1" stop-color="rgb(38.664246%, 41.239929%, 47.80426%)" offset="0.476562"/><stop stop-opacity="1" stop-color="rgb(38.15918%, 40.713501%, 47.216797%)" offset="0.480469"/><stop stop-opacity="1" stop-color="rgb(37.654114%, 40.188599%, 46.630859%)" offset="0.484375"/><stop stop-opacity="1" stop-color="rgb(37.149048%, 39.663696%, 46.043396%)" offset="0.488281"/><stop stop-opacity="1" stop-color="rgb(36.643982%, 39.138794%, 45.457458%)" offset="0.492188"/><stop stop-opacity="1" stop-color="rgb(36.138916%, 38.612366%, 44.871521%)" offset="0.496094"/><stop stop-opacity="1" stop-color="rgb(35.63385%, 38.087463%, 44.285583%)" offset="0.5"/><stop stop-opacity="1" stop-color="rgb(35.128784%, 37.562561%, 43.69812%)" offset="0.503906"/><stop stop-opacity="1" stop-color="rgb(34.623718%, 37.037659%, 43.112183%)" offset="0.507813"/><stop stop-opacity="1" stop-color="rgb(34.118652%, 36.51123%, 42.524719%)" offset="0.511719"/><stop stop-opacity="1" stop-color="rgb(33.613586%, 35.986328%, 41.938782%)" offset="0.515625"/><stop stop-opacity="1" stop-color="rgb(33.108521%, 35.461426%, 41.351318%)" offset="0.519531"/><stop stop-opacity="1" stop-color="rgb(32.603455%, 34.936523%, 40.765381%)" offset="0.523438"/><stop stop-opacity="1" stop-color="rgb(32.098389%, 34.410095%, 40.177917%)" offset="0.527344"/><stop stop-opacity="1" stop-color="rgb(31.593323%, 33.885193%, 39.59198%)" offset="0.53125"/><stop stop-opacity="1" stop-color="rgb(31.088257%, 33.360291%, 39.004517%)" offset="0.535156"/><stop stop-opacity="1" stop-color="rgb(30.583191%, 32.835388%, 38.418579%)" offset="0.539062"/><stop stop-opacity="1" stop-color="rgb(30.078125%, 32.30896%, 37.832642%)" offset="0.542969"/><stop stop-opacity="1" stop-color="rgb(29.573059%, 31.784058%, 37.246704%)" offset="0.546875"/><stop stop-opacity="1" stop-color="rgb(29.067993%, 31.259155%, 36.659241%)" offset="0.550781"/><stop stop-opacity="1" stop-color="rgb(28.562927%, 30.734253%, 36.073303%)" offset="0.554688"/><stop stop-opacity="1" stop-color="rgb(28.057861%, 30.207825%, 35.48584%)" offset="0.558594"/><stop stop-opacity="1" stop-color="rgb(27.554321%, 29.682922%, 34.899902%)" offset="0.5625"/><stop stop-opacity="1" stop-color="rgb(27.049255%, 29.15802%, 34.312439%)" offset="0.566406"/><stop stop-opacity="1" stop-color="rgb(26.544189%, 28.633118%, 33.726501%)" offset="0.570313"/><stop stop-opacity="1" stop-color="rgb(26.039124%, 28.106689%, 33.139038%)" offset="0.574219"/><stop stop-opacity="1" stop-color="rgb(25.534058%, 27.581787%, 32.553101%)" offset="0.578125"/><stop stop-opacity="1" stop-color="rgb(25.028992%, 27.056885%, 31.967163%)" offset="0.582031"/><stop stop-opacity="1" stop-color="rgb(24.523926%, 26.531982%, 31.381226%)" offset="0.585938"/><stop stop-opacity="1" stop-color="rgb(24.01886%, 26.005554%, 30.793762%)" offset="0.589844"/><stop stop-opacity="1" stop-color="rgb(23.513794%, 25.480652%, 30.207825%)" offset="0.59375"/><stop stop-opacity="1" stop-color="rgb(23.008728%, 24.954224%, 29.620361%)" offset="0.597656"/><stop stop-opacity="1" stop-color="rgb(22.503662%, 24.429321%, 29.034424%)" offset="0.601563"/><stop stop-opacity="1" stop-color="rgb(21.998596%, 23.904419%, 28.44696%)" offset="0.605469"/><stop stop-opacity="1" stop-color="rgb(21.49353%, 23.379517%, 27.861023%)" offset="0.609375"/><stop stop-opacity="1" stop-color="rgb(20.988464%, 22.853088%, 27.27356%)" offset="0.613281"/><stop stop-opacity="1" stop-color="rgb(20.483398%, 22.328186%, 26.687622%)" offset="0.617188"/><stop stop-opacity="1" stop-color="rgb(19.978333%, 21.803284%, 26.100159%)" offset="0.621094"/><stop stop-opacity="1" stop-color="rgb(19.473267%, 21.278381%, 25.514221%)" offset="0.625"/><stop stop-opacity="1" stop-color="rgb(18.968201%, 20.751953%, 24.928284%)" offset="0.628906"/><stop stop-opacity="1" stop-color="rgb(18.463135%, 20.227051%, 24.342346%)" offset="0.632813"/><stop stop-opacity="1" stop-color="rgb(17.958069%, 19.702148%, 23.754883%)" offset="0.636719"/><stop stop-opacity="1" stop-color="rgb(17.453003%, 19.177246%, 23.168945%)" offset="0.640625"/><stop stop-opacity="1" stop-color="rgb(16.947937%, 18.650818%, 22.581482%)" offset="0.644531"/><stop stop-opacity="1" stop-color="rgb(16.442871%, 18.125916%, 21.995544%)" offset="0.648438"/><stop stop-opacity="1" stop-color="rgb(15.937805%, 17.601013%, 21.408081%)" offset="0.652344"/><stop stop-opacity="1" stop-color="rgb(15.432739%, 17.076111%, 20.822144%)" offset="0.65625"/><stop stop-opacity="1" stop-color="rgb(14.927673%, 16.549683%, 20.23468%)" offset="0.660156"/><stop stop-opacity="1" stop-color="rgb(14.422607%, 16.02478%, 19.648743%)" offset="0.664063"/><stop stop-opacity="1" stop-color="rgb(13.917542%, 15.499878%, 19.062805%)" offset="0.667969"/><stop stop-opacity="1" stop-color="rgb(13.412476%, 14.974976%, 18.476868%)" offset="0.671875"/><stop stop-opacity="1" stop-color="rgb(12.90741%, 14.448547%, 17.889404%)" offset="0.675781"/><stop stop-opacity="1" stop-color="rgb(12.402344%, 13.923645%, 17.303467%)" offset="0.679688"/><stop stop-opacity="1" stop-color="rgb(11.897278%, 13.398743%, 16.716003%)" offset="0.683594"/><stop stop-opacity="1" stop-color="rgb(11.393738%, 12.87384%, 16.130066%)" offset="0.6875"/><stop stop-opacity="1" stop-color="rgb(10.888672%, 12.347412%, 15.542603%)" offset="0.691406"/><stop stop-opacity="1" stop-color="rgb(10.383606%, 11.82251%, 14.956665%)" offset="0.695313"/><stop stop-opacity="1" stop-color="rgb(9.87854%, 11.297607%, 14.369202%)" offset="0.699219"/><stop stop-opacity="1" stop-color="rgb(9.373474%, 10.772705%, 13.783264%)" offset="0.703125"/><stop stop-opacity="1" stop-color="rgb(8.868408%, 10.246277%, 13.195801%)" offset="0.707031"/><stop stop-opacity="1" stop-color="rgb(8.363342%, 9.721375%, 12.609863%)" offset="0.710938"/><stop stop-opacity="1" stop-color="rgb(7.858276%, 9.196472%, 12.023926%)" offset="0.714844"/><stop stop-opacity="1" stop-color="rgb(7.35321%, 8.67157%, 11.437988%)" offset="0.71875"/><stop stop-opacity="1" stop-color="rgb(6.848145%, 8.145142%, 10.850525%)" offset="0.722656"/><stop stop-opacity="1" stop-color="rgb(6.343079%, 7.620239%, 10.264587%)" offset="0.726562"/><stop stop-opacity="1" stop-color="rgb(5.838013%, 7.093811%, 9.677124%)" offset="0.730469"/><stop stop-opacity="1" stop-color="rgb(5.332947%, 6.568909%, 9.091187%)" offset="0.734375"/><stop stop-opacity="1" stop-color="rgb(4.827881%, 6.044006%, 8.503723%)" offset="0.738281"/><stop stop-opacity="1" stop-color="rgb(4.322815%, 5.519104%, 7.917786%)" offset="0.742188"/><stop stop-opacity="1" stop-color="rgb(4.121399%, 5.308533%, 7.6828%)" offset="0.746094"/><stop stop-opacity="1" stop-color="rgb(3.919983%, 5.099487%, 7.449341%)" offset="0.75"/><stop stop-opacity="1" stop-color="rgb(3.919983%, 5.099487%, 7.449341%)" offset="1"/></linearGradient><clipPath id="1140c7b38a"><rect x="0" width="149" y="0" height="45"/></clipPath><clipPath id="ce6ae32017"><path d="M 0.132812 0.25 L 148.632812 0.25 L 148.632812 45 L 0.132812 45 Z M 0.132812 0.25 " clip-rule="nonzero"/></clipPath><clipPath id="c2ff4fa5f1"><rect x="0" width="149" y="0" height="45"/></clipPath><clipPath id="9276ddd0f8"><rect x="0" width="149" y="0" height="45"/></clipPath><mask id="80817b874d"><g filter="url(#4ddf46d901)"><g transform="matrix(1, 0, 0, 1, 0, -0.000000000000001776)"><g clip-path="url(#9276ddd0f8)"><g clip-path="url(#ce6ae32017)"><g transform="matrix(1, 0, 0, 1, 0, -0.000000000000001776)"><g clip-path="url(#c2ff4fa5f1)"><g fill="#000000" fill-opacity="1"><g transform="translate(20.383571, 31.001909)"><g><path d="M 3.609375 -4.015625 L 6.4375 -4.015625 L 6.4375 -0.3125 C 5.976562 -0.15625 5.546875 -0.0507812 5.140625 0 C 4.734375 0.0625 4.320312 0.09375 3.90625 0.09375 C 2.820312 0.09375 1.992188 -0.21875 1.421875 -0.84375 C 0.859375 -1.476562 0.578125 -2.390625 0.578125 -3.578125 C 0.578125 -4.734375 0.90625 -5.628906 1.5625 -6.265625 C 2.226562 -6.910156 3.144531 -7.234375 4.3125 -7.234375 C 5.039062 -7.234375 5.75 -7.085938 6.4375 -6.796875 L 5.921875 -5.59375 C 5.398438 -5.851562 4.859375 -5.984375 4.296875 -5.984375 C 3.648438 -5.984375 3.128906 -5.757812 2.734375 -5.3125 C 2.335938 -4.875 2.140625 -4.285156 2.140625 -3.546875 C 2.140625 -2.773438 2.296875 -2.179688 2.609375 -1.765625 C 2.929688 -1.359375 3.394531 -1.15625 4 -1.15625 C 4.3125 -1.15625 4.632812 -1.191406 4.96875 -1.265625 L 4.96875 -2.75 L 3.609375 -2.75 Z M 3.609375 -4.015625 "/></g></g></g><g fill="#000000" fill-opacity="1"><g transform="translate(27.621959, 31.001909)"><g><path d="M 3.046875 -4.5 C 2.722656 -4.5 2.472656 -4.398438 2.296875 -4.203125 C 2.117188 -4.003906 2.019531 -3.71875 2 -3.34375 L 4.078125 -3.34375 C 4.078125 -3.71875 3.984375 -4.003906 3.796875 -4.203125 C 3.609375 -4.398438 3.359375 -4.5 3.046875 -4.5 Z M 3.25 0.09375 C 2.375 0.09375 1.6875 -0.144531 1.1875 -0.625 C 0.695312 -1.113281 0.453125 -1.800781 0.453125 -2.6875 C 0.453125 -3.601562 0.679688 -4.3125 1.140625 -4.8125 C 1.597656 -5.3125 2.226562 -5.5625 3.03125 -5.5625 C 3.800781 -5.5625 4.398438 -5.34375 4.828125 -4.90625 C 5.265625 -4.46875 5.484375 -3.859375 5.484375 -3.078125 L 5.484375 -2.359375 L 1.953125 -2.359375 C 1.972656 -1.929688 2.097656 -1.597656 2.328125 -1.359375 C 2.566406 -1.128906 2.898438 -1.015625 3.328125 -1.015625 C 3.648438 -1.015625 3.957031 -1.046875 4.25 -1.109375 C 4.539062 -1.179688 4.847656 -1.289062 5.171875 -1.4375 L 5.171875 -0.28125 C 4.910156 -0.15625 4.628906 -0.0625 4.328125 0 C 4.035156 0.0625 3.675781 0.09375 3.25 0.09375 Z M 3.25 0.09375 "/></g></g></g><g fill="#000000" fill-opacity="1"><g transform="translate(33.527854, 31.001909)"><g><path d="M 4.59375 -1.625 C 4.59375 -1.0625 4.394531 -0.632812 4 -0.34375 C 3.613281 -0.0507812 3.035156 0.09375 2.265625 0.09375 C 1.867188 0.09375 1.53125 0.0664062 1.25 0.015625 C 0.96875 -0.0351562 0.703125 -0.113281 0.453125 -0.21875 L 0.453125 -1.453125 C 0.734375 -1.316406 1.046875 -1.203125 1.390625 -1.109375 C 1.742188 -1.023438 2.050781 -0.984375 2.3125 -0.984375 C 2.851562 -0.984375 3.125 -1.140625 3.125 -1.453125 C 3.125 -1.578125 3.085938 -1.675781 3.015625 -1.75 C 2.941406 -1.820312 2.816406 -1.90625 2.640625 -2 C 2.460938 -2.09375 2.226562 -2.195312 1.9375 -2.3125 C 1.519531 -2.488281 1.210938 -2.648438 1.015625 -2.796875 C 0.816406 -2.953125 0.671875 -3.125 0.578125 -3.3125 C 0.492188 -3.507812 0.453125 -3.75 0.453125 -4.03125 C 0.453125 -4.519531 0.640625 -4.894531 1.015625 -5.15625 C 1.390625 -5.425781 1.921875 -5.5625 2.609375 -5.5625 C 3.265625 -5.5625 3.90625 -5.414062 4.53125 -5.125 L 4.078125 -4.0625 C 3.804688 -4.175781 3.550781 -4.269531 3.3125 -4.34375 C 3.070312 -4.414062 2.832031 -4.453125 2.59375 -4.453125 C 2.144531 -4.453125 1.921875 -4.335938 1.921875 -4.109375 C 1.921875 -3.972656 1.992188 -3.851562 2.140625 -3.75 C 2.285156 -3.65625 2.597656 -3.515625 3.078125 -3.328125 C 3.503906 -3.148438 3.816406 -2.984375 4.015625 -2.828125 C 4.210938 -2.679688 4.359375 -2.507812 4.453125 -2.3125 C 4.546875 -2.125 4.59375 -1.894531 4.59375 -1.625 Z M 4.59375 -1.625 "/></g></g></g><g fill="#000000" fill-opacity="1"><g transform="translate(38.496615, 31.001909)"><g><path d="M 3.078125 -1.09375 C 3.335938 -1.09375 3.648438 -1.148438 4.015625 -1.265625 L 4.015625 -0.15625 C 3.648438 0.0078125 3.195312 0.09375 2.65625 0.09375 C 2.0625 0.09375 1.625 -0.0546875 1.34375 -0.359375 C 1.070312 -0.660156 0.9375 -1.109375 0.9375 -1.703125 L 0.9375 -4.34375 L 0.234375 -4.34375 L 0.234375 -4.96875 L 1.046875 -5.46875 L 1.484375 -6.625 L 2.4375 -6.625 L 2.4375 -5.453125 L 3.953125 -5.453125 L 3.953125 -4.34375 L 2.4375 -4.34375 L 2.4375 -1.703125 C 2.4375 -1.492188 2.492188 -1.335938 2.609375 -1.234375 C 2.722656 -1.140625 2.878906 -1.09375 3.078125 -1.09375 Z M 3.078125 -1.09375 "/></g></g></g><g fill="#000000" fill-opacity="1"><g transform="translate(42.835745, 31.001909)"><g><path d="M 0.71875 -6.875 C 0.71875 -7.351562 0.988281 -7.59375 1.53125 -7.59375 C 2.070312 -7.59375 2.34375 -7.351562 2.34375 -6.875 C 2.34375 -6.644531 2.273438 -6.460938 2.140625 -6.328125 C 2.003906 -6.203125 1.800781 -6.140625 1.53125 -6.140625 C 0.988281 -6.140625 0.71875 -6.382812 0.71875 -6.875 Z M 2.265625 0 L 0.78125 0 L 0.78125 -5.453125 L 2.265625 -5.453125 Z M 2.265625 0 "/></g></g></g><g fill="#000000" fill-opacity="1"><g transform="translate(45.886316, 31.001909)"><g><path d="M 1.96875 -2.734375 C 1.96875 -2.191406 2.054688 -1.78125 2.234375 -1.5 C 2.410156 -1.226562 2.695312 -1.09375 3.09375 -1.09375 C 3.5 -1.09375 3.785156 -1.226562 3.953125 -1.5 C 4.128906 -1.78125 4.21875 -2.191406 4.21875 -2.734375 C 4.21875 -3.273438 4.128906 -3.679688 3.953125 -3.953125 C 3.773438 -4.222656 3.488281 -4.359375 3.09375 -4.359375 C 2.695312 -4.359375 2.410156 -4.222656 2.234375 -3.953125 C 2.054688 -3.691406 1.96875 -3.285156 1.96875 -2.734375 Z M 5.75 -2.734375 C 5.75 -1.847656 5.515625 -1.15625 5.046875 -0.65625 C 4.578125 -0.15625 3.921875 0.09375 3.078125 0.09375 C 2.554688 0.09375 2.09375 -0.0195312 1.6875 -0.25 C 1.289062 -0.476562 0.984375 -0.804688 0.765625 -1.234375 C 0.554688 -1.660156 0.453125 -2.160156 0.453125 -2.734375 C 0.453125 -3.628906 0.679688 -4.320312 1.140625 -4.8125 C 1.609375 -5.3125 2.265625 -5.5625 3.109375 -5.5625 C 3.628906 -5.5625 4.085938 -5.445312 4.484375 -5.21875 C 4.890625 -4.988281 5.203125 -4.660156 5.421875 -4.234375 C 5.640625 -3.804688 5.75 -3.304688 5.75 -2.734375 Z M 5.75 -2.734375 "/></g></g></g><g fill="#000000" fill-opacity="1"><g transform="translate(52.075304, 31.001909)"><g><path d="M 5.828125 0 L 4.328125 0 L 4.328125 -3.1875 C 4.328125 -3.582031 4.253906 -3.878906 4.109375 -4.078125 C 3.972656 -4.273438 3.753906 -4.375 3.453125 -4.375 C 3.035156 -4.375 2.734375 -4.234375 2.546875 -3.953125 C 2.359375 -3.671875 2.265625 -3.207031 2.265625 -2.5625 L 2.265625 0 L 0.78125 0 L 0.78125 -5.453125 L 1.921875 -5.453125 L 2.125 -4.765625 L 2.203125 -4.765625 C 2.367188 -5.023438 2.597656 -5.222656 2.890625 -5.359375 C 3.179688 -5.492188 3.507812 -5.5625 3.875 -5.5625 C 4.507812 -5.5625 4.992188 -5.390625 5.328125 -5.046875 C 5.660156 -4.703125 5.828125 -4.207031 5.828125 -3.5625 Z M 5.828125 0 "/></g></g></g><g fill="#000000" fill-opacity="1"><g transform="translate(58.645002, 31.001909)"><g><path d="M 4.25 0 L 3.953125 -0.75 L 3.921875 -0.75 C 3.671875 -0.425781 3.410156 -0.203125 3.140625 -0.078125 C 2.878906 0.0351562 2.535156 0.09375 2.109375 0.09375 C 1.585938 0.09375 1.175781 -0.0507812 0.875 -0.34375 C 0.570312 -0.644531 0.421875 -1.070312 0.421875 -1.625 C 0.421875 -2.207031 0.625 -2.632812 1.03125 -2.90625 C 1.4375 -3.1875 2.046875 -3.34375 2.859375 -3.375 L 3.8125 -3.40625 L 3.8125 -3.640625 C 3.8125 -4.191406 3.523438 -4.46875 2.953125 -4.46875 C 2.523438 -4.46875 2.015625 -4.335938 1.421875 -4.078125 L 0.921875 -5.078125 C 1.554688 -5.410156 2.253906 -5.578125 3.015625 -5.578125 C 3.742188 -5.578125 4.300781 -5.414062 4.6875 -5.09375 C 5.082031 -4.769531 5.28125 -4.285156 5.28125 -3.640625 L 5.28125 0 Z M 3.8125 -2.53125 L 3.234375 -2.515625 C 2.796875 -2.492188 2.472656 -2.410156 2.265625 -2.265625 C 2.054688 -2.128906 1.953125 -1.914062 1.953125 -1.625 C 1.953125 -1.195312 2.191406 -0.984375 2.671875 -0.984375 C 3.015625 -0.984375 3.289062 -1.082031 3.5 -1.28125 C 3.707031 -1.488281 3.8125 -1.753906 3.8125 -2.078125 Z M 3.8125 -2.53125 "/></g></g></g><g fill="#000000" fill-opacity="1"><g transform="translate(67.279329, 31.001909)"><g><path d="M 3.078125 -1.09375 C 3.335938 -1.09375 3.648438 -1.148438 4.015625 -1.265625 L 4.015625 -0.15625 C 3.648438 0.0078125 3.195312 0.09375 2.65625 0.09375 C 2.0625 0.09375 1.625 -0.0546875 1.34375 -0.359375 C 1.070312 -0.660156 0.9375 -1.109375 0.9375 -1.703125 L 0.9375 -4.34375 L 0.234375 -4.34375 L 0.234375 -4.96875 L 1.046875 -5.46875 L 1.484375 -6.625 L 2.4375 -6.625 L 2.4375 -5.453125 L 3.953125 -5.453125 L 3.953125 -4.34375 L 2.4375 -4.34375 L 2.4375 -1.703125 C 2.4375 -1.492188 2.492188 -1.335938 2.609375 -1.234375 C 2.722656 -1.140625 2.878906 -1.09375 3.078125 -1.09375 Z M 3.078125 -1.09375 "/></g></g></g><g fill="#000000" fill-opacity="1"><g transform="translate(71.618459, 31.001909)"><g><path d="M 4.65625 0 L 4.453125 -0.703125 L 4.375 -0.703125 C 4.207031 -0.441406 3.976562 -0.242188 3.6875 -0.109375 C 3.394531 0.0234375 3.0625 0.09375 2.6875 0.09375 C 2.050781 0.09375 1.566406 -0.078125 1.234375 -0.421875 C 0.910156 -0.765625 0.75 -1.257812 0.75 -1.90625 L 0.75 -5.453125 L 2.234375 -5.453125 L 2.234375 -2.265625 C 2.234375 -1.878906 2.300781 -1.585938 2.4375 -1.390625 C 2.582031 -1.191406 2.8125 -1.09375 3.125 -1.09375 C 3.539062 -1.09375 3.835938 -1.226562 4.015625 -1.5 C 4.203125 -1.78125 4.296875 -2.242188 4.296875 -2.890625 L 4.296875 -5.453125 L 5.796875 -5.453125 L 5.796875 0 Z M 4.65625 0 "/></g></g></g><g fill="#000000" fill-opacity="1"><g transform="translate(78.188157, 31.001909)"><g><path d="M 4.59375 -1.625 C 4.59375 -1.0625 4.394531 -0.632812 4 -0.34375 C 3.613281 -0.0507812 3.035156 0.09375 2.265625 0.09375 C 1.867188 0.09375 1.53125 0.0664062 1.25 0.015625 C 0.96875 -0.0351562 0.703125 -0.113281 0.453125 -0.21875 L 0.453125 -1.453125 C 0.734375 -1.316406 1.046875 -1.203125 1.390625 -1.109375 C 1.742188 -1.023438 2.050781 -0.984375 2.3125 -0.984375 C 2.851562 -0.984375 3.125 -1.140625 3.125 -1.453125 C 3.125 -1.578125 3.085938 -1.675781 3.015625 -1.75 C 2.941406 -1.820312 2.816406 -1.90625 2.640625 -2 C 2.460938 -2.09375 2.226562 -2.195312 1.9375 -2.3125 C 1.519531 -2.488281 1.210938 -2.648438 1.015625 -2.796875 C 0.816406 -2.953125 0.671875 -3.125 0.578125 -3.3125 C 0.492188 -3.507812 0.453125 -3.75 0.453125 -4.03125 C 0.453125 -4.519531 0.640625 -4.894531 1.015625 -5.15625 C 1.390625 -5.425781 1.921875 -5.5625 2.609375 -5.5625 C 3.265625 -5.5625 3.90625 -5.414062 4.53125 -5.125 L 4.078125 -4.0625 C 3.804688 -4.175781 3.550781 -4.269531 3.3125 -4.34375 C 3.070312 -4.414062 2.832031 -4.453125 2.59375 -4.453125 C 2.144531 -4.453125 1.921875 -4.335938 1.921875 -4.109375 C 1.921875 -3.972656 1.992188 -3.851562 2.140625 -3.75 C 2.285156 -3.65625 2.597656 -3.515625 3.078125 -3.328125 C 3.503906 -3.148438 3.816406 -2.984375 4.015625 -2.828125 C 4.210938 -2.679688 4.359375 -2.507812 4.453125 -2.3125 C 4.546875 -2.125 4.59375 -1.894531 4.59375 -1.625 Z M 4.59375 -1.625 "/></g></g></g><g fill="#000000" fill-opacity="1"><g transform="translate(85.75356, 31.001909)"><g><path d="M 3.828125 -5.5625 C 4.023438 -5.5625 4.191406 -5.546875 4.328125 -5.515625 L 4.21875 -4.125 C 4.09375 -4.15625 3.945312 -4.171875 3.78125 -4.171875 C 3.300781 -4.171875 2.925781 -4.046875 2.65625 -3.796875 C 2.394531 -3.554688 2.265625 -3.21875 2.265625 -2.78125 L 2.265625 0 L 0.78125 0 L 0.78125 -5.453125 L 1.90625 -5.453125 L 2.125 -4.546875 L 2.203125 -4.546875 C 2.367188 -4.847656 2.597656 -5.09375 2.890625 -5.28125 C 3.179688 -5.46875 3.492188 -5.5625 3.828125 -5.5625 Z M 3.828125 -5.5625 "/></g></g></g><g fill="#000000" fill-opacity="1"><g transform="translate(90.292801, 31.001909)"><g><path d="M 3.046875 -4.5 C 2.722656 -4.5 2.472656 -4.398438 2.296875 -4.203125 C 2.117188 -4.003906 2.019531 -3.71875 2 -3.34375 L 4.078125 -3.34375 C 4.078125 -3.71875 3.984375 -4.003906 3.796875 -4.203125 C 3.609375 -4.398438 3.359375 -4.5 3.046875 -4.5 Z M 3.25 0.09375 C 2.375 0.09375 1.6875 -0.144531 1.1875 -0.625 C 0.695312 -1.113281 0.453125 -1.800781 0.453125 -2.6875 C 0.453125 -3.601562 0.679688 -4.3125 1.140625 -4.8125 C 1.597656 -5.3125 2.226562 -5.5625 3.03125 -5.5625 C 3.800781 -5.5625 4.398438 -5.34375 4.828125 -4.90625 C 5.265625 -4.46875 5.484375 -3.859375 5.484375 -3.078125 L 5.484375 -2.359375 L 1.953125 -2.359375 C 1.972656 -1.929688 2.097656 -1.597656 2.328125 -1.359375 C 2.566406 -1.128906 2.898438 -1.015625 3.328125 -1.015625 C 3.648438 -1.015625 3.957031 -1.046875 4.25 -1.109375 C 4.539062 -1.179688 4.847656 -1.289062 5.171875 -1.4375 L 5.171875 -0.28125 C 4.910156 -0.15625 4.628906 -0.0625 4.328125 0 C 4.035156 0.0625 3.675781 0.09375 3.25 0.09375 Z M 3.25 0.09375 "/></g></g></g><g fill="#000000" fill-opacity="1"><g transform="translate(96.198696, 31.001909)"><g><path d="M 4.59375 -1.625 C 4.59375 -1.0625 4.394531 -0.632812 4 -0.34375 C 3.613281 -0.0507812 3.035156 0.09375 2.265625 0.09375 C 1.867188 0.09375 1.53125 0.0664062 1.25 0.015625 C 0.96875 -0.0351562 0.703125 -0.113281 0.453125 -0.21875 L 0.453125 -1.453125 C 0.734375 -1.316406 1.046875 -1.203125 1.390625 -1.109375 C 1.742188 -1.023438 2.050781 -0.984375 2.3125 -0.984375 C 2.851562 -0.984375 3.125 -1.140625 3.125 -1.453125 C 3.125 -1.578125 3.085938 -1.675781 3.015625 -1.75 C 2.941406 -1.820312 2.816406 -1.90625 2.640625 -2 C 2.460938 -2.09375 2.226562 -2.195312 1.9375 -2.3125 C 1.519531 -2.488281 1.210938 -2.648438 1.015625 -2.796875 C 0.816406 -2.953125 0.671875 -3.125 0.578125 -3.3125 C 0.492188 -3.507812 0.453125 -3.75 0.453125 -4.03125 C 0.453125 -4.519531 0.640625 -4.894531 1.015625 -5.15625 C 1.390625 -5.425781 1.921875 -5.5625 2.609375 -5.5625 C 3.265625 -5.5625 3.90625 -5.414062 4.53125 -5.125 L 4.078125 -4.0625 C 3.804688 -4.175781 3.550781 -4.269531 3.3125 -4.34375 C 3.070312 -4.414062 2.832031 -4.453125 2.59375 -4.453125 C 2.144531 -4.453125 1.921875 -4.335938 1.921875 -4.109375 C 1.921875 -3.972656 1.992188 -3.851562 2.140625 -3.75 C 2.285156 -3.65625 2.597656 -3.515625 3.078125 -3.328125 C 3.503906 -3.148438 3.816406 -2.984375 4.015625 -2.828125 C 4.210938 -2.679688 4.359375 -2.507812 4.453125 -2.3125 C 4.546875 -2.125 4.59375 -1.894531 4.59375 -1.625 Z M 4.59375 -1.625 "/></g></g></g><g fill="#000000" fill-opacity="1"><g transform="translate(101.167457, 31.001909)"><g><path d="M 3.046875 -4.5 C 2.722656 -4.5 2.472656 -4.398438 2.296875 -4.203125 C 2.117188 -4.003906 2.019531 -3.71875 2 -3.34375 L 4.078125 -3.34375 C 4.078125 -3.71875 3.984375 -4.003906 3.796875 -4.203125 C 3.609375 -4.398438 3.359375 -4.5 3.046875 -4.5 Z M 3.25 0.09375 C 2.375 0.09375 1.6875 -0.144531 1.1875 -0.625 C 0.695312 -1.113281 0.453125 -1.800781 0.453125 -2.6875 C 0.453125 -3.601562 0.679688 -4.3125 1.140625 -4.8125 C 1.597656 -5.3125 2.226562 -5.5625 3.03125 -5.5625 C 3.800781 -5.5625 4.398438 -5.34375 4.828125 -4.90625 C 5.265625 -4.46875 5.484375 -3.859375 5.484375 -3.078125 L 5.484375 -2.359375 L 1.953125 -2.359375 C 1.972656 -1.929688 2.097656 -1.597656 2.328125 -1.359375 C 2.566406 -1.128906 2.898438 -1.015625 3.328125 -1.015625 C 3.648438 -1.015625 3.957031 -1.046875 4.25 -1.109375 C 4.539062 -1.179688 4.847656 -1.289062 5.171875 -1.4375 L 5.171875 -0.28125 C 4.910156 -0.15625 4.628906 -0.0625 4.328125 0 C 4.035156 0.0625 3.675781 0.09375 3.25 0.09375 Z M 3.25 0.09375 "/></g></g></g><g fill="#000000" fill-opacity="1"><g transform="translate(107.073352, 31.001909)"><g><path d="M 3.828125 -5.5625 C 4.023438 -5.5625 4.191406 -5.546875 4.328125 -5.515625 L 4.21875 -4.125 C 4.09375 -4.15625 3.945312 -4.171875 3.78125 -4.171875 C 3.300781 -4.171875 2.925781 -4.046875 2.65625 -3.796875 C 2.394531 -3.554688 2.265625 -3.21875 2.265625 -2.78125 L 2.265625 0 L 0.78125 0 L 0.78125 -5.453125 L 1.90625 -5.453125 L 2.125 -4.546875 L 2.203125 -4.546875 C 2.367188 -4.847656 2.597656 -5.09375 2.890625 -5.28125 C 3.179688 -5.46875 3.492188 -5.5625 3.828125 -5.5625 Z M 3.828125 -5.5625 "/></g></g></g><g fill="#000000" fill-opacity="1"><g transform="translate(111.612594, 31.001909)"><g><path d="M 2.078125 0 L 0 -5.453125 L 1.5625 -5.453125 L 2.609375 -2.34375 C 2.722656 -1.957031 2.796875 -1.585938 2.828125 -1.234375 L 2.859375 -1.234375 C 2.878906 -1.546875 2.953125 -1.914062 3.078125 -2.34375 L 4.125 -5.453125 L 5.6875 -5.453125 L 3.609375 0 Z M 2.078125 0 "/></g></g></g><g fill="#000000" fill-opacity="1"><g transform="translate(117.298854, 31.001909)"><g><path d="M 4.25 0 L 3.953125 -0.75 L 3.921875 -0.75 C 3.671875 -0.425781 3.410156 -0.203125 3.140625 -0.078125 C 2.878906 0.0351562 2.535156 0.09375 2.109375 0.09375 C 1.585938 0.09375 1.175781 -0.0507812 0.875 -0.34375 C 0.570312 -0.644531 0.421875 -1.070312 0.421875 -1.625 C 0.421875 -2.207031 0.625 -2.632812 1.03125 -2.90625 C 1.4375 -3.1875 2.046875 -3.34375 2.859375 -3.375 L 3.8125 -3.40625 L 3.8125 -3.640625 C 3.8125 -4.191406 3.523438 -4.46875 2.953125 -4.46875 C 2.523438 -4.46875 2.015625 -4.335938 1.421875 -4.078125 L 0.921875 -5.078125 C 1.554688 -5.410156 2.253906 -5.578125 3.015625 -5.578125 C 3.742188 -5.578125 4.300781 -5.414062 4.6875 -5.09375 C 5.082031 -4.769531 5.28125 -4.285156 5.28125 -3.640625 L 5.28125 0 Z M 3.8125 -2.53125 L 3.234375 -2.515625 C 2.796875 -2.492188 2.472656 -2.410156 2.265625 -2.265625 C 2.054688 -2.128906 1.953125 -1.914062 1.953125 -1.625 C 1.953125 -1.195312 2.191406 -0.984375 2.671875 -0.984375 C 3.015625 -0.984375 3.289062 -1.082031 3.5 -1.28125 C 3.707031 -1.488281 3.8125 -1.753906 3.8125 -2.078125 Z M 3.8125 -2.53125 "/></g></g></g><g fill="#000000" fill-opacity="1"><g transform="translate(123.336539, 31.001909)"><g><path d="M 4.59375 -1.625 C 4.59375 -1.0625 4.394531 -0.632812 4 -0.34375 C 3.613281 -0.0507812 3.035156 0.09375 2.265625 0.09375 C 1.867188 0.09375 1.53125 0.0664062 1.25 0.015625 C 0.96875 -0.0351562 0.703125 -0.113281 0.453125 -0.21875 L 0.453125 -1.453125 C 0.734375 -1.316406 1.046875 -1.203125 1.390625 -1.109375 C 1.742188 -1.023438 2.050781 -0.984375 2.3125 -0.984375 C 2.851562 -0.984375 3.125 -1.140625 3.125 -1.453125 C 3.125 -1.578125 3.085938 -1.675781 3.015625 -1.75 C 2.941406 -1.820312 2.816406 -1.90625 2.640625 -2 C 2.460938 -2.09375 2.226562 -2.195312 1.9375 -2.3125 C 1.519531 -2.488281 1.210938 -2.648438 1.015625 -2.796875 C 0.816406 -2.953125 0.671875 -3.125 0.578125 -3.3125 C 0.492188 -3.507812 0.453125 -3.75 0.453125 -4.03125 C 0.453125 -4.519531 0.640625 -4.894531 1.015625 -5.15625 C 1.390625 -5.425781 1.921875 -5.5625 2.609375 -5.5625 C 3.265625 -5.5625 3.90625 -5.414062 4.53125 -5.125 L 4.078125 -4.0625 C 3.804688 -4.175781 3.550781 -4.269531 3.3125 -4.34375 C 3.070312 -4.414062 2.832031 -4.453125 2.59375 -4.453125 C 2.144531 -4.453125 1.921875 -4.335938 1.921875 -4.109375 C 1.921875 -3.972656 1.992188 -3.851562 2.140625 -3.75 C 2.285156 -3.65625 2.597656 -3.515625 3.078125 -3.328125 C 3.503906 -3.148438 3.816406 -2.984375 4.015625 -2.828125 C 4.210938 -2.679688 4.359375 -2.507812 4.453125 -2.3125 C 4.546875 -2.125 4.59375 -1.894531 4.59375 -1.625 Z M 4.59375 -1.625 "/></g></g></g></g></g></g></g></g></g></mask><clipPath id="632dce5c63"><path d="M 0.136719 0.25 L 147.878906 0.25 L 147.878906 45 L 0.136719 45 Z M 0.136719 0.25 " clip-rule="nonzero"/></clipPath><clipPath id="b4fe99db62"><rect x="0" width="149" y="0" height="45"/></clipPath><clipPath id="8d51af90da"><rect x="0" width="149" y="0" height="45"/></clipPath></defs><g clip-path="url(#9adcb9e66a)"><g clip-path="url(#8ad597ac6b)"><g clip-path="url(#1e784c23ad)"><path fill="#03320c" d="M 13.742188 49.867188 L 16.570312 47.300781 C 16.730469 47.160156 16.742188 46.917969 16.597656 46.761719 L 8.824219 38.1875 C 8.683594 38.027344 8.441406 38.015625 8.28125 38.160156 L 5.453125 40.726562 L 1.042969 35.867188 L 12.597656 25.390625 L 17.589844 30.894531 C 15.683594 32.890625 15.613281 36.058594 17.496094 38.132812 C 19.378906 40.210938 22.539062 40.453125 24.710938 38.75 L 29.703125 44.253906 L 18.148438 54.730469 Z M 13.226562 49.300781 L 5.964844 41.292969 L 8.511719 38.984375 L 15.773438 46.992188 Z M 24.195312 38.179688 C 22.335938 39.597656 19.664062 39.382812 18.0625 37.621094 C 16.464844 35.855469 16.511719 33.171875 18.105469 31.464844 Z M 18.675781 30.949219 C 20.53125 29.527344 23.207031 29.746094 24.804688 31.507812 C 26.402344 33.269531 26.355469 35.953125 24.761719 37.664062 Z M 29.128906 19.257812 L 26.296875 21.824219 C 26.140625 21.96875 26.128906 22.210938 26.269531 22.367188 L 34.042969 30.941406 C 34.1875 31.097656 34.429688 31.109375 34.585938 30.96875 L 37.417969 28.398438 L 41.824219 33.261719 L 30.269531 43.738281 L 25.277344 38.234375 C 27.1875 36.238281 27.253906 33.070312 25.371094 30.992188 C 23.492188 28.917969 20.328125 28.675781 18.15625 30.378906 L 13.167969 24.875 L 24.722656 14.398438 Z M 29.644531 19.828125 L 36.902344 27.832031 L 34.355469 30.140625 L 27.097656 22.136719 Z M 42.652344 33.03125 L 25.03125 13.597656 C 24.890625 13.441406 24.648438 13.429688 24.492188 13.570312 L 0.246094 35.554688 C 0.0898438 35.699219 0.0742188 35.941406 0.21875 36.097656 L 17.835938 55.527344 C 17.980469 55.683594 18.222656 55.699219 18.378906 55.554688 L 42.625 33.570312 C 42.78125 33.429688 42.792969 33.1875 42.652344 33.03125 " fill-opacity="1" fill-rule="nonzero"/></g></g></g><g clip-path="url(#57950d7288)"><g clip-path="url(#42c0de6dcb)"><g clip-path="url(#c641c6963d)"><path stroke-linecap="butt" transform="matrix(0.50378, 0.555612, -0.555613, 0.50378, 12.737118, 24.307701)" fill="none" stroke-linejoin="miter" d="M 0.00192401 -0.000349203 L -0.00111152 22.923452 L 35.953284 22.923158 L 35.952821 0.00321597 L 0.00192401 -0.000349203 " stroke="#000000" stroke-width="2" stroke-opacity="1" stroke-miterlimit="4"/></g></g></g><g clip-path="url(#b4663d4e41)"><g clip-path="url(#9bee6d5308)"><g clip-path="url(#29e0d1eb54)"><g clip-path="url(#a2cde488eb)"><path fill="#000000" d="M 25 26.609375 L 23.75 27.730469 C 23.214844 28.210938 23.175781 29.039062 23.65625 29.574219 L 24.691406 30.722656 C 25.171875 31.261719 26 31.304688 26.53125 30.824219 L 27.78125 29.699219 C 28.316406 29.21875 28.359375 28.394531 27.875 27.859375 L 26.839844 26.707031 C 26.359375 26.171875 25.53125 26.128906 25 26.609375 Z M 27.238281 28.433594 C 27.402344 28.617188 27.386719 28.898438 27.207031 29.0625 L 25.957031 30.183594 C 25.773438 30.347656 25.492188 30.332031 25.328125 30.148438 L 24.292969 29 C 24.128906 28.816406 24.144531 28.535156 24.328125 28.371094 L 25.574219 27.25 C 25.757812 27.085938 26.039062 27.101562 26.203125 27.28125 Z M 30.789062 21.398438 L 29.539062 22.523438 C 29.003906 23.003906 28.964844 23.828125 29.445312 24.363281 L 30.480469 25.515625 C 30.960938 26.050781 31.789062 26.097656 32.320312 25.617188 L 33.570312 24.492188 C 34.105469 24.011719 34.148438 23.1875 33.664062 22.652344 L 32.628906 21.5 C 32.148438 20.964844 31.320312 20.917969 30.789062 21.398438 Z M 33.027344 23.226562 C 33.191406 23.40625 33.175781 23.6875 32.996094 23.851562 L 31.746094 24.976562 C 31.5625 25.140625 31.28125 25.125 31.117188 24.941406 L 30.082031 23.789062 C 29.917969 23.609375 29.933594 23.328125 30.117188 23.164062 L 31.363281 22.039062 C 31.546875 21.875 31.828125 21.890625 31.992188 22.074219 Z M 28.617188 30.632812 L 27.371094 31.753906 C 26.835938 32.234375 26.792969 33.0625 27.277344 33.597656 L 28.3125 34.746094 C 28.792969 35.285156 29.617188 35.328125 30.152344 34.847656 L 31.402344 33.722656 C 31.9375 33.242188 31.976562 32.417969 31.496094 31.882812 L 30.460938 30.730469 C 29.980469 30.195312 29.152344 30.152344 28.617188 30.632812 Z M 30.859375 32.457031 C 31.023438 32.640625 31.007812 32.921875 30.824219 33.085938 L 29.578125 34.207031 C 29.394531 34.371094 29.113281 34.355469 28.949219 34.171875 L 27.914062 33.023438 C 27.75 32.839844 27.765625 32.558594 27.945312 32.394531 L 29.195312 31.273438 C 29.375 31.109375 29.65625 31.125 29.820312 31.304688 Z M 34.40625 25.421875 L 33.160156 26.546875 C 32.625 27.027344 32.582031 27.851562 33.066406 28.386719 L 34.101562 29.539062 C 34.582031 30.074219 35.40625 30.121094 35.941406 29.640625 L 37.191406 28.515625 C 37.722656 28.035156 37.765625 27.210938 37.285156 26.675781 L 36.25 25.523438 C 35.765625 24.988281 34.941406 24.941406 34.40625 25.421875 Z M 36.648438 27.25 C 36.8125 27.429688 36.796875 27.710938 36.613281 27.875 L 35.367188 29 C 35.183594 29.164062 34.902344 29.148438 34.738281 28.964844 L 33.703125 27.8125 C 33.539062 27.632812 33.554688 27.351562 33.734375 27.1875 L 34.984375 26.0625 C 35.164062 25.898438 35.445312 25.914062 35.609375 26.097656 Z M 40.195312 20.214844 L 38.949219 21.339844 C 38.414062 21.820312 38.371094 22.644531 38.851562 23.179688 L 39.890625 24.332031 C 40.371094 24.867188 41.195312 24.910156 41.730469 24.429688 L 42.980469 23.308594 C 43.511719 22.828125 43.554688 22 43.074219 21.464844 L 42.039062 20.316406 C 41.554688 19.78125 40.730469 19.734375 40.195312 20.214844 Z M 42.433594 22.039062 C 42.597656 22.222656 42.585938 22.503906 42.402344 22.667969 L 41.15625 23.789062 C 40.972656 23.953125 40.691406 23.9375 40.527344 23.757812 L 39.492188 22.605469 C 39.328125 22.421875 39.34375 22.140625 39.523438 21.980469 L 40.773438 20.855469 C 40.953125 20.691406 41.234375 20.707031 41.398438 20.890625 Z M 32.238281 34.652344 L 30.988281 35.777344 C 30.457031 36.257812 30.414062 37.082031 30.894531 37.621094 L 31.929688 38.769531 C 32.414062 39.304688 33.238281 39.351562 33.773438 38.871094 L 35.019531 37.746094 C 35.554688 37.265625 35.597656 36.441406 35.117188 35.90625 L 34.078125 34.753906 C 33.597656 34.21875 32.773438 34.171875 32.238281 34.652344 Z M 34.476562 36.480469 C 34.640625 36.660156 34.625 36.941406 34.445312 37.105469 L 33.195312 38.230469 C 33.015625 38.394531 32.734375 38.378906 32.570312 38.195312 L 31.535156 37.046875 C 31.371094 36.863281 31.382812 36.582031 31.566406 36.417969 L 32.8125 35.292969 C 32.996094 35.132812 33.277344 35.144531 33.441406 35.328125 Z M 38.027344 29.445312 L 36.777344 30.570312 C 36.246094 31.050781 36.203125 31.875 36.683594 32.410156 L 37.71875 33.5625 C 38.203125 34.097656 39.027344 34.140625 39.5625 33.660156 L 40.808594 32.539062 C 41.34375 32.058594 41.386719 31.230469 40.90625 30.695312 L 39.867188 29.546875 C 39.386719 29.011719 38.5625 28.964844 38.027344 29.445312 Z M 40.265625 31.269531 C 40.429688 31.453125 40.414062 31.734375 40.234375 31.898438 L 38.984375 33.023438 C 38.804688 33.183594 38.523438 33.171875 38.359375 32.988281 L 37.324219 31.835938 C 37.160156 31.65625 37.171875 31.371094 37.355469 31.210938 L 38.601562 30.085938 C 38.785156 29.921875 39.066406 29.9375 39.230469 30.121094 Z M 43.816406 24.238281 L 42.566406 25.359375 C 42.03125 25.839844 41.992188 26.667969 42.472656 27.203125 L 43.507812 28.355469 C 43.988281 28.890625 44.816406 28.933594 45.351562 28.453125 L 46.597656 27.332031 C 47.132812 26.851562 47.175781 26.023438 46.691406 25.488281 L 45.65625 24.339844 C 45.175781 23.800781 44.351562 23.757812 43.816406 24.238281 Z M 46.054688 26.0625 C 46.21875 26.246094 46.203125 26.527344 46.023438 26.691406 L 44.773438 27.8125 C 44.59375 27.976562 44.3125 27.960938 44.148438 27.78125 L 43.109375 26.628906 C 42.945312 26.445312 42.960938 26.164062 43.144531 26 L 44.390625 24.878906 C 44.574219 24.714844 44.855469 24.730469 45.019531 24.914062 Z M 43.042969 5.613281 C 40.320312 2.585938 35.644531 2.332031 32.625 5.046875 C 31.667969 5.910156 30.988281 6.96875 30.597656 8.109375 C 30.175781 8.121094 29.769531 8.28125 29.453125 8.5625 C 28.726562 9.21875 28.667969 10.34375 29.324219 11.074219 L 30.066406 11.894531 L 28.523438 13.28125 L 27.785156 12.460938 C 27.128906 11.730469 26 11.667969 25.273438 12.324219 C 24.546875 12.976562 24.488281 14.105469 25.144531 14.832031 L 25.886719 15.65625 L 24.34375 17.042969 L 23.601562 16.21875 C 22.945312 15.492188 21.820312 15.429688 21.09375 16.085938 C 20.367188 16.738281 20.308594 17.863281 20.964844 18.59375 L 21.707031 19.417969 L 20.164062 20.804688 L 19.421875 19.980469 C 18.765625 19.25 17.640625 19.191406 16.914062 19.84375 C 16.1875 20.5 16.128906 21.625 16.785156 22.355469 L 17.527344 23.179688 L 16.886719 23.753906 C 15.691406 24.828125 15.597656 26.671875 16.675781 27.867188 L 29.574219 42.203125 C 30.648438 43.398438 32.492188 43.5 33.6875 42.425781 L 50.144531 27.617188 C 51.335938 26.546875 51.433594 24.699219 50.355469 23.503906 L 43.097656 15.4375 C 45.546875 12.671875 45.578125 8.429688 43.042969 5.613281 Z M 30.03125 9.203125 C 30.125 9.117188 30.234375 9.054688 30.347656 9.015625 C 30.230469 9.589844 30.179688 10.175781 30.199219 10.761719 L 29.964844 10.496094 C 29.625 10.121094 29.65625 9.539062 30.03125 9.203125 Z M 25.78125 14.257812 C 25.445312 13.882812 25.472656 13.300781 25.847656 12.964844 C 26.226562 12.625 26.804688 12.65625 27.144531 13.035156 L 27.886719 13.855469 L 26.523438 15.082031 Z M 21.601562 18.019531 C 21.265625 17.644531 21.292969 17.0625 21.667969 16.722656 C 22.046875 16.386719 22.625 16.417969 22.964844 16.792969 L 23.707031 17.617188 L 22.34375 18.84375 Z M 17.421875 21.78125 C 17.085938 21.40625 17.113281 20.824219 17.488281 20.484375 C 17.863281 20.148438 18.445312 20.179688 18.785156 20.554688 L 19.523438 21.378906 L 18.164062 22.605469 Z M 17.460938 24.394531 L 18.101562 23.816406 L 18.84375 24.640625 C 19.5 25.371094 20.625 25.433594 21.351562 24.777344 C 21.527344 24.617188 21.542969 24.347656 21.382812 24.171875 C 21.222656 23.992188 20.953125 23.980469 20.777344 24.136719 C 20.398438 24.476562 19.820312 24.445312 19.480469 24.066406 L 18.738281 23.242188 L 22.28125 20.058594 L 23.023438 20.878906 C 23.679688 21.609375 24.804688 21.671875 25.53125 21.015625 C 25.707031 20.859375 25.722656 20.585938 25.5625 20.410156 C 25.402344 20.234375 25.132812 20.21875 24.957031 20.375 C 24.578125 20.714844 24 20.683594 23.660156 20.304688 L 22.917969 19.484375 L 26.460938 16.296875 L 27.203125 17.121094 C 27.859375 17.847656 28.984375 17.910156 29.710938 17.257812 C 29.886719 17.097656 29.902344 16.824219 29.742188 16.648438 C 29.582031 16.472656 29.3125 16.457031 29.136719 16.617188 C 28.761719 16.953125 28.179688 16.921875 27.839844 16.546875 L 27.097656 15.722656 L 30.507812 12.65625 C 30.8125 13.667969 31.339844 14.628906 32.089844 15.464844 C 32.308594 15.707031 32.535156 15.929688 32.773438 16.132812 L 18.679688 28.8125 L 17.3125 27.292969 C 16.554688 26.449219 16.621094 25.148438 17.460938 24.394531 Z M 49.570312 26.976562 L 33.109375 41.785156 C 32.269531 42.542969 30.96875 42.472656 30.210938 41.628906 L 19.257812 29.457031 L 33.472656 16.664062 C 34 17.019531 34.570312 17.300781 35.15625 17.503906 C 34.792969 17.992188 34.808594 18.6875 35.234375 19.15625 L 36.269531 20.308594 C 36.75 20.84375 37.578125 20.890625 38.109375 20.410156 L 39.359375 19.285156 C 39.832031 18.859375 39.917969 18.164062 39.597656 17.636719 C 40.640625 17.34375 41.632812 16.816406 42.492188 16.046875 L 49.71875 24.078125 C 50.476562 24.921875 50.410156 26.222656 49.570312 26.980469 Z M 36.113281 17.765625 C 36.949219 17.933594 37.808594 17.960938 38.65625 17.839844 L 38.816406 18.015625 C 38.980469 18.199219 38.964844 18.480469 38.78125 18.644531 L 37.535156 19.765625 C 37.351562 19.929688 37.070312 19.914062 36.90625 19.734375 L 35.871094 18.582031 C 35.707031 18.398438 35.722656 18.117188 35.902344 17.957031 Z M 41.933594 15.390625 C 39.265625 17.792969 35.136719 17.566406 32.730469 14.890625 C 30.320312 12.214844 30.535156 8.085938 33.203125 5.6875 C 35.867188 3.285156 39.996094 3.511719 42.40625 6.1875 C 44.8125 8.863281 44.601562 12.992188 41.933594 15.390625 Z M 33.863281 6.421875 C 31.597656 8.457031 31.417969 11.964844 33.460938 14.234375 C 35.503906 16.507812 39.007812 16.695312 41.273438 14.660156 C 43.539062 12.621094 43.714844 9.117188 41.671875 6.847656 C 39.628906 4.574219 36.125 4.382812 33.863281 6.421875 Z M 41.003906 13.714844 L 40.75 13.433594 C 40.589844 13.257812 40.320312 13.242188 40.144531 13.402344 C 39.96875 13.5625 39.953125 13.832031 40.113281 14.007812 L 40.363281 14.289062 C 38.570312 15.628906 36.050781 15.492188 34.402344 13.964844 L 34.683594 13.714844 C 34.859375 13.554688 34.871094 13.285156 34.714844 13.109375 C 34.554688 12.929688 34.28125 12.917969 34.105469 13.074219 L 33.828125 13.324219 C 32.480469 11.527344 32.613281 9.007812 34.132812 7.363281 L 34.382812 7.644531 C 34.542969 7.820312 34.816406 7.835938 34.992188 7.675781 C 35.167969 7.519531 35.179688 7.246094 35.023438 7.070312 L 34.769531 6.789062 C 36.566406 5.449219 39.082031 5.585938 40.730469 7.113281 L 40.453125 7.363281 C 40.277344 7.523438 40.261719 7.792969 40.421875 7.972656 C 40.582031 8.148438 40.851562 8.164062 41.027344 8.003906 L 41.308594 7.753906 C 42.652344 9.554688 42.523438 12.070312 41.003906 13.714844 Z M 39.308594 8.972656 C 39.46875 9.148438 39.453125 9.421875 39.277344 9.582031 L 37.855469 10.859375 C 37.679688 11.019531 37.40625 11.003906 37.25 10.828125 L 35.460938 8.839844 C 35.300781 8.664062 35.316406 8.390625 35.492188 8.230469 C 35.667969 8.074219 35.941406 8.089844 36.097656 8.265625 L 37.597656 9.933594 L 38.703125 8.941406 C 38.878906 8.78125 39.148438 8.796875 39.308594 8.972656 Z M 39.308594 8.972656 " fill-opacity="1" fill-rule="nonzero"/></g></g></g></g><g transform="matrix(1, 0, 0, 1, 0, -0.000000000000001479)"><g clip-path="url(#e98fa7b67a)"><g transform="matrix(1, 0, 0, 1, 0, -0.000000000000001479)"><g clip-path="url(#37ef479443)"><g mask="url(#b5b6128e82)"><g transform="matrix(1, 0, 0, 1, 0, -0.000000000000001479)"><g clip-path="url(#8a794965fe)"><g clip-path="url(#764a595b4f)"><rect x="-128.832" fill="url(#75ed6f5f7b)" width="497.664" height="124.416" y="-32.208"/></g></g></g></g></g></g></g></g><g clip-path="url(#51c41de5b9)"><g transform="matrix(1, 0, 0, 1, 31, 15)"><g clip-path="url(#8d51af90da)"><g clip-path="url(#f554398328)"><g mask="url(#80817b874d)"><g transform="matrix(1, 0, 0, 1, 0, -0.000000000000001776)"><g clip-path="url(#b4fe99db62)"><g clip-path="url(#632dce5c63)"><path fill="url(#8e41f49121)" d="M 0.136719 0.25 L 0.136719 45 L 147.878906 45 L 147.878906 0.25 Z M 0.136719 0.25 " fill-rule="nonzero"/></g></g></g></g></g></g></g></g></svg>