<svg xmlns="http://www.w3.org/2000/svg" xmlns:xlink="http://www.w3.org/1999/xlink" width="500" zoomAndPan="magnify" viewBox="0 0 375 374.999991" height="500" preserveAspectRatio="xMidYMid meet" version="1.0"><defs><g/><clipPath id="ade20f50fa"><path d="M 78 88 L 273 88 L 273 260 L 78 260 Z M 78 88 " clip-rule="nonzero"/></clipPath><clipPath id="99c72469b2"><path d="M 240.511719 87.730469 L 273.144531 218.726562 L 110.855469 259.160156 L 78.21875 128.164062 Z M 240.511719 87.730469 " clip-rule="nonzero"/></clipPath><clipPath id="2598ee8e1a"><path d="M 240.511719 87.730469 L 273.144531 218.726562 L 110.855469 259.160156 L 78.21875 128.164062 Z M 240.511719 87.730469 " clip-rule="nonzero"/></clipPath><clipPath id="9877978edc"><path d="M 43.238281 211.457031 L 375 211.457031 L 375 296.082031 L 43.238281 296.082031 Z M 43.238281 211.457031 " clip-rule="nonzero"/></clipPath><clipPath id="fdc0c2ed8a"><path d="M 0.238281 0.457031 L 332 0.457031 L 332 85.082031 L 0.238281 85.082031 Z M 0.238281 0.457031 " clip-rule="nonzero"/></clipPath><clipPath id="802c3d6f2f"><rect x="0" width="332" y="0" height="86"/></clipPath></defs><g clip-path="url(#ade20f50fa)"><g clip-path="url(#99c72469b2)"><g clip-path="url(#2598ee8e1a)"><path fill="#1e5234" d="M 105.425781 222.914062 L 123.980469 218.289062 C 125.011719 218.035156 125.636719 216.992188 125.378906 215.964844 L 111.378906 159.769531 C 111.125 158.742188 110.082031 158.117188 109.054688 158.375 L 90.496094 162.996094 L 82.558594 131.136719 L 158.289062 112.269531 L 167.277344 148.351562 C 154.152344 152.640625 146.351562 166.449219 149.738281 180.054688 C 153.128906 193.664062 166.496094 202.199219 180.101562 199.828125 L 189.089844 235.90625 L 113.363281 254.773438 Z M 104.496094 219.191406 L 91.425781 166.71875 L 108.121094 162.558594 L 121.191406 215.03125 Z M 179.171875 196.09375 C 167.625 197.964844 156.339844 190.683594 153.460938 179.128906 C 150.585938 167.574219 157.132812 155.851562 168.207031 152.085938 Z M 171.929688 151.15625 C 183.476562 149.285156 194.765625 156.566406 197.644531 168.121094 C 200.519531 179.675781 193.96875 191.398438 182.894531 195.167969 Z M 245.679688 124.335938 L 227.121094 128.960938 C 226.089844 129.214844 225.46875 130.257812 225.722656 131.285156 L 239.722656 187.480469 C 239.980469 188.507812 241.019531 189.132812 242.050781 188.875 L 260.609375 184.253906 L 268.546875 216.109375 L 192.8125 234.980469 L 183.824219 198.898438 C 196.953125 194.613281 204.753906 180.800781 201.363281 167.195312 C 197.976562 153.585938 184.605469 145.050781 171 147.425781 L 162.011719 111.34375 L 237.742188 92.476562 Z M 246.609375 128.058594 L 259.679688 180.53125 L 242.984375 184.691406 L 229.910156 132.21875 Z M 272.734375 217.046875 L 241.003906 89.6875 C 240.75 88.660156 239.707031 88.035156 238.679688 88.289062 L 79.769531 127.878906 C 78.742188 128.136719 78.117188 129.175781 78.371094 130.203125 L 110.101562 257.5625 C 110.355469 258.589844 111.398438 259.214844 112.425781 258.960938 L 271.335938 219.371094 C 272.363281 219.113281 272.988281 218.070312 272.734375 217.046875 " fill-opacity="1" fill-rule="nonzero"/></g></g></g><g clip-path="url(#9877978edc)"><g transform="matrix(1, 0, 0, 1, 43, 211)"><g clip-path="url(#802c3d6f2f)"><g clip-path="url(#fdc0c2ed8a)"><path fill="#ffffff" d="M 0.238281 0.457031 L 332.136719 0.457031 L 332.136719 85.082031 L 0.238281 85.082031 Z M 0.238281 0.457031 " fill-opacity="1" fill-rule="nonzero"/></g></g></g></g><g fill="#1e5234" fill-opacity="1"><g transform="translate(55.453732, 236.056463)"><g><path d="M 10.8125 -21.953125 L 10.8125 -21.328125 C 10.113281 -21.304688 9.582031 -21.226562 9.21875 -21.09375 C 8.863281 -20.957031 8.625 -20.707031 8.5 -20.34375 C 8.375 -19.988281 8.3125 -19.425781 8.3125 -18.65625 L 8.3125 -2.90625 C 8.3125 -2.269531 8.359375 -1.796875 8.453125 -1.484375 C 8.546875 -1.171875 8.726562 -0.960938 9 -0.859375 C 9.28125 -0.765625 9.703125 -0.71875 10.265625 -0.71875 L 11.78125 -0.71875 C 12.476562 -0.71875 13.132812 -0.878906 13.75 -1.203125 C 14.375 -1.535156 14.9375 -2.003906 15.4375 -2.609375 C 15.9375 -3.222656 16.347656 -3.953125 16.671875 -4.796875 C 17.003906 -5.648438 17.253906 -6.59375 17.421875 -7.625 L 18.140625 -7.625 C 18.078125 -6.925781 18.046875 -6.015625 18.046875 -4.890625 C 18.046875 -4.421875 18.054688 -3.726562 18.078125 -2.8125 C 18.097656 -1.90625 18.160156 -0.96875 18.265625 0 C 17.203125 -0.0390625 16.007812 -0.0664062 14.6875 -0.078125 C 13.363281 -0.0859375 12.1875 -0.09375 11.15625 -0.09375 C 10.644531 -0.09375 9.984375 -0.09375 9.171875 -0.09375 C 8.367188 -0.09375 7.5 -0.0859375 6.5625 -0.078125 C 5.632812 -0.0664062 4.695312 -0.0546875 3.75 -0.046875 C 2.800781 -0.0351562 1.898438 -0.0195312 1.046875 0 L 1.046875 -0.625 C 1.710938 -0.664062 2.207031 -0.742188 2.53125 -0.859375 C 2.863281 -0.984375 3.085938 -1.234375 3.203125 -1.609375 C 3.316406 -1.984375 3.375 -2.539062 3.375 -3.28125 L 3.375 -18.65625 C 3.375 -19.425781 3.316406 -19.988281 3.203125 -20.34375 C 3.085938 -20.707031 2.859375 -20.957031 2.515625 -21.09375 C 2.179688 -21.226562 1.691406 -21.304688 1.046875 -21.328125 L 1.046875 -21.953125 C 1.566406 -21.929688 2.265625 -21.910156 3.140625 -21.890625 C 4.023438 -21.867188 4.960938 -21.859375 5.953125 -21.859375 C 6.859375 -21.859375 7.75 -21.867188 8.625 -21.890625 C 9.507812 -21.910156 10.238281 -21.929688 10.8125 -21.953125 Z M 10.8125 -21.953125 "/></g></g></g><g fill="#1e5234" fill-opacity="1"><g transform="translate(74.392375, 236.056463)"><g><path d="M 11.40625 -22.015625 L 18.9375 -2.609375 C 19.226562 -1.859375 19.550781 -1.34375 19.90625 -1.0625 C 20.269531 -0.789062 20.597656 -0.644531 20.890625 -0.625 L 20.890625 0 C 20.273438 -0.0390625 19.546875 -0.0664062 18.703125 -0.078125 C 17.867188 -0.0859375 17.03125 -0.09375 16.1875 -0.09375 C 15.226562 -0.09375 14.328125 -0.0859375 13.484375 -0.078125 C 12.640625 -0.0664062 11.96875 -0.0390625 11.46875 0 L 11.46875 -0.625 C 12.519531 -0.664062 13.1875 -0.84375 13.46875 -1.15625 C 13.75 -1.476562 13.679688 -2.164062 13.265625 -3.21875 L 8 -17.640625 L 8.5625 -18.4375 L 3.84375 -6.171875 C 3.382812 -5.035156 3.109375 -4.101562 3.015625 -3.375 C 2.929688 -2.65625 2.984375 -2.097656 3.171875 -1.703125 C 3.367188 -1.304688 3.691406 -1.03125 4.140625 -0.875 C 4.585938 -0.726562 5.117188 -0.644531 5.734375 -0.625 L 5.734375 0 C 5.054688 -0.0390625 4.40625 -0.0664062 3.78125 -0.078125 C 3.164062 -0.0859375 2.535156 -0.09375 1.890625 -0.09375 C 1.429688 -0.09375 1 -0.0859375 0.59375 -0.078125 C 0.195312 -0.0664062 -0.15625 -0.0390625 -0.46875 0 L -0.46875 -0.625 C -0.03125 -0.707031 0.410156 -0.984375 0.859375 -1.453125 C 1.316406 -1.929688 1.765625 -2.738281 2.203125 -3.875 L 9.265625 -22.015625 C 9.597656 -21.992188 9.953125 -21.984375 10.328125 -21.984375 C 10.710938 -21.984375 11.070312 -21.992188 11.40625 -22.015625 Z M 13.578125 -8.921875 L 13.578125 -8.3125 L 4.34375 -8.3125 L 4.65625 -8.921875 Z M 13.578125 -8.921875 "/></g></g></g><g fill="#1e5234" fill-opacity="1"><g transform="translate(95.066801, 236.056463)"><g><path d="M 19.90625 -21.953125 C 19.820312 -20.890625 19.765625 -19.875 19.734375 -18.90625 C 19.703125 -17.9375 19.6875 -17.191406 19.6875 -16.671875 C 19.6875 -16.222656 19.695312 -15.789062 19.71875 -15.375 C 19.738281 -14.957031 19.757812 -14.609375 19.78125 -14.328125 L 19.0625 -14.328125 C 18.726562 -16.054688 18.304688 -17.425781 17.796875 -18.4375 C 17.296875 -19.457031 16.691406 -20.175781 15.984375 -20.59375 C 15.285156 -21.019531 14.460938 -21.234375 13.515625 -21.234375 L 12.796875 -21.234375 L 12.796875 -3.53125 C 12.796875 -2.707031 12.882812 -2.085938 13.0625 -1.671875 C 13.238281 -1.253906 13.5625 -0.976562 14.03125 -0.84375 C 14.507812 -0.71875 15.207031 -0.644531 16.125 -0.625 L 16.125 0 C 15.476562 -0.0195312 14.625 -0.0390625 13.5625 -0.0625 C 12.5 -0.0820312 11.390625 -0.09375 10.234375 -0.09375 C 9.097656 -0.09375 8.019531 -0.0820312 7 -0.0625 C 5.988281 -0.0390625 5.175781 -0.0195312 4.5625 0 L 4.5625 -0.625 C 5.488281 -0.644531 6.1875 -0.71875 6.65625 -0.84375 C 7.132812 -0.976562 7.457031 -1.253906 7.625 -1.671875 C 7.789062 -2.085938 7.875 -2.707031 7.875 -3.53125 L 7.875 -21.234375 L 7.1875 -21.234375 C 6.238281 -21.234375 5.410156 -21.019531 4.703125 -20.59375 C 4.003906 -20.175781 3.40625 -19.460938 2.90625 -18.453125 C 2.414062 -17.453125 1.984375 -16.078125 1.609375 -14.328125 L 0.90625 -14.328125 C 0.945312 -14.609375 0.96875 -14.957031 0.96875 -15.375 C 0.976562 -15.789062 0.984375 -16.222656 0.984375 -16.671875 C 0.984375 -17.191406 0.96875 -17.9375 0.9375 -18.90625 C 0.914062 -19.875 0.863281 -20.890625 0.78125 -21.953125 C 1.726562 -21.929688 2.765625 -21.910156 3.890625 -21.890625 C 5.015625 -21.867188 6.144531 -21.859375 7.28125 -21.859375 C 8.414062 -21.859375 9.441406 -21.859375 10.359375 -21.859375 C 11.285156 -21.859375 12.3125 -21.859375 13.4375 -21.859375 C 14.5625 -21.859375 15.691406 -21.867188 16.828125 -21.890625 C 17.960938 -21.910156 18.988281 -21.929688 19.90625 -21.953125 Z M 19.90625 -21.953125 "/></g></g></g><g fill="#1e5234" fill-opacity="1"><g transform="translate(115.772229, 236.056463)"><g><path d="M 17.640625 -21.953125 C 17.554688 -21.035156 17.5 -20.15625 17.46875 -19.3125 C 17.4375 -18.46875 17.421875 -17.816406 17.421875 -17.359375 C 17.421875 -16.941406 17.429688 -16.546875 17.453125 -16.171875 C 17.472656 -15.804688 17.492188 -15.5 17.515625 -15.25 L 16.796875 -15.25 C 16.585938 -16.757812 16.265625 -17.953125 15.828125 -18.828125 C 15.398438 -19.710938 14.835938 -20.332031 14.140625 -20.6875 C 13.453125 -21.050781 12.644531 -21.234375 11.71875 -21.234375 L 10.453125 -21.234375 C 9.847656 -21.234375 9.390625 -21.179688 9.078125 -21.078125 C 8.773438 -20.972656 8.570312 -20.765625 8.46875 -20.453125 C 8.363281 -20.148438 8.3125 -19.675781 8.3125 -19.03125 L 8.3125 -2.90625 C 8.3125 -2.269531 8.363281 -1.796875 8.46875 -1.484375 C 8.570312 -1.171875 8.773438 -0.960938 9.078125 -0.859375 C 9.390625 -0.765625 9.847656 -0.71875 10.453125 -0.71875 L 11.96875 -0.71875 C 12.894531 -0.71875 13.710938 -0.914062 14.421875 -1.3125 C 15.140625 -1.71875 15.75 -2.40625 16.25 -3.375 C 16.757812 -4.351562 17.148438 -5.664062 17.421875 -7.3125 L 18.140625 -7.3125 C 18.078125 -6.65625 18.046875 -5.789062 18.046875 -4.71875 C 18.046875 -4.238281 18.054688 -3.5625 18.078125 -2.6875 C 18.097656 -1.820312 18.160156 -0.925781 18.265625 0 C 17.203125 -0.0390625 16.007812 -0.0664062 14.6875 -0.078125 C 13.363281 -0.0859375 12.1875 -0.09375 11.15625 -0.09375 C 10.644531 -0.09375 9.984375 -0.09375 9.171875 -0.09375 C 8.367188 -0.09375 7.5 -0.0859375 6.5625 -0.078125 C 5.632812 -0.0664062 4.695312 -0.0546875 3.75 -0.046875 C 2.800781 -0.0351562 1.898438 -0.0195312 1.046875 0 L 1.046875 -0.625 C 1.710938 -0.664062 2.207031 -0.742188 2.53125 -0.859375 C 2.863281 -0.984375 3.085938 -1.234375 3.203125 -1.609375 C 3.316406 -1.984375 3.375 -2.539062 3.375 -3.28125 L 3.375 -18.65625 C 3.375 -19.425781 3.316406 -19.988281 3.203125 -20.34375 C 3.085938 -20.707031 2.859375 -20.957031 2.515625 -21.09375 C 2.179688 -21.226562 1.691406 -21.304688 1.046875 -21.328125 L 1.046875 -21.953125 C 1.898438 -21.929688 2.800781 -21.914062 3.75 -21.90625 C 4.695312 -21.894531 5.632812 -21.882812 6.5625 -21.875 C 7.5 -21.863281 8.367188 -21.859375 9.171875 -21.859375 C 9.984375 -21.859375 10.644531 -21.859375 11.15625 -21.859375 C 12.113281 -21.859375 13.195312 -21.863281 14.40625 -21.875 C 15.613281 -21.882812 16.691406 -21.910156 17.640625 -21.953125 Z M 12.796875 -11.34375 C 12.796875 -11.34375 12.796875 -11.238281 12.796875 -11.03125 C 12.796875 -10.820312 12.796875 -10.71875 12.796875 -10.71875 L 7.375 -10.71875 C 7.375 -10.71875 7.375 -10.820312 7.375 -11.03125 C 7.375 -11.238281 7.375 -11.34375 7.375 -11.34375 Z M 13.703125 -15.4375 C 13.617188 -14.257812 13.582031 -13.359375 13.59375 -12.734375 C 13.601562 -12.117188 13.609375 -11.550781 13.609375 -11.03125 C 13.609375 -10.519531 13.617188 -9.953125 13.640625 -9.328125 C 13.660156 -8.710938 13.710938 -7.816406 13.796875 -6.640625 L 13.078125 -6.640625 C 12.972656 -7.359375 12.78125 -8.023438 12.5 -8.640625 C 12.226562 -9.265625 11.832031 -9.765625 11.3125 -10.140625 C 10.800781 -10.523438 10.128906 -10.71875 9.296875 -10.71875 L 9.296875 -11.34375 C 9.921875 -11.34375 10.445312 -11.472656 10.875 -11.734375 C 11.3125 -11.992188 11.671875 -12.332031 11.953125 -12.75 C 12.234375 -13.175781 12.453125 -13.625 12.609375 -14.09375 C 12.773438 -14.570312 12.898438 -15.019531 12.984375 -15.4375 Z M 13.703125 -15.4375 "/></g></g></g><g fill="#1e5234" fill-opacity="1"><g transform="translate(135.423782, 236.056463)"><g><path d="M 1.046875 -21.953125 C 1.566406 -21.929688 2.265625 -21.910156 3.140625 -21.890625 C 4.023438 -21.867188 4.898438 -21.859375 5.765625 -21.859375 C 6.753906 -21.859375 7.710938 -21.867188 8.640625 -21.890625 C 9.578125 -21.910156 10.242188 -21.921875 10.640625 -21.921875 C 12.554688 -21.921875 14.148438 -21.707031 15.421875 -21.28125 C 16.691406 -20.851562 17.640625 -20.238281 18.265625 -19.4375 C 18.898438 -18.632812 19.21875 -17.660156 19.21875 -16.515625 C 19.21875 -15.816406 19.070312 -15.109375 18.78125 -14.390625 C 18.5 -13.679688 18.007812 -13.019531 17.3125 -12.40625 C 16.625 -11.800781 15.675781 -11.316406 14.46875 -10.953125 C 13.269531 -10.597656 11.765625 -10.421875 9.953125 -10.421875 L 6.96875 -10.421875 L 6.96875 -11.03125 L 9.640625 -11.03125 C 10.859375 -11.03125 11.78125 -11.265625 12.40625 -11.734375 C 13.039062 -12.203125 13.476562 -12.820312 13.71875 -13.59375 C 13.957031 -14.363281 14.078125 -15.226562 14.078125 -16.1875 C 14.078125 -17.8125 13.785156 -19.070312 13.203125 -19.96875 C 12.628906 -20.875 11.640625 -21.328125 10.234375 -21.328125 C 9.421875 -21.328125 8.894531 -21.148438 8.65625 -20.796875 C 8.425781 -20.453125 8.3125 -19.738281 8.3125 -18.65625 L 8.3125 -3.28125 C 8.3125 -2.539062 8.367188 -1.984375 8.484375 -1.609375 C 8.597656 -1.234375 8.816406 -0.984375 9.140625 -0.859375 C 9.472656 -0.742188 9.972656 -0.664062 10.640625 -0.625 L 10.640625 0 C 10.078125 -0.0390625 9.367188 -0.0664062 8.515625 -0.078125 C 7.671875 -0.0859375 6.816406 -0.09375 5.953125 -0.09375 C 4.960938 -0.09375 4.023438 -0.0859375 3.140625 -0.078125 C 2.265625 -0.0664062 1.566406 -0.0390625 1.046875 0 L 1.046875 -0.625 C 1.710938 -0.664062 2.207031 -0.742188 2.53125 -0.859375 C 2.863281 -0.984375 3.085938 -1.234375 3.203125 -1.609375 C 3.316406 -1.984375 3.375 -2.539062 3.375 -3.28125 L 3.375 -18.65625 C 3.375 -19.425781 3.316406 -19.988281 3.203125 -20.34375 C 3.085938 -20.707031 2.859375 -20.957031 2.515625 -21.09375 C 2.179688 -21.226562 1.691406 -21.304688 1.046875 -21.328125 Z M 6.90625 -10.9375 C 7.800781 -10.914062 8.570312 -10.875 9.21875 -10.8125 C 9.875 -10.75 10.445312 -10.691406 10.9375 -10.640625 C 11.4375 -10.597656 11.882812 -10.566406 12.28125 -10.546875 C 14.15625 -10.378906 15.539062 -9.972656 16.4375 -9.328125 C 17.34375 -8.691406 17.929688 -7.734375 18.203125 -6.453125 L 18.90625 -3.25 C 19.09375 -2.425781 19.289062 -1.847656 19.5 -1.515625 C 19.707031 -1.179688 20.003906 -1.015625 20.390625 -1.015625 C 20.660156 -1.035156 20.882812 -1.101562 21.0625 -1.21875 C 21.238281 -1.332031 21.429688 -1.503906 21.640625 -1.734375 L 22.078125 -1.359375 C 21.515625 -0.722656 20.910156 -0.265625 20.265625 0.015625 C 19.628906 0.296875 18.859375 0.4375 17.953125 0.4375 C 16.835938 0.4375 15.914062 0.203125 15.1875 -0.265625 C 14.46875 -0.742188 13.992188 -1.625 13.765625 -2.90625 L 13.203125 -6.015625 C 13.054688 -6.878906 12.878906 -7.632812 12.671875 -8.28125 C 12.472656 -8.9375 12.191406 -9.457031 11.828125 -9.84375 C 11.460938 -10.226562 10.960938 -10.421875 10.328125 -10.421875 L 6.96875 -10.421875 Z M 6.90625 -10.9375 "/></g></g></g><g fill="#1e5234" fill-opacity="1"><g transform="translate(156.87311, 236.056463)"><g><path d="M 11.40625 -22.015625 L 18.9375 -2.609375 C 19.226562 -1.859375 19.550781 -1.34375 19.90625 -1.0625 C 20.269531 -0.789062 20.597656 -0.644531 20.890625 -0.625 L 20.890625 0 C 20.273438 -0.0390625 19.546875 -0.0664062 18.703125 -0.078125 C 17.867188 -0.0859375 17.03125 -0.09375 16.1875 -0.09375 C 15.226562 -0.09375 14.328125 -0.0859375 13.484375 -0.078125 C 12.640625 -0.0664062 11.96875 -0.0390625 11.46875 0 L 11.46875 -0.625 C 12.519531 -0.664062 13.1875 -0.84375 13.46875 -1.15625 C 13.75 -1.476562 13.679688 -2.164062 13.265625 -3.21875 L 8 -17.640625 L 8.5625 -18.4375 L 3.84375 -6.171875 C 3.382812 -5.035156 3.109375 -4.101562 3.015625 -3.375 C 2.929688 -2.65625 2.984375 -2.097656 3.171875 -1.703125 C 3.367188 -1.304688 3.691406 -1.03125 4.140625 -0.875 C 4.585938 -0.726562 5.117188 -0.644531 5.734375 -0.625 L 5.734375 0 C 5.054688 -0.0390625 4.40625 -0.0664062 3.78125 -0.078125 C 3.164062 -0.0859375 2.535156 -0.09375 1.890625 -0.09375 C 1.429688 -0.09375 1 -0.0859375 0.59375 -0.078125 C 0.195312 -0.0664062 -0.15625 -0.0390625 -0.46875 0 L -0.46875 -0.625 C -0.03125 -0.707031 0.410156 -0.984375 0.859375 -1.453125 C 1.316406 -1.929688 1.765625 -2.738281 2.203125 -3.875 L 9.265625 -22.015625 C 9.597656 -21.992188 9.953125 -21.984375 10.328125 -21.984375 C 10.710938 -21.984375 11.070312 -21.992188 11.40625 -22.015625 Z M 13.578125 -8.921875 L 13.578125 -8.3125 L 4.34375 -8.3125 L 4.65625 -8.921875 Z M 13.578125 -8.921875 "/></g></g></g><g fill="#1e5234" fill-opacity="1"><g transform="translate(177.547536, 236.056463)"><g><path d="M 10.8125 -21.953125 L 10.8125 -21.328125 C 10.113281 -21.304688 9.582031 -21.226562 9.21875 -21.09375 C 8.863281 -20.957031 8.625 -20.707031 8.5 -20.34375 C 8.375 -19.988281 8.3125 -19.425781 8.3125 -18.65625 L 8.3125 -2.90625 C 8.3125 -2.269531 8.359375 -1.796875 8.453125 -1.484375 C 8.546875 -1.171875 8.726562 -0.960938 9 -0.859375 C 9.28125 -0.765625 9.703125 -0.71875 10.265625 -0.71875 L 11.78125 -0.71875 C 12.476562 -0.71875 13.132812 -0.878906 13.75 -1.203125 C 14.375 -1.535156 14.9375 -2.003906 15.4375 -2.609375 C 15.9375 -3.222656 16.347656 -3.953125 16.671875 -4.796875 C 17.003906 -5.648438 17.253906 -6.59375 17.421875 -7.625 L 18.140625 -7.625 C 18.078125 -6.925781 18.046875 -6.015625 18.046875 -4.890625 C 18.046875 -4.421875 18.054688 -3.726562 18.078125 -2.8125 C 18.097656 -1.90625 18.160156 -0.96875 18.265625 0 C 17.203125 -0.0390625 16.007812 -0.0664062 14.6875 -0.078125 C 13.363281 -0.0859375 12.1875 -0.09375 11.15625 -0.09375 C 10.644531 -0.09375 9.984375 -0.09375 9.171875 -0.09375 C 8.367188 -0.09375 7.5 -0.0859375 6.5625 -0.078125 C 5.632812 -0.0664062 4.695312 -0.0546875 3.75 -0.046875 C 2.800781 -0.0351562 1.898438 -0.0195312 1.046875 0 L 1.046875 -0.625 C 1.710938 -0.664062 2.207031 -0.742188 2.53125 -0.859375 C 2.863281 -0.984375 3.085938 -1.234375 3.203125 -1.609375 C 3.316406 -1.984375 3.375 -2.539062 3.375 -3.28125 L 3.375 -18.65625 C 3.375 -19.425781 3.316406 -19.988281 3.203125 -20.34375 C 3.085938 -20.707031 2.859375 -20.957031 2.515625 -21.09375 C 2.179688 -21.226562 1.691406 -21.304688 1.046875 -21.328125 L 1.046875 -21.953125 C 1.566406 -21.929688 2.265625 -21.910156 3.140625 -21.890625 C 4.023438 -21.867188 4.960938 -21.859375 5.953125 -21.859375 C 6.859375 -21.859375 7.75 -21.867188 8.625 -21.890625 C 9.507812 -21.910156 10.238281 -21.929688 10.8125 -21.953125 Z M 10.8125 -21.953125 "/></g></g></g><g fill="#1e5234" fill-opacity="1"><g transform="translate(196.486179, 236.056463)"><g/></g></g><g fill="#1e5234" fill-opacity="1"><g transform="translate(203.708282, 236.056463)"><g><path d="M 21.015625 -21.953125 L 21.015625 -21.328125 C 20.554688 -21.160156 20.070312 -20.796875 19.5625 -20.234375 C 19.0625 -19.679688 18.597656 -18.816406 18.171875 -17.640625 L 11.625 0.0625 C 11.457031 0.0390625 11.28125 0.03125 11.09375 0.03125 C 10.90625 0.03125 10.722656 0.03125 10.546875 0.03125 C 10.378906 0.03125 10.203125 0.03125 10.015625 0.03125 C 9.828125 0.03125 9.648438 0.0390625 9.484375 0.0625 L 1.578125 -19.34375 C 1.285156 -20.082031 0.960938 -20.59375 0.609375 -20.875 C 0.265625 -21.15625 -0.0625 -21.304688 -0.375 -21.328125 L -0.375 -21.953125 C 0.25 -21.929688 0.976562 -21.910156 1.8125 -21.890625 C 2.644531 -21.867188 3.488281 -21.859375 4.34375 -21.859375 C 5.289062 -21.859375 6.179688 -21.867188 7.015625 -21.890625 C 7.859375 -21.910156 8.535156 -21.929688 9.046875 -21.953125 L 9.046875 -21.328125 C 8.390625 -21.304688 7.875 -21.226562 7.5 -21.09375 C 7.125 -20.957031 6.914062 -20.707031 6.875 -20.34375 C 6.832031 -19.988281 6.957031 -19.445312 7.25 -18.71875 L 12.890625 -4.375 L 12.25 -3.59375 L 16.515625 -15.125 C 17.078125 -16.675781 17.367188 -17.894531 17.390625 -18.78125 C 17.410156 -19.675781 17.191406 -20.316406 16.734375 -20.703125 C 16.285156 -21.097656 15.632812 -21.304688 14.78125 -21.328125 L 14.78125 -21.953125 C 15.488281 -21.929688 16.148438 -21.910156 16.765625 -21.890625 C 17.390625 -21.867188 18.019531 -21.859375 18.65625 -21.859375 C 19.113281 -21.859375 19.539062 -21.867188 19.9375 -21.890625 C 20.34375 -21.910156 20.703125 -21.929688 21.015625 -21.953125 Z M 21.015625 -21.953125 "/></g></g></g><g fill="#1e5234" fill-opacity="1"><g transform="translate(224.413709, 236.056463)"><g><path d="M 17.640625 -21.953125 C 17.554688 -21.035156 17.5 -20.15625 17.46875 -19.3125 C 17.4375 -18.46875 17.421875 -17.816406 17.421875 -17.359375 C 17.421875 -16.941406 17.429688 -16.546875 17.453125 -16.171875 C 17.472656 -15.804688 17.492188 -15.5 17.515625 -15.25 L 16.796875 -15.25 C 16.585938 -16.757812 16.265625 -17.953125 15.828125 -18.828125 C 15.398438 -19.710938 14.835938 -20.332031 14.140625 -20.6875 C 13.453125 -21.050781 12.644531 -21.234375 11.71875 -21.234375 L 10.453125 -21.234375 C 9.847656 -21.234375 9.390625 -21.179688 9.078125 -21.078125 C 8.773438 -20.972656 8.570312 -20.765625 8.46875 -20.453125 C 8.363281 -20.148438 8.3125 -19.675781 8.3125 -19.03125 L 8.3125 -2.90625 C 8.3125 -2.269531 8.363281 -1.796875 8.46875 -1.484375 C 8.570312 -1.171875 8.773438 -0.960938 9.078125 -0.859375 C 9.390625 -0.765625 9.847656 -0.71875 10.453125 -0.71875 L 11.96875 -0.71875 C 12.894531 -0.71875 13.710938 -0.914062 14.421875 -1.3125 C 15.140625 -1.71875 15.75 -2.40625 16.25 -3.375 C 16.757812 -4.351562 17.148438 -5.664062 17.421875 -7.3125 L 18.140625 -7.3125 C 18.078125 -6.65625 18.046875 -5.789062 18.046875 -4.71875 C 18.046875 -4.238281 18.054688 -3.5625 18.078125 -2.6875 C 18.097656 -1.820312 18.160156 -0.925781 18.265625 0 C 17.203125 -0.0390625 16.007812 -0.0664062 14.6875 -0.078125 C 13.363281 -0.0859375 12.1875 -0.09375 11.15625 -0.09375 C 10.644531 -0.09375 9.984375 -0.09375 9.171875 -0.09375 C 8.367188 -0.09375 7.5 -0.0859375 6.5625 -0.078125 C 5.632812 -0.0664062 4.695312 -0.0546875 3.75 -0.046875 C 2.800781 -0.0351562 1.898438 -0.0195312 1.046875 0 L 1.046875 -0.625 C 1.710938 -0.664062 2.207031 -0.742188 2.53125 -0.859375 C 2.863281 -0.984375 3.085938 -1.234375 3.203125 -1.609375 C 3.316406 -1.984375 3.375 -2.539062 3.375 -3.28125 L 3.375 -18.65625 C 3.375 -19.425781 3.316406 -19.988281 3.203125 -20.34375 C 3.085938 -20.707031 2.859375 -20.957031 2.515625 -21.09375 C 2.179688 -21.226562 1.691406 -21.304688 1.046875 -21.328125 L 1.046875 -21.953125 C 1.898438 -21.929688 2.800781 -21.914062 3.75 -21.90625 C 4.695312 -21.894531 5.632812 -21.882812 6.5625 -21.875 C 7.5 -21.863281 8.367188 -21.859375 9.171875 -21.859375 C 9.984375 -21.859375 10.644531 -21.859375 11.15625 -21.859375 C 12.113281 -21.859375 13.195312 -21.863281 14.40625 -21.875 C 15.613281 -21.882812 16.691406 -21.910156 17.640625 -21.953125 Z M 12.796875 -11.34375 C 12.796875 -11.34375 12.796875 -11.238281 12.796875 -11.03125 C 12.796875 -10.820312 12.796875 -10.71875 12.796875 -10.71875 L 7.375 -10.71875 C 7.375 -10.71875 7.375 -10.820312 7.375 -11.03125 C 7.375 -11.238281 7.375 -11.34375 7.375 -11.34375 Z M 13.703125 -15.4375 C 13.617188 -14.257812 13.582031 -13.359375 13.59375 -12.734375 C 13.601562 -12.117188 13.609375 -11.550781 13.609375 -11.03125 C 13.609375 -10.519531 13.617188 -9.953125 13.640625 -9.328125 C 13.660156 -8.710938 13.710938 -7.816406 13.796875 -6.640625 L 13.078125 -6.640625 C 12.972656 -7.359375 12.78125 -8.023438 12.5 -8.640625 C 12.226562 -9.265625 11.832031 -9.765625 11.3125 -10.140625 C 10.800781 -10.523438 10.128906 -10.71875 9.296875 -10.71875 L 9.296875 -11.34375 C 9.921875 -11.34375 10.445312 -11.472656 10.875 -11.734375 C 11.3125 -11.992188 11.671875 -12.332031 11.953125 -12.75 C 12.234375 -13.175781 12.453125 -13.625 12.609375 -14.09375 C 12.773438 -14.570312 12.898438 -15.019531 12.984375 -15.4375 Z M 13.703125 -15.4375 "/></g></g></g><g fill="#1e5234" fill-opacity="1"><g transform="translate(244.065262, 236.056463)"><g><path d="M 1.046875 -21.953125 C 1.566406 -21.929688 2.265625 -21.910156 3.140625 -21.890625 C 4.023438 -21.867188 4.898438 -21.859375 5.765625 -21.859375 C 6.753906 -21.859375 7.710938 -21.867188 8.640625 -21.890625 C 9.578125 -21.910156 10.242188 -21.921875 10.640625 -21.921875 C 12.554688 -21.921875 14.148438 -21.707031 15.421875 -21.28125 C 16.691406 -20.851562 17.640625 -20.238281 18.265625 -19.4375 C 18.898438 -18.632812 19.21875 -17.660156 19.21875 -16.515625 C 19.21875 -15.816406 19.070312 -15.109375 18.78125 -14.390625 C 18.5 -13.679688 18.007812 -13.019531 17.3125 -12.40625 C 16.625 -11.800781 15.675781 -11.316406 14.46875 -10.953125 C 13.269531 -10.597656 11.765625 -10.421875 9.953125 -10.421875 L 6.96875 -10.421875 L 6.96875 -11.03125 L 9.640625 -11.03125 C 10.859375 -11.03125 11.78125 -11.265625 12.40625 -11.734375 C 13.039062 -12.203125 13.476562 -12.820312 13.71875 -13.59375 C 13.957031 -14.363281 14.078125 -15.226562 14.078125 -16.1875 C 14.078125 -17.8125 13.785156 -19.070312 13.203125 -19.96875 C 12.628906 -20.875 11.640625 -21.328125 10.234375 -21.328125 C 9.421875 -21.328125 8.894531 -21.148438 8.65625 -20.796875 C 8.425781 -20.453125 8.3125 -19.738281 8.3125 -18.65625 L 8.3125 -3.28125 C 8.3125 -2.539062 8.367188 -1.984375 8.484375 -1.609375 C 8.597656 -1.234375 8.816406 -0.984375 9.140625 -0.859375 C 9.472656 -0.742188 9.972656 -0.664062 10.640625 -0.625 L 10.640625 0 C 10.078125 -0.0390625 9.367188 -0.0664062 8.515625 -0.078125 C 7.671875 -0.0859375 6.816406 -0.09375 5.953125 -0.09375 C 4.960938 -0.09375 4.023438 -0.0859375 3.140625 -0.078125 C 2.265625 -0.0664062 1.566406 -0.0390625 1.046875 0 L 1.046875 -0.625 C 1.710938 -0.664062 2.207031 -0.742188 2.53125 -0.859375 C 2.863281 -0.984375 3.085938 -1.234375 3.203125 -1.609375 C 3.316406 -1.984375 3.375 -2.539062 3.375 -3.28125 L 3.375 -18.65625 C 3.375 -19.425781 3.316406 -19.988281 3.203125 -20.34375 C 3.085938 -20.707031 2.859375 -20.957031 2.515625 -21.09375 C 2.179688 -21.226562 1.691406 -21.304688 1.046875 -21.328125 Z M 6.90625 -10.9375 C 7.800781 -10.914062 8.570312 -10.875 9.21875 -10.8125 C 9.875 -10.75 10.445312 -10.691406 10.9375 -10.640625 C 11.4375 -10.597656 11.882812 -10.566406 12.28125 -10.546875 C 14.15625 -10.378906 15.539062 -9.972656 16.4375 -9.328125 C 17.34375 -8.691406 17.929688 -7.734375 18.203125 -6.453125 L 18.90625 -3.25 C 19.09375 -2.425781 19.289062 -1.847656 19.5 -1.515625 C 19.707031 -1.179688 20.003906 -1.015625 20.390625 -1.015625 C 20.660156 -1.035156 20.882812 -1.101562 21.0625 -1.21875 C 21.238281 -1.332031 21.429688 -1.503906 21.640625 -1.734375 L 22.078125 -1.359375 C 21.515625 -0.722656 20.910156 -0.265625 20.265625 0.015625 C 19.628906 0.296875 18.859375 0.4375 17.953125 0.4375 C 16.835938 0.4375 15.914062 0.203125 15.1875 -0.265625 C 14.46875 -0.742188 13.992188 -1.625 13.765625 -2.90625 L 13.203125 -6.015625 C 13.054688 -6.878906 12.878906 -7.632812 12.671875 -8.28125 C 12.472656 -8.9375 12.191406 -9.457031 11.828125 -9.84375 C 11.460938 -10.226562 10.960938 -10.421875 10.328125 -10.421875 L 6.96875 -10.421875 Z M 6.90625 -10.9375 "/></g></g></g><g fill="#1e5234" fill-opacity="1"><g transform="translate(265.514601, 236.056463)"><g><path d="M 10.640625 -21.953125 C 14.703125 -21.953125 17.722656 -21.023438 19.703125 -19.171875 C 21.691406 -17.328125 22.6875 -14.675781 22.6875 -11.21875 C 22.6875 -8.96875 22.203125 -7 21.234375 -5.3125 C 20.265625 -3.632812 18.851562 -2.328125 17 -1.390625 C 15.15625 -0.460938 12.941406 0 10.359375 0 C 10.023438 0 9.585938 -0.0078125 9.046875 -0.03125 C 8.515625 -0.0507812 7.957031 -0.0664062 7.375 -0.078125 C 6.800781 -0.0859375 6.285156 -0.09375 5.828125 -0.09375 C 4.921875 -0.09375 4.023438 -0.0859375 3.140625 -0.078125 C 2.265625 -0.0664062 1.566406 -0.0390625 1.046875 0 L 1.046875 -0.625 C 1.710938 -0.664062 2.207031 -0.742188 2.53125 -0.859375 C 2.863281 -0.984375 3.085938 -1.234375 3.203125 -1.609375 C 3.316406 -1.984375 3.375 -2.539062 3.375 -3.28125 L 3.375 -18.65625 C 3.375 -19.425781 3.316406 -19.988281 3.203125 -20.34375 C 3.085938 -20.707031 2.859375 -20.957031 2.515625 -21.09375 C 2.179688 -21.226562 1.691406 -21.304688 1.046875 -21.328125 L 1.046875 -21.953125 C 1.566406 -21.929688 2.265625 -21.90625 3.140625 -21.875 C 4.023438 -21.84375 4.898438 -21.835938 5.765625 -21.859375 C 6.503906 -21.878906 7.34375 -21.898438 8.28125 -21.921875 C 9.226562 -21.941406 10.015625 -21.953125 10.640625 -21.953125 Z M 10.609375 -21.390625 C 9.648438 -21.390625 9.023438 -21.210938 8.734375 -20.859375 C 8.453125 -20.503906 8.3125 -19.789062 8.3125 -18.71875 L 8.3125 -3.21875 C 8.3125 -2.144531 8.457031 -1.429688 8.75 -1.078125 C 9.050781 -0.734375 9.679688 -0.5625 10.640625 -0.5625 C 12.367188 -0.5625 13.734375 -0.96875 14.734375 -1.78125 C 15.742188 -2.59375 16.460938 -3.785156 16.890625 -5.359375 C 17.328125 -6.929688 17.546875 -8.84375 17.546875 -11.09375 C 17.546875 -13.40625 17.3125 -15.320312 16.84375 -16.84375 C 16.382812 -18.363281 15.644531 -19.5 14.625 -20.25 C 13.613281 -21.007812 12.273438 -21.390625 10.609375 -21.390625 Z M 10.609375 -21.390625 "/></g></g></g><g fill="#1e5234" fill-opacity="1"><g transform="translate(289.567609, 236.056463)"><g><path d="M 17.640625 -21.953125 C 17.554688 -21.035156 17.5 -20.15625 17.46875 -19.3125 C 17.4375 -18.46875 17.421875 -17.816406 17.421875 -17.359375 C 17.421875 -16.941406 17.429688 -16.546875 17.453125 -16.171875 C 17.472656 -15.804688 17.492188 -15.5 17.515625 -15.25 L 16.796875 -15.25 C 16.585938 -16.757812 16.265625 -17.953125 15.828125 -18.828125 C 15.398438 -19.710938 14.835938 -20.332031 14.140625 -20.6875 C 13.453125 -21.050781 12.644531 -21.234375 11.71875 -21.234375 L 10.453125 -21.234375 C 9.847656 -21.234375 9.390625 -21.179688 9.078125 -21.078125 C 8.773438 -20.972656 8.570312 -20.765625 8.46875 -20.453125 C 8.363281 -20.148438 8.3125 -19.675781 8.3125 -19.03125 L 8.3125 -2.90625 C 8.3125 -2.269531 8.363281 -1.796875 8.46875 -1.484375 C 8.570312 -1.171875 8.773438 -0.960938 9.078125 -0.859375 C 9.390625 -0.765625 9.847656 -0.71875 10.453125 -0.71875 L 11.96875 -0.71875 C 12.894531 -0.71875 13.710938 -0.914062 14.421875 -1.3125 C 15.140625 -1.71875 15.75 -2.40625 16.25 -3.375 C 16.757812 -4.351562 17.148438 -5.664062 17.421875 -7.3125 L 18.140625 -7.3125 C 18.078125 -6.65625 18.046875 -5.789062 18.046875 -4.71875 C 18.046875 -4.238281 18.054688 -3.5625 18.078125 -2.6875 C 18.097656 -1.820312 18.160156 -0.925781 18.265625 0 C 17.203125 -0.0390625 16.007812 -0.0664062 14.6875 -0.078125 C 13.363281 -0.0859375 12.1875 -0.09375 11.15625 -0.09375 C 10.644531 -0.09375 9.984375 -0.09375 9.171875 -0.09375 C 8.367188 -0.09375 7.5 -0.0859375 6.5625 -0.078125 C 5.632812 -0.0664062 4.695312 -0.0546875 3.75 -0.046875 C 2.800781 -0.0351562 1.898438 -0.0195312 1.046875 0 L 1.046875 -0.625 C 1.710938 -0.664062 2.207031 -0.742188 2.53125 -0.859375 C 2.863281 -0.984375 3.085938 -1.234375 3.203125 -1.609375 C 3.316406 -1.984375 3.375 -2.539062 3.375 -3.28125 L 3.375 -18.65625 C 3.375 -19.425781 3.316406 -19.988281 3.203125 -20.34375 C 3.085938 -20.707031 2.859375 -20.957031 2.515625 -21.09375 C 2.179688 -21.226562 1.691406 -21.304688 1.046875 -21.328125 L 1.046875 -21.953125 C 1.898438 -21.929688 2.800781 -21.914062 3.75 -21.90625 C 4.695312 -21.894531 5.632812 -21.882812 6.5625 -21.875 C 7.5 -21.863281 8.367188 -21.859375 9.171875 -21.859375 C 9.984375 -21.859375 10.644531 -21.859375 11.15625 -21.859375 C 12.113281 -21.859375 13.195312 -21.863281 14.40625 -21.875 C 15.613281 -21.882812 16.691406 -21.910156 17.640625 -21.953125 Z M 12.796875 -11.34375 C 12.796875 -11.34375 12.796875 -11.238281 12.796875 -11.03125 C 12.796875 -10.820312 12.796875 -10.71875 12.796875 -10.71875 L 7.375 -10.71875 C 7.375 -10.71875 7.375 -10.820312 7.375 -11.03125 C 7.375 -11.238281 7.375 -11.34375 7.375 -11.34375 Z M 13.703125 -15.4375 C 13.617188 -14.257812 13.582031 -13.359375 13.59375 -12.734375 C 13.601562 -12.117188 13.609375 -11.550781 13.609375 -11.03125 C 13.609375 -10.519531 13.617188 -9.953125 13.640625 -9.328125 C 13.660156 -8.710938 13.710938 -7.816406 13.796875 -6.640625 L 13.078125 -6.640625 C 12.972656 -7.359375 12.78125 -8.023438 12.5 -8.640625 C 12.226562 -9.265625 11.832031 -9.765625 11.3125 -10.140625 C 10.800781 -10.523438 10.128906 -10.71875 9.296875 -10.71875 L 9.296875 -11.34375 C 9.921875 -11.34375 10.445312 -11.472656 10.875 -11.734375 C 11.3125 -11.992188 11.671875 -12.332031 11.953125 -12.75 C 12.234375 -13.175781 12.453125 -13.625 12.609375 -14.09375 C 12.773438 -14.570312 12.898438 -15.019531 12.984375 -15.4375 Z M 13.703125 -15.4375 "/></g></g></g><g fill="#1e5234" fill-opacity="1"><g transform="translate(63.562697, 252.359045)"><g><path d="M 3.515625 -9.859375 C 3.972656 -9.859375 4.316406 -9.804688 4.546875 -9.703125 C 4.785156 -9.597656 5 -9.484375 5.1875 -9.359375 C 5.289062 -9.296875 5.378906 -9.25 5.453125 -9.21875 C 5.523438 -9.1875 5.59375 -9.171875 5.65625 -9.171875 C 5.75 -9.171875 5.8125 -9.21875 5.84375 -9.3125 C 5.882812 -9.414062 5.921875 -9.566406 5.953125 -9.765625 L 6.265625 -9.765625 C 6.253906 -9.609375 6.242188 -9.421875 6.234375 -9.203125 C 6.222656 -8.992188 6.210938 -8.710938 6.203125 -8.359375 C 6.203125 -8.003906 6.203125 -7.539062 6.203125 -6.96875 L 5.890625 -6.96875 C 5.859375 -7.40625 5.757812 -7.820312 5.59375 -8.21875 C 5.425781 -8.625 5.1875 -8.957031 4.875 -9.21875 C 4.5625 -9.476562 4.148438 -9.609375 3.640625 -9.609375 C 3.148438 -9.609375 2.75 -9.457031 2.4375 -9.15625 C 2.125 -8.863281 1.96875 -8.484375 1.96875 -8.015625 C 1.96875 -7.597656 2.070312 -7.25 2.28125 -6.96875 C 2.488281 -6.695312 2.769531 -6.445312 3.125 -6.21875 C 3.476562 -6 3.859375 -5.757812 4.265625 -5.5 C 4.742188 -5.207031 5.164062 -4.914062 5.53125 -4.625 C 5.90625 -4.34375 6.195312 -4.023438 6.40625 -3.671875 C 6.625 -3.328125 6.734375 -2.910156 6.734375 -2.421875 C 6.734375 -1.828125 6.597656 -1.335938 6.328125 -0.953125 C 6.066406 -0.578125 5.71875 -0.289062 5.28125 -0.09375 C 4.84375 0.09375 4.359375 0.1875 3.828125 0.1875 C 3.335938 0.1875 2.953125 0.128906 2.671875 0.015625 C 2.390625 -0.0859375 2.148438 -0.195312 1.953125 -0.3125 C 1.742188 -0.4375 1.585938 -0.5 1.484375 -0.5 C 1.390625 -0.5 1.320312 -0.445312 1.28125 -0.34375 C 1.238281 -0.25 1.207031 -0.101562 1.1875 0.09375 L 0.859375 0.09375 C 0.878906 -0.09375 0.890625 -0.316406 0.890625 -0.578125 C 0.898438 -0.835938 0.90625 -1.175781 0.90625 -1.59375 C 0.914062 -2.019531 0.921875 -2.554688 0.921875 -3.203125 L 1.234375 -3.203125 C 1.273438 -2.648438 1.378906 -2.132812 1.546875 -1.65625 C 1.710938 -1.1875 1.972656 -0.804688 2.328125 -0.515625 C 2.679688 -0.222656 3.148438 -0.078125 3.734375 -0.078125 C 4.035156 -0.078125 4.320312 -0.140625 4.59375 -0.265625 C 4.863281 -0.390625 5.082031 -0.585938 5.25 -0.859375 C 5.425781 -1.128906 5.515625 -1.476562 5.515625 -1.90625 C 5.515625 -2.28125 5.425781 -2.609375 5.25 -2.890625 C 5.070312 -3.171875 4.820312 -3.429688 4.5 -3.671875 C 4.175781 -3.910156 3.800781 -4.160156 3.375 -4.421875 C 2.945312 -4.679688 2.546875 -4.945312 2.171875 -5.21875 C 1.796875 -5.5 1.492188 -5.816406 1.265625 -6.171875 C 1.046875 -6.535156 0.9375 -6.972656 0.9375 -7.484375 C 0.9375 -8.023438 1.054688 -8.472656 1.296875 -8.828125 C 1.535156 -9.179688 1.851562 -9.441406 2.25 -9.609375 C 2.644531 -9.773438 3.066406 -9.859375 3.515625 -9.859375 Z M 3.515625 -9.859375 "/></g></g></g><g fill="#1e5234" fill-opacity="1"><g transform="translate(70.972963, 252.359045)"><g><path d="M 1.96875 -10.5 C 2.207031 -10.5 2.410156 -10.410156 2.578125 -10.234375 C 2.753906 -10.054688 2.84375 -9.847656 2.84375 -9.609375 C 2.84375 -9.378906 2.753906 -9.175781 2.578125 -9 C 2.410156 -8.820312 2.207031 -8.734375 1.96875 -8.734375 C 1.726562 -8.734375 1.519531 -8.820312 1.34375 -9 C 1.175781 -9.175781 1.09375 -9.378906 1.09375 -9.609375 C 1.09375 -9.847656 1.175781 -10.054688 1.34375 -10.234375 C 1.519531 -10.410156 1.726562 -10.5 1.96875 -10.5 Z M 2.671875 -7.21875 L 2.671875 -1.28125 C 2.671875 -0.894531 2.75 -0.628906 2.90625 -0.484375 C 3.070312 -0.347656 3.34375 -0.28125 3.71875 -0.28125 L 3.71875 0 C 3.5625 -0.0078125 3.320312 -0.0195312 3 -0.03125 C 2.6875 -0.0507812 2.375 -0.0625 2.0625 -0.0625 C 1.75 -0.0625 1.429688 -0.0507812 1.109375 -0.03125 C 0.785156 -0.0195312 0.546875 -0.0078125 0.390625 0 L 0.390625 -0.28125 C 0.765625 -0.28125 1.03125 -0.347656 1.1875 -0.484375 C 1.351562 -0.628906 1.4375 -0.894531 1.4375 -1.28125 L 1.4375 -5.5625 C 1.4375 -5.976562 1.363281 -6.285156 1.21875 -6.484375 C 1.070312 -6.679688 0.796875 -6.78125 0.390625 -6.78125 L 0.390625 -7.0625 C 0.691406 -7.039062 0.976562 -7.03125 1.25 -7.03125 C 1.507812 -7.03125 1.757812 -7.046875 2 -7.078125 C 2.25 -7.109375 2.472656 -7.15625 2.671875 -7.21875 Z M 2.671875 -7.21875 "/></g></g></g><g fill="#1e5234" fill-opacity="1"><g transform="translate(74.993719, 252.359045)"><g><path d="M 2.859375 -7.25 C 3.222656 -7.25 3.53125 -7.191406 3.78125 -7.078125 C 4.039062 -6.960938 4.226562 -6.851562 4.34375 -6.75 C 4.644531 -6.5 4.828125 -6.664062 4.890625 -7.25 L 5.21875 -7.25 C 5.195312 -6.988281 5.179688 -6.679688 5.171875 -6.328125 C 5.160156 -5.972656 5.15625 -5.5 5.15625 -4.90625 L 4.84375 -4.90625 C 4.789062 -5.25 4.695312 -5.578125 4.5625 -5.890625 C 4.425781 -6.210938 4.226562 -6.476562 3.96875 -6.6875 C 3.71875 -6.894531 3.390625 -7 2.984375 -7 C 2.660156 -7 2.390625 -6.910156 2.171875 -6.734375 C 1.960938 -6.554688 1.859375 -6.289062 1.859375 -5.9375 C 1.859375 -5.664062 1.9375 -5.429688 2.09375 -5.234375 C 2.257812 -5.035156 2.472656 -4.851562 2.734375 -4.6875 C 3.003906 -4.519531 3.296875 -4.332031 3.609375 -4.125 C 3.953125 -3.90625 4.265625 -3.679688 4.546875 -3.453125 C 4.835938 -3.222656 5.066406 -2.972656 5.234375 -2.703125 C 5.398438 -2.429688 5.484375 -2.109375 5.484375 -1.734375 C 5.484375 -1.304688 5.375 -0.953125 5.15625 -0.671875 C 4.9375 -0.390625 4.648438 -0.175781 4.296875 -0.03125 C 3.941406 0.113281 3.554688 0.1875 3.140625 0.1875 C 2.941406 0.1875 2.753906 0.171875 2.578125 0.140625 C 2.398438 0.109375 2.226562 0.0625 2.0625 0 C 1.96875 -0.0390625 1.867188 -0.09375 1.765625 -0.15625 C 1.671875 -0.226562 1.582031 -0.300781 1.5 -0.375 C 1.40625 -0.445312 1.320312 -0.441406 1.25 -0.359375 C 1.175781 -0.285156 1.117188 -0.132812 1.078125 0.09375 L 0.765625 0.09375 C 0.785156 -0.195312 0.800781 -0.550781 0.8125 -0.96875 C 0.820312 -1.394531 0.828125 -1.953125 0.828125 -2.640625 L 1.140625 -2.640625 C 1.203125 -2.128906 1.289062 -1.679688 1.40625 -1.296875 C 1.53125 -0.921875 1.71875 -0.625 1.96875 -0.40625 C 2.226562 -0.1875 2.585938 -0.078125 3.046875 -0.078125 C 3.222656 -0.078125 3.40625 -0.117188 3.59375 -0.203125 C 3.78125 -0.285156 3.9375 -0.421875 4.0625 -0.609375 C 4.195312 -0.804688 4.265625 -1.066406 4.265625 -1.390625 C 4.265625 -1.785156 4.117188 -2.109375 3.828125 -2.359375 C 3.535156 -2.617188 3.164062 -2.894531 2.71875 -3.1875 C 2.382812 -3.394531 2.070312 -3.601562 1.78125 -3.8125 C 1.5 -4.019531 1.269531 -4.253906 1.09375 -4.515625 C 0.914062 -4.785156 0.828125 -5.109375 0.828125 -5.484375 C 0.828125 -5.898438 0.921875 -6.238281 1.109375 -6.5 C 1.296875 -6.757812 1.539062 -6.945312 1.84375 -7.0625 C 2.15625 -7.1875 2.492188 -7.25 2.859375 -7.25 Z M 2.859375 -7.25 "/></g></g></g><g fill="#1e5234" fill-opacity="1"><g transform="translate(81.127775, 252.359045)"><g><path d="M 2.609375 -9.34375 L 2.609375 -7.046875 L 4.640625 -7.046875 L 4.640625 -6.78125 L 2.609375 -6.78125 L 2.609375 -1.46875 C 2.609375 -1.039062 2.6875 -0.738281 2.84375 -0.5625 C 3 -0.382812 3.210938 -0.296875 3.484375 -0.296875 C 3.753906 -0.296875 3.988281 -0.40625 4.1875 -0.625 C 4.394531 -0.851562 4.570312 -1.234375 4.71875 -1.765625 L 5 -1.703125 C 4.90625 -1.171875 4.722656 -0.722656 4.453125 -0.359375 C 4.179688 0.00390625 3.765625 0.1875 3.203125 0.1875 C 2.898438 0.1875 2.644531 0.144531 2.4375 0.0625 C 2.238281 -0.0078125 2.0625 -0.117188 1.90625 -0.265625 C 1.707031 -0.472656 1.566406 -0.722656 1.484375 -1.015625 C 1.410156 -1.304688 1.375 -1.695312 1.375 -2.1875 L 1.375 -6.78125 L 0.0625 -6.78125 L 0.0625 -7.046875 L 1.375 -7.046875 L 1.375 -9.15625 C 1.601562 -9.164062 1.820312 -9.179688 2.03125 -9.203125 C 2.238281 -9.234375 2.429688 -9.28125 2.609375 -9.34375 Z M 2.609375 -9.34375 "/></g></g></g><g fill="#1e5234" fill-opacity="1"><g transform="translate(85.98562, 252.359045)"><g><path d="M 3.734375 -7.25 C 4.535156 -7.25 5.160156 -7.003906 5.609375 -6.515625 C 6.066406 -6.035156 6.296875 -5.273438 6.296875 -4.234375 L 1.453125 -4.234375 L 1.4375 -4.5 L 4.984375 -4.5 C 4.992188 -4.945312 4.953125 -5.359375 4.859375 -5.734375 C 4.773438 -6.117188 4.632812 -6.425781 4.4375 -6.65625 C 4.238281 -6.882812 3.984375 -7 3.671875 -7 C 3.253906 -7 2.882812 -6.785156 2.5625 -6.359375 C 2.238281 -5.941406 2.039062 -5.273438 1.96875 -4.359375 L 2.015625 -4.3125 C 1.992188 -4.175781 1.976562 -4.023438 1.96875 -3.859375 C 1.96875 -3.691406 1.96875 -3.523438 1.96875 -3.359375 C 1.96875 -2.734375 2.066406 -2.195312 2.265625 -1.75 C 2.460938 -1.300781 2.722656 -0.960938 3.046875 -0.734375 C 3.378906 -0.503906 3.71875 -0.390625 4.0625 -0.390625 C 4.332031 -0.390625 4.59375 -0.429688 4.84375 -0.515625 C 5.09375 -0.597656 5.320312 -0.738281 5.53125 -0.9375 C 5.738281 -1.144531 5.921875 -1.414062 6.078125 -1.75 L 6.359375 -1.640625 C 6.253906 -1.335938 6.085938 -1.046875 5.859375 -0.765625 C 5.628906 -0.484375 5.335938 -0.253906 4.984375 -0.078125 C 4.640625 0.0976562 4.238281 0.1875 3.78125 0.1875 C 3.125 0.1875 2.5625 0.0351562 2.09375 -0.265625 C 1.625 -0.566406 1.257812 -0.984375 1 -1.515625 C 0.75 -2.046875 0.625 -2.660156 0.625 -3.359375 C 0.625 -4.160156 0.753906 -4.851562 1.015625 -5.4375 C 1.273438 -6.019531 1.632812 -6.46875 2.09375 -6.78125 C 2.5625 -7.09375 3.109375 -7.25 3.734375 -7.25 Z M 3.734375 -7.25 "/></g></g></g><g fill="#1e5234" fill-opacity="1"><g transform="translate(92.929311, 252.359045)"><g><path d="M 4.921875 -7.25 C 5.242188 -7.25 5.523438 -7.203125 5.765625 -7.109375 C 6.003906 -7.023438 6.203125 -6.898438 6.359375 -6.734375 C 6.523438 -6.554688 6.640625 -6.316406 6.703125 -6.015625 C 6.765625 -5.722656 6.796875 -5.363281 6.796875 -4.9375 L 6.796875 -1.28125 C 6.796875 -0.894531 6.875 -0.628906 7.03125 -0.484375 C 7.195312 -0.347656 7.46875 -0.28125 7.84375 -0.28125 L 7.84375 0 C 7.6875 -0.0078125 7.445312 -0.0195312 7.125 -0.03125 C 6.8125 -0.0507812 6.503906 -0.0625 6.203125 -0.0625 C 5.898438 -0.0625 5.601562 -0.0507812 5.3125 -0.03125 C 5.03125 -0.0195312 4.816406 -0.0078125 4.671875 0 L 4.671875 -0.28125 C 4.992188 -0.28125 5.222656 -0.347656 5.359375 -0.484375 C 5.492188 -0.628906 5.5625 -0.894531 5.5625 -1.28125 L 5.5625 -5.234375 C 5.5625 -5.523438 5.539062 -5.785156 5.5 -6.015625 C 5.46875 -6.253906 5.378906 -6.445312 5.234375 -6.59375 C 5.085938 -6.738281 4.851562 -6.8125 4.53125 -6.8125 C 4.164062 -6.8125 3.84375 -6.703125 3.5625 -6.484375 C 3.289062 -6.265625 3.070312 -5.960938 2.90625 -5.578125 C 2.75 -5.203125 2.671875 -4.785156 2.671875 -4.328125 L 2.671875 -1.28125 C 2.671875 -0.894531 2.738281 -0.628906 2.875 -0.484375 C 3.019531 -0.347656 3.253906 -0.28125 3.578125 -0.28125 L 3.578125 0 C 3.429688 -0.0078125 3.210938 -0.0195312 2.921875 -0.03125 C 2.640625 -0.0507812 2.347656 -0.0625 2.046875 -0.0625 C 1.742188 -0.0625 1.429688 -0.0507812 1.109375 -0.03125 C 0.785156 -0.0195312 0.546875 -0.0078125 0.390625 0 L 0.390625 -0.28125 C 0.765625 -0.28125 1.03125 -0.347656 1.1875 -0.484375 C 1.351562 -0.628906 1.4375 -0.894531 1.4375 -1.28125 L 1.4375 -5.5625 C 1.4375 -5.976562 1.363281 -6.285156 1.21875 -6.484375 C 1.070312 -6.679688 0.796875 -6.78125 0.390625 -6.78125 L 0.390625 -7.0625 C 0.691406 -7.039062 0.976562 -7.03125 1.25 -7.03125 C 1.507812 -7.03125 1.757812 -7.046875 2 -7.078125 C 2.25 -7.109375 2.472656 -7.15625 2.671875 -7.21875 L 2.671875 -5.59375 C 2.910156 -6.1875 3.234375 -6.609375 3.640625 -6.859375 C 4.054688 -7.117188 4.484375 -7.25 4.921875 -7.25 Z M 9.046875 -7.25 C 9.367188 -7.25 9.648438 -7.203125 9.890625 -7.109375 C 10.128906 -7.023438 10.328125 -6.898438 10.484375 -6.734375 C 10.648438 -6.554688 10.765625 -6.316406 10.828125 -6.015625 C 10.898438 -5.722656 10.9375 -5.363281 10.9375 -4.9375 L 10.9375 -1.28125 C 10.9375 -0.894531 11.015625 -0.628906 11.171875 -0.484375 C 11.335938 -0.347656 11.601562 -0.28125 11.96875 -0.28125 L 11.96875 0 C 11.820312 -0.0078125 11.585938 -0.0195312 11.265625 -0.03125 C 10.941406 -0.0507812 10.628906 -0.0625 10.328125 -0.0625 C 10.023438 -0.0625 9.726562 -0.0507812 9.4375 -0.03125 C 9.15625 -0.0195312 8.941406 -0.0078125 8.796875 0 L 8.796875 -0.28125 C 9.117188 -0.28125 9.347656 -0.347656 9.484375 -0.484375 C 9.628906 -0.628906 9.703125 -0.894531 9.703125 -1.28125 L 9.703125 -5.234375 C 9.703125 -5.523438 9.679688 -5.785156 9.640625 -6.015625 C 9.609375 -6.253906 9.519531 -6.445312 9.375 -6.59375 C 9.226562 -6.738281 8.988281 -6.8125 8.65625 -6.8125 C 8.300781 -6.8125 7.984375 -6.703125 7.703125 -6.484375 C 7.421875 -6.265625 7.195312 -5.96875 7.03125 -5.59375 C 6.875 -5.21875 6.796875 -4.796875 6.796875 -4.328125 L 6.765625 -5.609375 C 7.015625 -6.242188 7.347656 -6.675781 7.765625 -6.90625 C 8.179688 -7.132812 8.609375 -7.25 9.046875 -7.25 Z M 9.046875 -7.25 "/></g></g></g><g fill="#1e5234" fill-opacity="1"><g transform="translate(105.115082, 252.359045)"><g><path d="M 2.34375 0.09375 C 1.96875 0.09375 1.640625 0.0234375 1.359375 -0.109375 C 1.085938 -0.253906 0.878906 -0.453125 0.734375 -0.703125 C 0.597656 -0.960938 0.53125 -1.265625 0.53125 -1.609375 C 0.53125 -2.003906 0.625 -2.332031 0.8125 -2.59375 C 1 -2.851562 1.238281 -3.054688 1.53125 -3.203125 C 1.820312 -3.359375 2.128906 -3.488281 2.453125 -3.59375 C 2.785156 -3.707031 3.097656 -3.8125 3.390625 -3.90625 C 3.679688 -4 3.921875 -4.109375 4.109375 -4.234375 C 4.296875 -4.367188 4.390625 -4.539062 4.390625 -4.75 L 4.390625 -5.59375 C 4.390625 -5.976562 4.332031 -6.269531 4.21875 -6.46875 C 4.101562 -6.675781 3.945312 -6.8125 3.75 -6.875 C 3.5625 -6.945312 3.347656 -6.984375 3.109375 -6.984375 C 2.878906 -6.984375 2.632812 -6.953125 2.375 -6.890625 C 2.113281 -6.828125 1.90625 -6.691406 1.75 -6.484375 C 1.925781 -6.453125 2.078125 -6.363281 2.203125 -6.21875 C 2.335938 -6.070312 2.40625 -5.882812 2.40625 -5.65625 C 2.40625 -5.425781 2.332031 -5.242188 2.1875 -5.109375 C 2.039062 -4.972656 1.851562 -4.90625 1.625 -4.90625 C 1.351562 -4.90625 1.15625 -4.988281 1.03125 -5.15625 C 0.90625 -5.332031 0.84375 -5.523438 0.84375 -5.734375 C 0.84375 -5.972656 0.898438 -6.164062 1.015625 -6.3125 C 1.140625 -6.457031 1.296875 -6.59375 1.484375 -6.71875 C 1.691406 -6.863281 1.960938 -6.988281 2.296875 -7.09375 C 2.628906 -7.195312 3.007812 -7.25 3.4375 -7.25 C 3.800781 -7.25 4.113281 -7.207031 4.375 -7.125 C 4.644531 -7.039062 4.867188 -6.914062 5.046875 -6.75 C 5.285156 -6.53125 5.441406 -6.257812 5.515625 -5.9375 C 5.585938 -5.625 5.625 -5.25 5.625 -4.8125 L 5.625 -1 C 5.625 -0.769531 5.65625 -0.601562 5.71875 -0.5 C 5.789062 -0.40625 5.898438 -0.359375 6.046875 -0.359375 C 6.148438 -0.359375 6.242188 -0.378906 6.328125 -0.421875 C 6.421875 -0.472656 6.535156 -0.546875 6.671875 -0.640625 L 6.8125 -0.40625 C 6.625 -0.257812 6.441406 -0.140625 6.265625 -0.046875 C 6.097656 0.046875 5.863281 0.09375 5.5625 0.09375 C 5.300781 0.09375 5.082031 0.0507812 4.90625 -0.03125 C 4.738281 -0.125 4.609375 -0.257812 4.515625 -0.4375 C 4.429688 -0.625 4.390625 -0.851562 4.390625 -1.125 C 4.140625 -0.707031 3.84375 -0.398438 3.5 -0.203125 C 3.15625 -0.00390625 2.769531 0.09375 2.34375 0.09375 Z M 2.84375 -0.453125 C 3.144531 -0.453125 3.425781 -0.535156 3.6875 -0.703125 C 3.945312 -0.878906 4.179688 -1.144531 4.390625 -1.5 L 4.390625 -4.1875 C 4.273438 -4.03125 4.113281 -3.898438 3.90625 -3.796875 C 3.695312 -3.691406 3.46875 -3.582031 3.21875 -3.46875 C 2.976562 -3.363281 2.742188 -3.238281 2.515625 -3.09375 C 2.296875 -2.957031 2.113281 -2.773438 1.96875 -2.546875 C 1.820312 -2.316406 1.75 -2.019531 1.75 -1.65625 C 1.75 -1.289062 1.84375 -1 2.03125 -0.78125 C 2.226562 -0.5625 2.5 -0.453125 2.84375 -0.453125 Z M 2.84375 -0.453125 "/></g></g></g><g fill="#1e5234" fill-opacity="1"><g transform="translate(111.948989, 252.359045)"><g/></g></g><g fill="#1e5234" fill-opacity="1"><g transform="translate(115.365943, 252.359045)"><g><path d="M 6.640625 -10.75 L 6.640625 -1.5 C 6.640625 -1.082031 6.710938 -0.773438 6.859375 -0.578125 C 7.015625 -0.378906 7.289062 -0.28125 7.6875 -0.28125 L 7.6875 0 C 7.394531 -0.03125 7.109375 -0.046875 6.828125 -0.046875 C 6.566406 -0.046875 6.3125 -0.03125 6.0625 0 C 5.820312 0.03125 5.601562 0.0820312 5.40625 0.15625 L 5.40625 -9.109375 C 5.40625 -9.523438 5.332031 -9.828125 5.1875 -10.015625 C 5.039062 -10.210938 4.765625 -10.3125 4.359375 -10.3125 L 4.359375 -10.609375 C 4.648438 -10.578125 4.9375 -10.5625 5.21875 -10.5625 C 5.476562 -10.5625 5.726562 -10.578125 5.96875 -10.609375 C 6.21875 -10.640625 6.441406 -10.6875 6.640625 -10.75 Z M 3.765625 -7.25 C 4.160156 -7.25 4.535156 -7.15625 4.890625 -6.96875 C 5.242188 -6.78125 5.476562 -6.453125 5.59375 -5.984375 L 5.421875 -5.84375 C 5.296875 -6.226562 5.097656 -6.503906 4.828125 -6.671875 C 4.554688 -6.847656 4.238281 -6.9375 3.875 -6.9375 C 3.332031 -6.9375 2.878906 -6.65625 2.515625 -6.09375 C 2.148438 -5.539062 1.972656 -4.6875 1.984375 -3.53125 C 1.984375 -2.789062 2.054688 -2.175781 2.203125 -1.6875 C 2.347656 -1.195312 2.554688 -0.828125 2.828125 -0.578125 C 3.109375 -0.335938 3.453125 -0.21875 3.859375 -0.21875 C 4.242188 -0.21875 4.585938 -0.378906 4.890625 -0.703125 C 5.203125 -1.035156 5.390625 -1.523438 5.453125 -2.171875 L 5.625 -1.96875 C 5.550781 -1.28125 5.328125 -0.75 4.953125 -0.375 C 4.585938 0 4.085938 0.1875 3.453125 0.1875 C 2.890625 0.1875 2.394531 0.0507812 1.96875 -0.21875 C 1.539062 -0.488281 1.210938 -0.898438 0.984375 -1.453125 C 0.765625 -2.003906 0.65625 -2.695312 0.65625 -3.53125 C 0.65625 -4.363281 0.796875 -5.054688 1.078125 -5.609375 C 1.367188 -6.160156 1.75 -6.570312 2.21875 -6.84375 C 2.695312 -7.113281 3.210938 -7.25 3.765625 -7.25 Z M 3.765625 -7.25 "/></g></g></g><g fill="#1e5234" fill-opacity="1"><g transform="translate(123.338847, 252.359045)"><g><path d="M 3.734375 -7.25 C 4.535156 -7.25 5.160156 -7.003906 5.609375 -6.515625 C 6.066406 -6.035156 6.296875 -5.273438 6.296875 -4.234375 L 1.453125 -4.234375 L 1.4375 -4.5 L 4.984375 -4.5 C 4.992188 -4.945312 4.953125 -5.359375 4.859375 -5.734375 C 4.773438 -6.117188 4.632812 -6.425781 4.4375 -6.65625 C 4.238281 -6.882812 3.984375 -7 3.671875 -7 C 3.253906 -7 2.882812 -6.785156 2.5625 -6.359375 C 2.238281 -5.941406 2.039062 -5.273438 1.96875 -4.359375 L 2.015625 -4.3125 C 1.992188 -4.175781 1.976562 -4.023438 1.96875 -3.859375 C 1.96875 -3.691406 1.96875 -3.523438 1.96875 -3.359375 C 1.96875 -2.734375 2.066406 -2.195312 2.265625 -1.75 C 2.460938 -1.300781 2.722656 -0.960938 3.046875 -0.734375 C 3.378906 -0.503906 3.71875 -0.390625 4.0625 -0.390625 C 4.332031 -0.390625 4.59375 -0.429688 4.84375 -0.515625 C 5.09375 -0.597656 5.320312 -0.738281 5.53125 -0.9375 C 5.738281 -1.144531 5.921875 -1.414062 6.078125 -1.75 L 6.359375 -1.640625 C 6.253906 -1.335938 6.085938 -1.046875 5.859375 -0.765625 C 5.628906 -0.484375 5.335938 -0.253906 4.984375 -0.078125 C 4.640625 0.0976562 4.238281 0.1875 3.78125 0.1875 C 3.125 0.1875 2.5625 0.0351562 2.09375 -0.265625 C 1.625 -0.566406 1.257812 -0.984375 1 -1.515625 C 0.75 -2.046875 0.625 -2.660156 0.625 -3.359375 C 0.625 -4.160156 0.753906 -4.851562 1.015625 -5.4375 C 1.273438 -6.019531 1.632812 -6.46875 2.09375 -6.78125 C 2.5625 -7.09375 3.109375 -7.25 3.734375 -7.25 Z M 3.734375 -7.25 "/></g></g></g><g fill="#1e5234" fill-opacity="1"><g transform="translate(130.282537, 252.359045)"><g/></g></g><g fill="#1e5234" fill-opacity="1"><g transform="translate(133.699491, 252.359045)"><g><path d="M 5.15625 -9.90625 C 5.75 -9.90625 6.226562 -9.816406 6.59375 -9.640625 C 6.957031 -9.460938 7.300781 -9.253906 7.625 -9.015625 C 7.75 -8.921875 7.84375 -8.875 7.90625 -8.875 C 8.070312 -8.875 8.1875 -9.15625 8.25 -9.71875 L 8.5625 -9.71875 C 8.539062 -9.375 8.523438 -8.957031 8.515625 -8.46875 C 8.503906 -7.988281 8.5 -7.351562 8.5 -6.5625 L 8.1875 -6.5625 C 8.125 -6.945312 8.046875 -7.316406 7.953125 -7.671875 C 7.859375 -8.023438 7.707031 -8.332031 7.5 -8.59375 C 7.238281 -8.925781 6.890625 -9.1875 6.453125 -9.375 C 6.023438 -9.5625 5.582031 -9.65625 5.125 -9.65625 C 4.664062 -9.65625 4.25 -9.539062 3.875 -9.3125 C 3.507812 -9.09375 3.191406 -8.769531 2.921875 -8.34375 C 2.660156 -7.925781 2.457031 -7.421875 2.3125 -6.828125 C 2.175781 -6.242188 2.109375 -5.582031 2.109375 -4.84375 C 2.109375 -3.195312 2.375 -1.988281 2.90625 -1.21875 C 3.4375 -0.457031 4.257812 -0.078125 5.375 -0.078125 C 5.707031 -0.078125 5.992188 -0.125 6.234375 -0.21875 C 6.472656 -0.320312 6.660156 -0.414062 6.796875 -0.5 C 6.972656 -0.625 7.082031 -0.738281 7.125 -0.84375 C 7.175781 -0.945312 7.203125 -1.085938 7.203125 -1.265625 L 7.203125 -2.578125 C 7.203125 -2.953125 7.164062 -3.226562 7.09375 -3.40625 C 7.019531 -3.59375 6.882812 -3.71875 6.6875 -3.78125 C 6.488281 -3.84375 6.195312 -3.878906 5.8125 -3.890625 L 5.8125 -4.171875 C 5.976562 -4.160156 6.171875 -4.148438 6.390625 -4.140625 C 6.609375 -4.140625 6.835938 -4.132812 7.078125 -4.125 C 7.328125 -4.125 7.550781 -4.125 7.75 -4.125 C 8.050781 -4.125 8.320312 -4.128906 8.5625 -4.140625 C 8.8125 -4.148438 9.015625 -4.160156 9.171875 -4.171875 L 9.171875 -3.890625 C 8.972656 -3.878906 8.820312 -3.847656 8.71875 -3.796875 C 8.625 -3.742188 8.5625 -3.632812 8.53125 -3.46875 C 8.5 -3.300781 8.484375 -3.050781 8.484375 -2.71875 L 8.484375 0 L 8.203125 0 C 8.191406 -0.15625 8.15625 -0.320312 8.09375 -0.5 C 8.039062 -0.6875 7.953125 -0.78125 7.828125 -0.78125 C 7.773438 -0.78125 7.722656 -0.765625 7.671875 -0.734375 C 7.617188 -0.710938 7.519531 -0.648438 7.375 -0.546875 C 7.070312 -0.316406 6.75 -0.132812 6.40625 0 C 6.070312 0.125 5.679688 0.1875 5.234375 0.1875 C 4.296875 0.1875 3.488281 -0.00390625 2.8125 -0.390625 C 2.144531 -0.773438 1.628906 -1.332031 1.265625 -2.0625 C 0.910156 -2.800781 0.734375 -3.675781 0.734375 -4.6875 C 0.734375 -5.757812 0.925781 -6.679688 1.3125 -7.453125 C 1.695312 -8.234375 2.21875 -8.835938 2.875 -9.265625 C 3.539062 -9.691406 4.300781 -9.90625 5.15625 -9.90625 Z M 5.15625 -9.90625 "/></g></g></g><g fill="#1e5234" fill-opacity="1"><g transform="translate(143.346563, 252.359045)"><g><path d="M 3.734375 -7.25 C 4.535156 -7.25 5.160156 -7.003906 5.609375 -6.515625 C 6.066406 -6.035156 6.296875 -5.273438 6.296875 -4.234375 L 1.453125 -4.234375 L 1.4375 -4.5 L 4.984375 -4.5 C 4.992188 -4.945312 4.953125 -5.359375 4.859375 -5.734375 C 4.773438 -6.117188 4.632812 -6.425781 4.4375 -6.65625 C 4.238281 -6.882812 3.984375 -7 3.671875 -7 C 3.253906 -7 2.882812 -6.785156 2.5625 -6.359375 C 2.238281 -5.941406 2.039062 -5.273438 1.96875 -4.359375 L 2.015625 -4.3125 C 1.992188 -4.175781 1.976562 -4.023438 1.96875 -3.859375 C 1.96875 -3.691406 1.96875 -3.523438 1.96875 -3.359375 C 1.96875 -2.734375 2.066406 -2.195312 2.265625 -1.75 C 2.460938 -1.300781 2.722656 -0.960938 3.046875 -0.734375 C 3.378906 -0.503906 3.71875 -0.390625 4.0625 -0.390625 C 4.332031 -0.390625 4.59375 -0.429688 4.84375 -0.515625 C 5.09375 -0.597656 5.320312 -0.738281 5.53125 -0.9375 C 5.738281 -1.144531 5.921875 -1.414062 6.078125 -1.75 L 6.359375 -1.640625 C 6.253906 -1.335938 6.085938 -1.046875 5.859375 -0.765625 C 5.628906 -0.484375 5.335938 -0.253906 4.984375 -0.078125 C 4.640625 0.0976562 4.238281 0.1875 3.78125 0.1875 C 3.125 0.1875 2.5625 0.0351562 2.09375 -0.265625 C 1.625 -0.566406 1.257812 -0.984375 1 -1.515625 C 0.75 -2.046875 0.625 -2.660156 0.625 -3.359375 C 0.625 -4.160156 0.753906 -4.851562 1.015625 -5.4375 C 1.273438 -6.019531 1.632812 -6.46875 2.09375 -6.78125 C 2.5625 -7.09375 3.109375 -7.25 3.734375 -7.25 Z M 3.734375 -7.25 "/></g></g></g><g fill="#1e5234" fill-opacity="1"><g transform="translate(150.290253, 252.359045)"><g><path d="M 2.859375 -7.25 C 3.222656 -7.25 3.53125 -7.191406 3.78125 -7.078125 C 4.039062 -6.960938 4.226562 -6.851562 4.34375 -6.75 C 4.644531 -6.5 4.828125 -6.664062 4.890625 -7.25 L 5.21875 -7.25 C 5.195312 -6.988281 5.179688 -6.679688 5.171875 -6.328125 C 5.160156 -5.972656 5.15625 -5.5 5.15625 -4.90625 L 4.84375 -4.90625 C 4.789062 -5.25 4.695312 -5.578125 4.5625 -5.890625 C 4.425781 -6.210938 4.226562 -6.476562 3.96875 -6.6875 C 3.71875 -6.894531 3.390625 -7 2.984375 -7 C 2.660156 -7 2.390625 -6.910156 2.171875 -6.734375 C 1.960938 -6.554688 1.859375 -6.289062 1.859375 -5.9375 C 1.859375 -5.664062 1.9375 -5.429688 2.09375 -5.234375 C 2.257812 -5.035156 2.472656 -4.851562 2.734375 -4.6875 C 3.003906 -4.519531 3.296875 -4.332031 3.609375 -4.125 C 3.953125 -3.90625 4.265625 -3.679688 4.546875 -3.453125 C 4.835938 -3.222656 5.066406 -2.972656 5.234375 -2.703125 C 5.398438 -2.429688 5.484375 -2.109375 5.484375 -1.734375 C 5.484375 -1.304688 5.375 -0.953125 5.15625 -0.671875 C 4.9375 -0.390625 4.648438 -0.175781 4.296875 -0.03125 C 3.941406 0.113281 3.554688 0.1875 3.140625 0.1875 C 2.941406 0.1875 2.753906 0.171875 2.578125 0.140625 C 2.398438 0.109375 2.226562 0.0625 2.0625 0 C 1.96875 -0.0390625 1.867188 -0.09375 1.765625 -0.15625 C 1.671875 -0.226562 1.582031 -0.300781 1.5 -0.375 C 1.40625 -0.445312 1.320312 -0.441406 1.25 -0.359375 C 1.175781 -0.285156 1.117188 -0.132812 1.078125 0.09375 L 0.765625 0.09375 C 0.785156 -0.195312 0.800781 -0.550781 0.8125 -0.96875 C 0.820312 -1.394531 0.828125 -1.953125 0.828125 -2.640625 L 1.140625 -2.640625 C 1.203125 -2.128906 1.289062 -1.679688 1.40625 -1.296875 C 1.53125 -0.921875 1.71875 -0.625 1.96875 -0.40625 C 2.226562 -0.1875 2.585938 -0.078125 3.046875 -0.078125 C 3.222656 -0.078125 3.40625 -0.117188 3.59375 -0.203125 C 3.78125 -0.285156 3.9375 -0.421875 4.0625 -0.609375 C 4.195312 -0.804688 4.265625 -1.066406 4.265625 -1.390625 C 4.265625 -1.785156 4.117188 -2.109375 3.828125 -2.359375 C 3.535156 -2.617188 3.164062 -2.894531 2.71875 -3.1875 C 2.382812 -3.394531 2.070312 -3.601562 1.78125 -3.8125 C 1.5 -4.019531 1.269531 -4.253906 1.09375 -4.515625 C 0.914062 -4.785156 0.828125 -5.109375 0.828125 -5.484375 C 0.828125 -5.898438 0.921875 -6.238281 1.109375 -6.5 C 1.296875 -6.757812 1.539062 -6.945312 1.84375 -7.0625 C 2.15625 -7.1875 2.492188 -7.25 2.859375 -7.25 Z M 2.859375 -7.25 "/></g></g></g><g fill="#1e5234" fill-opacity="1"><g transform="translate(156.424309, 252.359045)"><g><path d="M 2.609375 -9.34375 L 2.609375 -7.046875 L 4.640625 -7.046875 L 4.640625 -6.78125 L 2.609375 -6.78125 L 2.609375 -1.46875 C 2.609375 -1.039062 2.6875 -0.738281 2.84375 -0.5625 C 3 -0.382812 3.210938 -0.296875 3.484375 -0.296875 C 3.753906 -0.296875 3.988281 -0.40625 4.1875 -0.625 C 4.394531 -0.851562 4.570312 -1.234375 4.71875 -1.765625 L 5 -1.703125 C 4.90625 -1.171875 4.722656 -0.722656 4.453125 -0.359375 C 4.179688 0.00390625 3.765625 0.1875 3.203125 0.1875 C 2.898438 0.1875 2.644531 0.144531 2.4375 0.0625 C 2.238281 -0.0078125 2.0625 -0.117188 1.90625 -0.265625 C 1.707031 -0.472656 1.566406 -0.722656 1.484375 -1.015625 C 1.410156 -1.304688 1.375 -1.695312 1.375 -2.1875 L 1.375 -6.78125 L 0.0625 -6.78125 L 0.0625 -7.046875 L 1.375 -7.046875 L 1.375 -9.15625 C 1.601562 -9.164062 1.820312 -9.179688 2.03125 -9.203125 C 2.238281 -9.234375 2.429688 -9.28125 2.609375 -9.34375 Z M 2.609375 -9.34375 "/></g></g></g><g fill="#1e5234" fill-opacity="1"><g transform="translate(161.282154, 252.359045)"><g><path d="M 1.96875 -10.5 C 2.207031 -10.5 2.410156 -10.410156 2.578125 -10.234375 C 2.753906 -10.054688 2.84375 -9.847656 2.84375 -9.609375 C 2.84375 -9.378906 2.753906 -9.175781 2.578125 -9 C 2.410156 -8.820312 2.207031 -8.734375 1.96875 -8.734375 C 1.726562 -8.734375 1.519531 -8.820312 1.34375 -9 C 1.175781 -9.175781 1.09375 -9.378906 1.09375 -9.609375 C 1.09375 -9.847656 1.175781 -10.054688 1.34375 -10.234375 C 1.519531 -10.410156 1.726562 -10.5 1.96875 -10.5 Z M 2.671875 -7.21875 L 2.671875 -1.28125 C 2.671875 -0.894531 2.75 -0.628906 2.90625 -0.484375 C 3.070312 -0.347656 3.34375 -0.28125 3.71875 -0.28125 L 3.71875 0 C 3.5625 -0.0078125 3.320312 -0.0195312 3 -0.03125 C 2.6875 -0.0507812 2.375 -0.0625 2.0625 -0.0625 C 1.75 -0.0625 1.429688 -0.0507812 1.109375 -0.03125 C 0.785156 -0.0195312 0.546875 -0.0078125 0.390625 0 L 0.390625 -0.28125 C 0.765625 -0.28125 1.03125 -0.347656 1.1875 -0.484375 C 1.351562 -0.628906 1.4375 -0.894531 1.4375 -1.28125 L 1.4375 -5.5625 C 1.4375 -5.976562 1.363281 -6.285156 1.21875 -6.484375 C 1.070312 -6.679688 0.796875 -6.78125 0.390625 -6.78125 L 0.390625 -7.0625 C 0.691406 -7.039062 0.976562 -7.03125 1.25 -7.03125 C 1.507812 -7.03125 1.757812 -7.046875 2 -7.078125 C 2.25 -7.109375 2.472656 -7.15625 2.671875 -7.21875 Z M 2.671875 -7.21875 "/></g></g></g><g fill="#1e5234" fill-opacity="1"><g transform="translate(165.30291, 252.359045)"><g><path d="M 3.765625 -7.25 C 4.347656 -7.25 4.867188 -7.117188 5.328125 -6.859375 C 5.796875 -6.609375 6.171875 -6.207031 6.453125 -5.65625 C 6.734375 -5.113281 6.875 -4.40625 6.875 -3.53125 C 6.875 -2.644531 6.734375 -1.929688 6.453125 -1.390625 C 6.171875 -0.847656 5.796875 -0.445312 5.328125 -0.1875 C 4.867188 0.0625 4.347656 0.1875 3.765625 0.1875 C 3.179688 0.1875 2.65625 0.0625 2.1875 -0.1875 C 1.71875 -0.445312 1.34375 -0.847656 1.0625 -1.390625 C 0.78125 -1.929688 0.640625 -2.644531 0.640625 -3.53125 C 0.640625 -4.40625 0.78125 -5.113281 1.0625 -5.65625 C 1.34375 -6.207031 1.71875 -6.609375 2.1875 -6.859375 C 2.65625 -7.117188 3.179688 -7.25 3.765625 -7.25 Z M 3.765625 -6.984375 C 3.242188 -6.984375 2.8125 -6.710938 2.46875 -6.171875 C 2.132812 -5.628906 1.96875 -4.75 1.96875 -3.53125 C 1.96875 -2.300781 2.132812 -1.414062 2.46875 -0.875 C 2.8125 -0.34375 3.242188 -0.078125 3.765625 -0.078125 C 4.285156 -0.078125 4.710938 -0.34375 5.046875 -0.875 C 5.378906 -1.414062 5.546875 -2.300781 5.546875 -3.53125 C 5.546875 -4.75 5.378906 -5.628906 5.046875 -6.171875 C 4.710938 -6.710938 4.285156 -6.984375 3.765625 -6.984375 Z M 5.265625 -11.15625 C 5.367188 -11.0625 5.425781 -10.941406 5.4375 -10.796875 C 5.457031 -10.648438 5.398438 -10.484375 5.265625 -10.296875 C 5.128906 -10.128906 4.957031 -9.957031 4.75 -9.78125 C 4.550781 -9.601562 4.316406 -9.394531 4.046875 -9.15625 C 3.773438 -8.914062 3.457031 -8.601562 3.09375 -8.21875 L 2.953125 -8.34375 C 3.234375 -8.789062 3.457031 -9.171875 3.625 -9.484375 C 3.789062 -9.804688 3.929688 -10.085938 4.046875 -10.328125 C 4.171875 -10.566406 4.300781 -10.773438 4.4375 -10.953125 C 4.570312 -11.128906 4.710938 -11.226562 4.859375 -11.25 C 5.015625 -11.269531 5.148438 -11.238281 5.265625 -11.15625 Z M 5.265625 -11.15625 "/></g></g></g><g fill="#1e5234" fill-opacity="1"><g transform="translate(172.822959, 252.359045)"><g><path d="M 5 -7.25 C 5.351562 -7.25 5.644531 -7.203125 5.875 -7.109375 C 6.113281 -7.023438 6.3125 -6.898438 6.46875 -6.734375 C 6.632812 -6.554688 6.753906 -6.328125 6.828125 -6.046875 C 6.898438 -5.773438 6.9375 -5.40625 6.9375 -4.9375 L 6.9375 -1.28125 C 6.9375 -0.894531 7.015625 -0.628906 7.171875 -0.484375 C 7.335938 -0.347656 7.609375 -0.28125 7.984375 -0.28125 L 7.984375 0 C 7.828125 -0.0078125 7.585938 -0.0195312 7.265625 -0.03125 C 6.953125 -0.0507812 6.644531 -0.0625 6.34375 -0.0625 C 6.039062 -0.0625 5.742188 -0.0507812 5.453125 -0.03125 C 5.160156 -0.0195312 4.941406 -0.0078125 4.796875 0 L 4.796875 -0.28125 C 5.128906 -0.28125 5.363281 -0.347656 5.5 -0.484375 C 5.632812 -0.628906 5.703125 -0.894531 5.703125 -1.28125 L 5.703125 -5.234375 C 5.703125 -5.523438 5.675781 -5.785156 5.625 -6.015625 C 5.582031 -6.253906 5.484375 -6.445312 5.328125 -6.59375 C 5.171875 -6.738281 4.925781 -6.8125 4.59375 -6.8125 C 4.207031 -6.8125 3.867188 -6.703125 3.578125 -6.484375 C 3.296875 -6.265625 3.070312 -5.960938 2.90625 -5.578125 C 2.75 -5.203125 2.671875 -4.785156 2.671875 -4.328125 L 2.671875 -1.28125 C 2.671875 -0.894531 2.738281 -0.628906 2.875 -0.484375 C 3.019531 -0.347656 3.253906 -0.28125 3.578125 -0.28125 L 3.578125 0 C 3.429688 -0.0078125 3.210938 -0.0195312 2.921875 -0.03125 C 2.640625 -0.0507812 2.347656 -0.0625 2.046875 -0.0625 C 1.742188 -0.0625 1.429688 -0.0507812 1.109375 -0.03125 C 0.785156 -0.0195312 0.546875 -0.0078125 0.390625 0 L 0.390625 -0.28125 C 0.765625 -0.28125 1.03125 -0.347656 1.1875 -0.484375 C 1.351562 -0.628906 1.4375 -0.894531 1.4375 -1.28125 L 1.4375 -5.5625 C 1.4375 -5.976562 1.363281 -6.285156 1.21875 -6.484375 C 1.070312 -6.679688 0.796875 -6.78125 0.390625 -6.78125 L 0.390625 -7.0625 C 0.691406 -7.039062 0.976562 -7.03125 1.25 -7.03125 C 1.507812 -7.03125 1.757812 -7.046875 2 -7.078125 C 2.25 -7.109375 2.472656 -7.15625 2.671875 -7.21875 L 2.671875 -5.59375 C 2.910156 -6.21875 3.242188 -6.648438 3.671875 -6.890625 C 4.097656 -7.128906 4.539062 -7.25 5 -7.25 Z M 5 -7.25 "/></g></g></g><g fill="#1e5234" fill-opacity="1"><g transform="translate(181.015418, 252.359045)"><g/></g></g><g fill="#1e5234" fill-opacity="1"><g transform="translate(184.432371, 252.359045)"><g><path d="M 6.640625 -10.75 L 6.640625 -1.5 C 6.640625 -1.082031 6.710938 -0.773438 6.859375 -0.578125 C 7.015625 -0.378906 7.289062 -0.28125 7.6875 -0.28125 L 7.6875 0 C 7.394531 -0.03125 7.109375 -0.046875 6.828125 -0.046875 C 6.566406 -0.046875 6.3125 -0.03125 6.0625 0 C 5.820312 0.03125 5.601562 0.0820312 5.40625 0.15625 L 5.40625 -9.109375 C 5.40625 -9.523438 5.332031 -9.828125 5.1875 -10.015625 C 5.039062 -10.210938 4.765625 -10.3125 4.359375 -10.3125 L 4.359375 -10.609375 C 4.648438 -10.578125 4.9375 -10.5625 5.21875 -10.5625 C 5.476562 -10.5625 5.726562 -10.578125 5.96875 -10.609375 C 6.21875 -10.640625 6.441406 -10.6875 6.640625 -10.75 Z M 3.765625 -7.25 C 4.160156 -7.25 4.535156 -7.15625 4.890625 -6.96875 C 5.242188 -6.78125 5.476562 -6.453125 5.59375 -5.984375 L 5.421875 -5.84375 C 5.296875 -6.226562 5.097656 -6.503906 4.828125 -6.671875 C 4.554688 -6.847656 4.238281 -6.9375 3.875 -6.9375 C 3.332031 -6.9375 2.878906 -6.65625 2.515625 -6.09375 C 2.148438 -5.539062 1.972656 -4.6875 1.984375 -3.53125 C 1.984375 -2.789062 2.054688 -2.175781 2.203125 -1.6875 C 2.347656 -1.195312 2.554688 -0.828125 2.828125 -0.578125 C 3.109375 -0.335938 3.453125 -0.21875 3.859375 -0.21875 C 4.242188 -0.21875 4.585938 -0.378906 4.890625 -0.703125 C 5.203125 -1.035156 5.390625 -1.523438 5.453125 -2.171875 L 5.625 -1.96875 C 5.550781 -1.28125 5.328125 -0.75 4.953125 -0.375 C 4.585938 0 4.085938 0.1875 3.453125 0.1875 C 2.890625 0.1875 2.394531 0.0507812 1.96875 -0.21875 C 1.539062 -0.488281 1.210938 -0.898438 0.984375 -1.453125 C 0.765625 -2.003906 0.65625 -2.695312 0.65625 -3.53125 C 0.65625 -4.363281 0.796875 -5.054688 1.078125 -5.609375 C 1.367188 -6.160156 1.75 -6.570312 2.21875 -6.84375 C 2.695312 -7.113281 3.210938 -7.25 3.765625 -7.25 Z M 3.765625 -7.25 "/></g></g></g><g fill="#1e5234" fill-opacity="1"><g transform="translate(192.405275, 252.359045)"><g><path d="M 3.734375 -7.25 C 4.535156 -7.25 5.160156 -7.003906 5.609375 -6.515625 C 6.066406 -6.035156 6.296875 -5.273438 6.296875 -4.234375 L 1.453125 -4.234375 L 1.4375 -4.5 L 4.984375 -4.5 C 4.992188 -4.945312 4.953125 -5.359375 4.859375 -5.734375 C 4.773438 -6.117188 4.632812 -6.425781 4.4375 -6.65625 C 4.238281 -6.882812 3.984375 -7 3.671875 -7 C 3.253906 -7 2.882812 -6.785156 2.5625 -6.359375 C 2.238281 -5.941406 2.039062 -5.273438 1.96875 -4.359375 L 2.015625 -4.3125 C 1.992188 -4.175781 1.976562 -4.023438 1.96875 -3.859375 C 1.96875 -3.691406 1.96875 -3.523438 1.96875 -3.359375 C 1.96875 -2.734375 2.066406 -2.195312 2.265625 -1.75 C 2.460938 -1.300781 2.722656 -0.960938 3.046875 -0.734375 C 3.378906 -0.503906 3.71875 -0.390625 4.0625 -0.390625 C 4.332031 -0.390625 4.59375 -0.429688 4.84375 -0.515625 C 5.09375 -0.597656 5.320312 -0.738281 5.53125 -0.9375 C 5.738281 -1.144531 5.921875 -1.414062 6.078125 -1.75 L 6.359375 -1.640625 C 6.253906 -1.335938 6.085938 -1.046875 5.859375 -0.765625 C 5.628906 -0.484375 5.335938 -0.253906 4.984375 -0.078125 C 4.640625 0.0976562 4.238281 0.1875 3.78125 0.1875 C 3.125 0.1875 2.5625 0.0351562 2.09375 -0.265625 C 1.625 -0.566406 1.257812 -0.984375 1 -1.515625 C 0.75 -2.046875 0.625 -2.660156 0.625 -3.359375 C 0.625 -4.160156 0.753906 -4.851562 1.015625 -5.4375 C 1.273438 -6.019531 1.632812 -6.46875 2.09375 -6.78125 C 2.5625 -7.09375 3.109375 -7.25 3.734375 -7.25 Z M 3.734375 -7.25 "/></g></g></g><g fill="#1e5234" fill-opacity="1"><g transform="translate(199.348966, 252.359045)"><g/></g></g><g fill="#1e5234" fill-opacity="1"><g transform="translate(202.76592, 252.359045)"><g><path d="M 0.578125 -9.71875 C 0.765625 -9.707031 1.015625 -9.695312 1.328125 -9.6875 C 1.640625 -9.675781 1.945312 -9.671875 2.25 -9.671875 C 2.675781 -9.671875 3.085938 -9.675781 3.484375 -9.6875 C 3.878906 -9.695312 4.160156 -9.703125 4.328125 -9.703125 C 5.066406 -9.703125 5.679688 -9.59375 6.171875 -9.375 C 6.660156 -9.164062 7.023438 -8.878906 7.265625 -8.515625 C 7.503906 -8.160156 7.625 -7.757812 7.625 -7.3125 C 7.625 -7.039062 7.566406 -6.75 7.453125 -6.4375 C 7.347656 -6.125 7.160156 -5.828125 6.890625 -5.546875 C 6.617188 -5.273438 6.25 -5.050781 5.78125 -4.875 C 5.320312 -4.695312 4.734375 -4.609375 4.015625 -4.609375 L 2.703125 -4.609375 L 2.703125 -4.890625 L 3.875 -4.890625 C 4.53125 -4.890625 5.03125 -4.988281 5.375 -5.1875 C 5.71875 -5.394531 5.945312 -5.671875 6.0625 -6.015625 C 6.1875 -6.359375 6.25 -6.738281 6.25 -7.15625 C 6.25 -7.882812 6.078125 -8.445312 5.734375 -8.84375 C 5.398438 -9.238281 4.816406 -9.4375 3.984375 -9.4375 C 3.554688 -9.4375 3.28125 -9.359375 3.15625 -9.203125 C 3.03125 -9.046875 2.96875 -8.734375 2.96875 -8.265625 L 2.96875 -1.453125 C 2.96875 -1.117188 2.992188 -0.867188 3.046875 -0.703125 C 3.097656 -0.546875 3.203125 -0.4375 3.359375 -0.375 C 3.523438 -0.320312 3.765625 -0.289062 4.078125 -0.28125 L 4.078125 0 C 3.867188 -0.0195312 3.601562 -0.03125 3.28125 -0.03125 C 2.96875 -0.0390625 2.648438 -0.046875 2.328125 -0.046875 C 1.972656 -0.046875 1.640625 -0.0390625 1.328125 -0.03125 C 1.015625 -0.03125 0.765625 -0.0195312 0.578125 0 L 0.578125 -0.28125 C 0.890625 -0.289062 1.125 -0.320312 1.28125 -0.375 C 1.4375 -0.4375 1.539062 -0.546875 1.59375 -0.703125 C 1.65625 -0.867188 1.6875 -1.117188 1.6875 -1.453125 L 1.6875 -8.265625 C 1.6875 -8.597656 1.65625 -8.84375 1.59375 -9 C 1.539062 -9.164062 1.4375 -9.273438 1.28125 -9.328125 C 1.125 -9.390625 0.890625 -9.425781 0.578125 -9.4375 Z M 2.75 -4.84375 C 3.25 -4.820312 3.640625 -4.800781 3.921875 -4.78125 C 4.203125 -4.757812 4.429688 -4.738281 4.609375 -4.71875 C 4.796875 -4.695312 4.96875 -4.675781 5.125 -4.65625 C 5.738281 -4.550781 6.179688 -4.363281 6.453125 -4.09375 C 6.722656 -3.820312 6.921875 -3.40625 7.046875 -2.84375 L 7.390625 -1.4375 C 7.484375 -1.039062 7.578125 -0.75 7.671875 -0.5625 C 7.765625 -0.382812 7.914062 -0.300781 8.125 -0.3125 C 8.28125 -0.320312 8.410156 -0.375 8.515625 -0.46875 C 8.617188 -0.5625 8.726562 -0.6875 8.84375 -0.84375 L 9.046875 -0.6875 C 8.859375 -0.40625 8.660156 -0.1875 8.453125 -0.03125 C 8.253906 0.113281 7.96875 0.1875 7.59375 0.1875 C 7.25 0.1875 6.945312 0.0859375 6.6875 -0.109375 C 6.4375 -0.304688 6.25 -0.703125 6.125 -1.296875 L 5.8125 -2.65625 C 5.726562 -3.050781 5.632812 -3.390625 5.53125 -3.671875 C 5.425781 -3.960938 5.28125 -4.191406 5.09375 -4.359375 C 4.90625 -4.523438 4.628906 -4.609375 4.265625 -4.609375 L 2.78125 -4.609375 Z M 2.75 -4.84375 "/></g></g></g><g fill="#1e5234" fill-opacity="1"><g transform="translate(211.658242, 252.359045)"><g><path d="M 3.734375 -7.25 C 4.535156 -7.25 5.160156 -7.003906 5.609375 -6.515625 C 6.066406 -6.035156 6.296875 -5.273438 6.296875 -4.234375 L 1.453125 -4.234375 L 1.4375 -4.5 L 4.984375 -4.5 C 4.992188 -4.945312 4.953125 -5.359375 4.859375 -5.734375 C 4.773438 -6.117188 4.632812 -6.425781 4.4375 -6.65625 C 4.238281 -6.882812 3.984375 -7 3.671875 -7 C 3.253906 -7 2.882812 -6.785156 2.5625 -6.359375 C 2.238281 -5.941406 2.039062 -5.273438 1.96875 -4.359375 L 2.015625 -4.3125 C 1.992188 -4.175781 1.976562 -4.023438 1.96875 -3.859375 C 1.96875 -3.691406 1.96875 -3.523438 1.96875 -3.359375 C 1.96875 -2.734375 2.066406 -2.195312 2.265625 -1.75 C 2.460938 -1.300781 2.722656 -0.960938 3.046875 -0.734375 C 3.378906 -0.503906 3.71875 -0.390625 4.0625 -0.390625 C 4.332031 -0.390625 4.59375 -0.429688 4.84375 -0.515625 C 5.09375 -0.597656 5.320312 -0.738281 5.53125 -0.9375 C 5.738281 -1.144531 5.921875 -1.414062 6.078125 -1.75 L 6.359375 -1.640625 C 6.253906 -1.335938 6.085938 -1.046875 5.859375 -0.765625 C 5.628906 -0.484375 5.335938 -0.253906 4.984375 -0.078125 C 4.640625 0.0976562 4.238281 0.1875 3.78125 0.1875 C 3.125 0.1875 2.5625 0.0351562 2.09375 -0.265625 C 1.625 -0.566406 1.257812 -0.984375 1 -1.515625 C 0.75 -2.046875 0.625 -2.660156 0.625 -3.359375 C 0.625 -4.160156 0.753906 -4.851562 1.015625 -5.4375 C 1.273438 -6.019531 1.632812 -6.46875 2.09375 -6.78125 C 2.5625 -7.09375 3.109375 -7.25 3.734375 -7.25 Z M 3.734375 -7.25 "/></g></g></g><g fill="#1e5234" fill-opacity="1"><g transform="translate(218.601933, 252.359045)"><g><path d="M 2.859375 -7.25 C 3.222656 -7.25 3.53125 -7.191406 3.78125 -7.078125 C 4.039062 -6.960938 4.226562 -6.851562 4.34375 -6.75 C 4.644531 -6.5 4.828125 -6.664062 4.890625 -7.25 L 5.21875 -7.25 C 5.195312 -6.988281 5.179688 -6.679688 5.171875 -6.328125 C 5.160156 -5.972656 5.15625 -5.5 5.15625 -4.90625 L 4.84375 -4.90625 C 4.789062 -5.25 4.695312 -5.578125 4.5625 -5.890625 C 4.425781 -6.210938 4.226562 -6.476562 3.96875 -6.6875 C 3.71875 -6.894531 3.390625 -7 2.984375 -7 C 2.660156 -7 2.390625 -6.910156 2.171875 -6.734375 C 1.960938 -6.554688 1.859375 -6.289062 1.859375 -5.9375 C 1.859375 -5.664062 1.9375 -5.429688 2.09375 -5.234375 C 2.257812 -5.035156 2.472656 -4.851562 2.734375 -4.6875 C 3.003906 -4.519531 3.296875 -4.332031 3.609375 -4.125 C 3.953125 -3.90625 4.265625 -3.679688 4.546875 -3.453125 C 4.835938 -3.222656 5.066406 -2.972656 5.234375 -2.703125 C 5.398438 -2.429688 5.484375 -2.109375 5.484375 -1.734375 C 5.484375 -1.304688 5.375 -0.953125 5.15625 -0.671875 C 4.9375 -0.390625 4.648438 -0.175781 4.296875 -0.03125 C 3.941406 0.113281 3.554688 0.1875 3.140625 0.1875 C 2.941406 0.1875 2.753906 0.171875 2.578125 0.140625 C 2.398438 0.109375 2.226562 0.0625 2.0625 0 C 1.96875 -0.0390625 1.867188 -0.09375 1.765625 -0.15625 C 1.671875 -0.226562 1.582031 -0.300781 1.5 -0.375 C 1.40625 -0.445312 1.320312 -0.441406 1.25 -0.359375 C 1.175781 -0.285156 1.117188 -0.132812 1.078125 0.09375 L 0.765625 0.09375 C 0.785156 -0.195312 0.800781 -0.550781 0.8125 -0.96875 C 0.820312 -1.394531 0.828125 -1.953125 0.828125 -2.640625 L 1.140625 -2.640625 C 1.203125 -2.128906 1.289062 -1.679688 1.40625 -1.296875 C 1.53125 -0.921875 1.71875 -0.625 1.96875 -0.40625 C 2.226562 -0.1875 2.585938 -0.078125 3.046875 -0.078125 C 3.222656 -0.078125 3.40625 -0.117188 3.59375 -0.203125 C 3.78125 -0.285156 3.9375 -0.421875 4.0625 -0.609375 C 4.195312 -0.804688 4.265625 -1.066406 4.265625 -1.390625 C 4.265625 -1.785156 4.117188 -2.109375 3.828125 -2.359375 C 3.535156 -2.617188 3.164062 -2.894531 2.71875 -3.1875 C 2.382812 -3.394531 2.070312 -3.601562 1.78125 -3.8125 C 1.5 -4.019531 1.269531 -4.253906 1.09375 -4.515625 C 0.914062 -4.785156 0.828125 -5.109375 0.828125 -5.484375 C 0.828125 -5.898438 0.921875 -6.238281 1.109375 -6.5 C 1.296875 -6.757812 1.539062 -6.945312 1.84375 -7.0625 C 2.15625 -7.1875 2.492188 -7.25 2.859375 -7.25 Z M 2.859375 -7.25 "/></g></g></g><g fill="#1e5234" fill-opacity="1"><g transform="translate(224.735988, 252.359045)"><g><path d="M 3.734375 -7.25 C 4.535156 -7.25 5.160156 -7.003906 5.609375 -6.515625 C 6.066406 -6.035156 6.296875 -5.273438 6.296875 -4.234375 L 1.453125 -4.234375 L 1.4375 -4.5 L 4.984375 -4.5 C 4.992188 -4.945312 4.953125 -5.359375 4.859375 -5.734375 C 4.773438 -6.117188 4.632812 -6.425781 4.4375 -6.65625 C 4.238281 -6.882812 3.984375 -7 3.671875 -7 C 3.253906 -7 2.882812 -6.785156 2.5625 -6.359375 C 2.238281 -5.941406 2.039062 -5.273438 1.96875 -4.359375 L 2.015625 -4.3125 C 1.992188 -4.175781 1.976562 -4.023438 1.96875 -3.859375 C 1.96875 -3.691406 1.96875 -3.523438 1.96875 -3.359375 C 1.96875 -2.734375 2.066406 -2.195312 2.265625 -1.75 C 2.460938 -1.300781 2.722656 -0.960938 3.046875 -0.734375 C 3.378906 -0.503906 3.71875 -0.390625 4.0625 -0.390625 C 4.332031 -0.390625 4.59375 -0.429688 4.84375 -0.515625 C 5.09375 -0.597656 5.320312 -0.738281 5.53125 -0.9375 C 5.738281 -1.144531 5.921875 -1.414062 6.078125 -1.75 L 6.359375 -1.640625 C 6.253906 -1.335938 6.085938 -1.046875 5.859375 -0.765625 C 5.628906 -0.484375 5.335938 -0.253906 4.984375 -0.078125 C 4.640625 0.0976562 4.238281 0.1875 3.78125 0.1875 C 3.125 0.1875 2.5625 0.0351562 2.09375 -0.265625 C 1.625 -0.566406 1.257812 -0.984375 1 -1.515625 C 0.75 -2.046875 0.625 -2.660156 0.625 -3.359375 C 0.625 -4.160156 0.753906 -4.851562 1.015625 -5.4375 C 1.273438 -6.019531 1.632812 -6.46875 2.09375 -6.78125 C 2.5625 -7.09375 3.109375 -7.25 3.734375 -7.25 Z M 3.734375 -7.25 "/></g></g></g><g fill="#1e5234" fill-opacity="1"><g transform="translate(231.679679, 252.359045)"><g><path d="M 4.671875 -7.25 C 4.910156 -7.25 5.125 -7.195312 5.3125 -7.09375 C 5.5 -7 5.644531 -6.867188 5.75 -6.703125 C 5.851562 -6.546875 5.90625 -6.367188 5.90625 -6.171875 C 5.90625 -5.941406 5.832031 -5.738281 5.6875 -5.5625 C 5.550781 -5.394531 5.363281 -5.3125 5.125 -5.3125 C 4.9375 -5.3125 4.769531 -5.367188 4.625 -5.484375 C 4.476562 -5.609375 4.40625 -5.785156 4.40625 -6.015625 C 4.40625 -6.191406 4.453125 -6.34375 4.546875 -6.46875 C 4.640625 -6.59375 4.75 -6.691406 4.875 -6.765625 C 4.8125 -6.859375 4.710938 -6.90625 4.578125 -6.90625 C 4.296875 -6.90625 4.035156 -6.816406 3.796875 -6.640625 C 3.554688 -6.472656 3.351562 -6.253906 3.1875 -5.984375 C 3.03125 -5.722656 2.90625 -5.441406 2.8125 -5.140625 C 2.71875 -4.847656 2.671875 -4.578125 2.671875 -4.328125 L 2.671875 -1.40625 C 2.671875 -0.957031 2.800781 -0.65625 3.0625 -0.5 C 3.320312 -0.351562 3.675781 -0.28125 4.125 -0.28125 L 4.125 0 C 3.914062 -0.0078125 3.617188 -0.0195312 3.234375 -0.03125 C 2.847656 -0.0507812 2.441406 -0.0625 2.015625 -0.0625 C 1.703125 -0.0625 1.390625 -0.0507812 1.078125 -0.03125 C 0.773438 -0.0195312 0.546875 -0.0078125 0.390625 0 L 0.390625 -0.28125 C 0.765625 -0.28125 1.03125 -0.347656 1.1875 -0.484375 C 1.351562 -0.628906 1.4375 -0.894531 1.4375 -1.28125 L 1.4375 -5.5625 C 1.4375 -5.976562 1.363281 -6.285156 1.21875 -6.484375 C 1.070312 -6.679688 0.796875 -6.78125 0.390625 -6.78125 L 0.390625 -7.0625 C 0.691406 -7.039062 0.976562 -7.03125 1.25 -7.03125 C 1.507812 -7.03125 1.757812 -7.046875 2 -7.078125 C 2.25 -7.109375 2.472656 -7.15625 2.671875 -7.21875 L 2.671875 -5.5 C 2.773438 -5.769531 2.921875 -6.035156 3.109375 -6.296875 C 3.296875 -6.566406 3.519531 -6.789062 3.78125 -6.96875 C 4.050781 -7.15625 4.347656 -7.25 4.671875 -7.25 Z M 4.671875 -7.25 "/></g></g></g><g fill="#1e5234" fill-opacity="1"><g transform="translate(237.786292, 252.359045)"><g><path d="M 6.671875 -7.0625 L 6.671875 -6.796875 C 6.492188 -6.773438 6.332031 -6.695312 6.1875 -6.5625 C 6.039062 -6.425781 5.90625 -6.179688 5.78125 -5.828125 L 3.53125 0.0625 C 3.488281 0.0625 3.445312 0.0625 3.40625 0.0625 C 3.375 0.0625 3.335938 0.0625 3.296875 0.0625 L 0.765625 -6.015625 C 0.617188 -6.367188 0.472656 -6.582031 0.328125 -6.65625 C 0.191406 -6.738281 0.0703125 -6.78125 -0.03125 -6.78125 L -0.03125 -7.0625 C 0.15625 -7.050781 0.347656 -7.039062 0.546875 -7.03125 C 0.742188 -7.019531 0.957031 -7.015625 1.1875 -7.015625 C 1.46875 -7.015625 1.765625 -7.015625 2.078125 -7.015625 C 2.390625 -7.023438 2.6875 -7.039062 2.96875 -7.0625 L 2.96875 -6.78125 C 2.738281 -6.78125 2.53125 -6.765625 2.34375 -6.734375 C 2.164062 -6.703125 2.050781 -6.609375 2 -6.453125 C 1.957031 -6.304688 2.003906 -6.054688 2.140625 -5.703125 L 3.859375 -1.46875 L 3.765625 -1.40625 L 5.34375 -5.5 C 5.457031 -5.800781 5.503906 -6.039062 5.484375 -6.21875 C 5.460938 -6.394531 5.367188 -6.53125 5.203125 -6.625 C 5.046875 -6.71875 4.800781 -6.773438 4.46875 -6.796875 L 4.46875 -7.0625 C 4.632812 -7.050781 4.773438 -7.039062 4.890625 -7.03125 C 5.015625 -7.03125 5.132812 -7.03125 5.25 -7.03125 C 5.363281 -7.03125 5.488281 -7.03125 5.625 -7.03125 C 5.832031 -7.03125 6.019531 -7.03125 6.1875 -7.03125 C 6.363281 -7.039062 6.523438 -7.050781 6.671875 -7.0625 Z M 6.671875 -7.0625 "/></g></g></g><g fill="#1e5234" fill-opacity="1"><g transform="translate(244.496695, 252.359045)"><g><path d="M 2.34375 0.09375 C 1.96875 0.09375 1.640625 0.0234375 1.359375 -0.109375 C 1.085938 -0.253906 0.878906 -0.453125 0.734375 -0.703125 C 0.597656 -0.960938 0.53125 -1.265625 0.53125 -1.609375 C 0.53125 -2.003906 0.625 -2.332031 0.8125 -2.59375 C 1 -2.851562 1.238281 -3.054688 1.53125 -3.203125 C 1.820312 -3.359375 2.128906 -3.488281 2.453125 -3.59375 C 2.785156 -3.707031 3.097656 -3.8125 3.390625 -3.90625 C 3.679688 -4 3.921875 -4.109375 4.109375 -4.234375 C 4.296875 -4.367188 4.390625 -4.539062 4.390625 -4.75 L 4.390625 -5.59375 C 4.390625 -5.976562 4.332031 -6.269531 4.21875 -6.46875 C 4.101562 -6.675781 3.945312 -6.8125 3.75 -6.875 C 3.5625 -6.945312 3.347656 -6.984375 3.109375 -6.984375 C 2.878906 -6.984375 2.632812 -6.953125 2.375 -6.890625 C 2.113281 -6.828125 1.90625 -6.691406 1.75 -6.484375 C 1.925781 -6.453125 2.078125 -6.363281 2.203125 -6.21875 C 2.335938 -6.070312 2.40625 -5.882812 2.40625 -5.65625 C 2.40625 -5.425781 2.332031 -5.242188 2.1875 -5.109375 C 2.039062 -4.972656 1.851562 -4.90625 1.625 -4.90625 C 1.351562 -4.90625 1.15625 -4.988281 1.03125 -5.15625 C 0.90625 -5.332031 0.84375 -5.523438 0.84375 -5.734375 C 0.84375 -5.972656 0.898438 -6.164062 1.015625 -6.3125 C 1.140625 -6.457031 1.296875 -6.59375 1.484375 -6.71875 C 1.691406 -6.863281 1.960938 -6.988281 2.296875 -7.09375 C 2.628906 -7.195312 3.007812 -7.25 3.4375 -7.25 C 3.800781 -7.25 4.113281 -7.207031 4.375 -7.125 C 4.644531 -7.039062 4.867188 -6.914062 5.046875 -6.75 C 5.285156 -6.53125 5.441406 -6.257812 5.515625 -5.9375 C 5.585938 -5.625 5.625 -5.25 5.625 -4.8125 L 5.625 -1 C 5.625 -0.769531 5.65625 -0.601562 5.71875 -0.5 C 5.789062 -0.40625 5.898438 -0.359375 6.046875 -0.359375 C 6.148438 -0.359375 6.242188 -0.378906 6.328125 -0.421875 C 6.421875 -0.472656 6.535156 -0.546875 6.671875 -0.640625 L 6.8125 -0.40625 C 6.625 -0.257812 6.441406 -0.140625 6.265625 -0.046875 C 6.097656 0.046875 5.863281 0.09375 5.5625 0.09375 C 5.300781 0.09375 5.082031 0.0507812 4.90625 -0.03125 C 4.738281 -0.125 4.609375 -0.257812 4.515625 -0.4375 C 4.429688 -0.625 4.390625 -0.851562 4.390625 -1.125 C 4.140625 -0.707031 3.84375 -0.398438 3.5 -0.203125 C 3.15625 -0.00390625 2.769531 0.09375 2.34375 0.09375 Z M 2.84375 -0.453125 C 3.144531 -0.453125 3.425781 -0.535156 3.6875 -0.703125 C 3.945312 -0.878906 4.179688 -1.144531 4.390625 -1.5 L 4.390625 -4.1875 C 4.273438 -4.03125 4.113281 -3.898438 3.90625 -3.796875 C 3.695312 -3.691406 3.46875 -3.582031 3.21875 -3.46875 C 2.976562 -3.363281 2.742188 -3.238281 2.515625 -3.09375 C 2.296875 -2.957031 2.113281 -2.773438 1.96875 -2.546875 C 1.820312 -2.316406 1.75 -2.019531 1.75 -1.65625 C 1.75 -1.289062 1.84375 -1 2.03125 -0.78125 C 2.226562 -0.5625 2.5 -0.453125 2.84375 -0.453125 Z M 2.84375 -0.453125 "/></g></g></g><g fill="#1e5234" fill-opacity="1"><g transform="translate(251.330602, 252.359045)"><g><path d="M 2.859375 -7.25 C 3.222656 -7.25 3.53125 -7.191406 3.78125 -7.078125 C 4.039062 -6.960938 4.226562 -6.851562 4.34375 -6.75 C 4.644531 -6.5 4.828125 -6.664062 4.890625 -7.25 L 5.21875 -7.25 C 5.195312 -6.988281 5.179688 -6.679688 5.171875 -6.328125 C 5.160156 -5.972656 5.15625 -5.5 5.15625 -4.90625 L 4.84375 -4.90625 C 4.789062 -5.25 4.695312 -5.578125 4.5625 -5.890625 C 4.425781 -6.210938 4.226562 -6.476562 3.96875 -6.6875 C 3.71875 -6.894531 3.390625 -7 2.984375 -7 C 2.660156 -7 2.390625 -6.910156 2.171875 -6.734375 C 1.960938 -6.554688 1.859375 -6.289062 1.859375 -5.9375 C 1.859375 -5.664062 1.9375 -5.429688 2.09375 -5.234375 C 2.257812 -5.035156 2.472656 -4.851562 2.734375 -4.6875 C 3.003906 -4.519531 3.296875 -4.332031 3.609375 -4.125 C 3.953125 -3.90625 4.265625 -3.679688 4.546875 -3.453125 C 4.835938 -3.222656 5.066406 -2.972656 5.234375 -2.703125 C 5.398438 -2.429688 5.484375 -2.109375 5.484375 -1.734375 C 5.484375 -1.304688 5.375 -0.953125 5.15625 -0.671875 C 4.9375 -0.390625 4.648438 -0.175781 4.296875 -0.03125 C 3.941406 0.113281 3.554688 0.1875 3.140625 0.1875 C 2.941406 0.1875 2.753906 0.171875 2.578125 0.140625 C 2.398438 0.109375 2.226562 0.0625 2.0625 0 C 1.96875 -0.0390625 1.867188 -0.09375 1.765625 -0.15625 C 1.671875 -0.226562 1.582031 -0.300781 1.5 -0.375 C 1.40625 -0.445312 1.320312 -0.441406 1.25 -0.359375 C 1.175781 -0.285156 1.117188 -0.132812 1.078125 0.09375 L 0.765625 0.09375 C 0.785156 -0.195312 0.800781 -0.550781 0.8125 -0.96875 C 0.820312 -1.394531 0.828125 -1.953125 0.828125 -2.640625 L 1.140625 -2.640625 C 1.203125 -2.128906 1.289062 -1.679688 1.40625 -1.296875 C 1.53125 -0.921875 1.71875 -0.625 1.96875 -0.40625 C 2.226562 -0.1875 2.585938 -0.078125 3.046875 -0.078125 C 3.222656 -0.078125 3.40625 -0.117188 3.59375 -0.203125 C 3.78125 -0.285156 3.9375 -0.421875 4.0625 -0.609375 C 4.195312 -0.804688 4.265625 -1.066406 4.265625 -1.390625 C 4.265625 -1.785156 4.117188 -2.109375 3.828125 -2.359375 C 3.535156 -2.617188 3.164062 -2.894531 2.71875 -3.1875 C 2.382812 -3.394531 2.070312 -3.601562 1.78125 -3.8125 C 1.5 -4.019531 1.269531 -4.253906 1.09375 -4.515625 C 0.914062 -4.785156 0.828125 -5.109375 0.828125 -5.484375 C 0.828125 -5.898438 0.921875 -6.238281 1.109375 -6.5 C 1.296875 -6.757812 1.539062 -6.945312 1.84375 -7.0625 C 2.15625 -7.1875 2.492188 -7.25 2.859375 -7.25 Z M 2.859375 -7.25 "/></g></g></g></svg>